G04 #@! TF.GenerationSoftware,KiCad,Pcbnew,(6.0.6)*
G04 #@! TF.CreationDate,2022-07-03T11:58:25+02:00*
G04 #@! TF.ProjectId,stencil,7374656e-6369-46c2-9e6b-696361645f70,rev?*
G04 #@! TF.SameCoordinates,Original*
G04 #@! TF.FileFunction,Paste,Bot*
G04 #@! TF.FilePolarity,Positive*
%FSLAX46Y46*%
G04 Gerber Fmt 4.6, Leading zero omitted, Abs format (unit mm)*
G04 Created by KiCad (PCBNEW (6.0.6)) date 2022-07-03 11:58:25*
%MOMM*%
%LPD*%
G01*
G04 APERTURE LIST*
%ADD10C,0.500000*%
%ADD11C,1.000000*%
%ADD12C,1.050000*%
G04 APERTURE END LIST*
D10*
X138000000Y-108000000D02*
X148000000Y-108000000D01*
X114000000Y-108000000D02*
X124000000Y-108000000D01*
X149000000Y-85000000D02*
X149000000Y-95000000D01*
D11*
X146250000Y-66000000D02*
G75*
G03*
X146250000Y-66000000I-500000J0D01*
G01*
D10*
X148500000Y-83500000D02*
G75*
G03*
X149000000Y-83000000I0J500000D01*
G01*
D11*
X68750000Y-85375000D02*
G75*
G03*
X68750000Y-85375000I-500000J0D01*
G01*
D10*
X148500000Y-95500000D02*
G75*
G03*
X149000000Y-95000000I0J500000D01*
G01*
X78000000Y-24000000D02*
G75*
G03*
X77500000Y-24500000I0J-500000D01*
G01*
X112500000Y-24500000D02*
G75*
G03*
X112000000Y-24000000I-500000J0D01*
G01*
X66000000Y-108000000D02*
X76000000Y-108000000D01*
X148500000Y-35500000D02*
G75*
G03*
X149000000Y-35000000I0J500000D01*
G01*
X138000000Y-24000000D02*
X148000000Y-24000000D01*
X76500000Y-24500000D02*
G75*
G03*
X76000000Y-24000000I-500000J0D01*
G01*
X65000000Y-49000000D02*
X65000000Y-59000000D01*
X138000000Y-24000000D02*
G75*
G03*
X137500000Y-24500000I0J-500000D01*
G01*
X89500000Y-107500000D02*
G75*
G03*
X90000000Y-108000000I500000J0D01*
G01*
D11*
X88125000Y-104750000D02*
G75*
G03*
X88125000Y-104750000I-500000J0D01*
G01*
D10*
X149000000Y-73000000D02*
X149000000Y-83000000D01*
X100500000Y-24500000D02*
G75*
G03*
X100000000Y-24000000I-500000J0D01*
G01*
X148500000Y-47500000D02*
G75*
G03*
X149000000Y-47000000I0J500000D01*
G01*
X101500000Y-107500000D02*
G75*
G03*
X102000000Y-108000000I500000J0D01*
G01*
X149000000Y-61000000D02*
G75*
G03*
X148500000Y-60500000I-500000J0D01*
G01*
X136000000Y-108000000D02*
G75*
G03*
X136500000Y-107500000I0J500000D01*
G01*
X112000000Y-108000000D02*
G75*
G03*
X112500000Y-107500000I0J500000D01*
G01*
X149000000Y-85000000D02*
G75*
G03*
X148500000Y-84500000I-500000J0D01*
G01*
X65000000Y-35000000D02*
G75*
G03*
X65500000Y-35500000I500000J0D01*
G01*
X148500000Y-71500000D02*
G75*
G03*
X149000000Y-71000000I0J500000D01*
G01*
D11*
X88125000Y-27250000D02*
G75*
G03*
X88125000Y-27250000I-500000J0D01*
G01*
D12*
X146275000Y-104750000D02*
G75*
G03*
X146275000Y-104750000I-525000J0D01*
G01*
D10*
X100000000Y-108000000D02*
G75*
G03*
X100500000Y-107500000I0J500000D01*
G01*
D11*
X68750000Y-46625000D02*
G75*
G03*
X68750000Y-46625000I-500000J0D01*
G01*
D10*
X90000000Y-24000000D02*
G75*
G03*
X89500000Y-24500000I0J-500000D01*
G01*
X125500000Y-107500000D02*
G75*
G03*
X126000000Y-108000000I500000J0D01*
G01*
X65500000Y-84500000D02*
G75*
G03*
X65000000Y-85000000I0J-500000D01*
G01*
X137500000Y-107500000D02*
G75*
G03*
X138000000Y-108000000I500000J0D01*
G01*
D11*
X68750000Y-66000000D02*
G75*
G03*
X68750000Y-66000000I-500000J0D01*
G01*
D10*
X149000000Y-49000000D02*
G75*
G03*
X148500000Y-48500000I-500000J0D01*
G01*
X65500000Y-60500000D02*
G75*
G03*
X65000000Y-61000000I0J-500000D01*
G01*
X149000000Y-97000000D02*
G75*
G03*
X148500000Y-96500000I-500000J0D01*
G01*
X113500000Y-107500000D02*
G75*
G03*
X114000000Y-108000000I500000J0D01*
G01*
D12*
X146275000Y-27250000D02*
G75*
G03*
X146275000Y-27250000I-525000J0D01*
G01*
D10*
X65000000Y-85000000D02*
X65000000Y-95000000D01*
D12*
X68775000Y-104750000D02*
G75*
G03*
X68775000Y-104750000I-525000J0D01*
G01*
D10*
X102000000Y-24000000D02*
G75*
G03*
X101500000Y-24500000I0J-500000D01*
G01*
X65000000Y-97000000D02*
X65000000Y-107000000D01*
X114000000Y-24000000D02*
G75*
G03*
X113500000Y-24500000I0J-500000D01*
G01*
X126000000Y-24000000D02*
X136000000Y-24000000D01*
X126000000Y-24000000D02*
G75*
G03*
X125500000Y-24500000I0J-500000D01*
G01*
X65000000Y-107000000D02*
G75*
G03*
X66000000Y-108000000I1000000J0D01*
G01*
X148500000Y-59500000D02*
G75*
G03*
X149000000Y-59000000I0J500000D01*
G01*
X65000000Y-71000000D02*
G75*
G03*
X65500000Y-71500000I500000J0D01*
G01*
X65500000Y-48500000D02*
G75*
G03*
X65000000Y-49000000I0J-500000D01*
G01*
X65500000Y-36500000D02*
G75*
G03*
X65000000Y-37000000I0J-500000D01*
G01*
X65000000Y-95000000D02*
G75*
G03*
X65500000Y-95500000I500000J0D01*
G01*
X149000000Y-37000000D02*
X149000000Y-47000000D01*
X148000000Y-108000000D02*
G75*
G03*
X149000000Y-107000000I0J1000000D01*
G01*
X149000000Y-25000000D02*
X149000000Y-35000000D01*
X149000000Y-73000000D02*
G75*
G03*
X148500000Y-72500000I-500000J0D01*
G01*
X66000000Y-24000000D02*
G75*
G03*
X65000000Y-25000000I0J-1000000D01*
G01*
X102000000Y-24000000D02*
X112000000Y-24000000D01*
X90000000Y-108000000D02*
X100000000Y-108000000D01*
X149000000Y-25000000D02*
G75*
G03*
X148000000Y-24000000I-1000000J0D01*
G01*
X65000000Y-83000000D02*
G75*
G03*
X65500000Y-83500000I500000J0D01*
G01*
X149000000Y-37000000D02*
G75*
G03*
X148500000Y-36500000I-500000J0D01*
G01*
D12*
X68775000Y-27250000D02*
G75*
G03*
X68775000Y-27250000I-525000J0D01*
G01*
D10*
X65000000Y-25000000D02*
X65000000Y-35000000D01*
X90000000Y-24000000D02*
X100000000Y-24000000D01*
D11*
X146250000Y-46625000D02*
G75*
G03*
X146250000Y-46625000I-500000J0D01*
G01*
D10*
X66000000Y-24000000D02*
X76000000Y-24000000D01*
D11*
X126875000Y-27250000D02*
G75*
G03*
X126875000Y-27250000I-500000J0D01*
G01*
D10*
X65000000Y-73000000D02*
X65000000Y-83000000D01*
X88000000Y-108000000D02*
G75*
G03*
X88500000Y-107500000I0J500000D01*
G01*
X65000000Y-61000000D02*
X65000000Y-71000000D01*
X76000000Y-108000000D02*
G75*
G03*
X76500000Y-107500000I0J500000D01*
G01*
D11*
X107500000Y-27250000D02*
G75*
G03*
X107500000Y-27250000I-500000J0D01*
G01*
D10*
X124000000Y-108000000D02*
G75*
G03*
X124500000Y-107500000I0J500000D01*
G01*
X149000000Y-61000000D02*
X149000000Y-71000000D01*
X126000000Y-108000000D02*
X136000000Y-108000000D01*
X77500000Y-107500000D02*
G75*
G03*
X78000000Y-108000000I500000J0D01*
G01*
D11*
X107500000Y-104750000D02*
G75*
G03*
X107500000Y-104750000I-500000J0D01*
G01*
D10*
X65000000Y-37000000D02*
X65000000Y-47000000D01*
X78000000Y-108000000D02*
X88000000Y-108000000D01*
X102000000Y-108000000D02*
X112000000Y-108000000D01*
X65500000Y-72500000D02*
G75*
G03*
X65000000Y-73000000I0J-500000D01*
G01*
X114000000Y-24000000D02*
X124000000Y-24000000D01*
X136500000Y-24500000D02*
G75*
G03*
X136000000Y-24000000I-500000J0D01*
G01*
X149000000Y-97000000D02*
X149000000Y-107000000D01*
X65000000Y-59000000D02*
G75*
G03*
X65500000Y-59500000I500000J0D01*
G01*
X65000000Y-47000000D02*
G75*
G03*
X65500000Y-47500000I500000J0D01*
G01*
X124500000Y-24500000D02*
G75*
G03*
X124000000Y-24000000I-500000J0D01*
G01*
X65500000Y-96500000D02*
G75*
G03*
X65000000Y-97000000I0J-500000D01*
G01*
D11*
X146250000Y-85375000D02*
G75*
G03*
X146250000Y-85375000I-500000J0D01*
G01*
D10*
X78000000Y-24000000D02*
X88000000Y-24000000D01*
X88500000Y-24500000D02*
G75*
G03*
X88000000Y-24000000I-500000J0D01*
G01*
D11*
X126875000Y-104750000D02*
G75*
G03*
X126875000Y-104750000I-500000J0D01*
G01*
D10*
X149000000Y-49000000D02*
X149000000Y-59000000D01*
M02*
