%TF.GenerationSoftware,KiCad,Pcbnew,(6.0.6)*%
%TF.CreationDate,2022-06-28T18:53:51+02:00*%
%TF.ProjectId,thermocouples,74686572-6d6f-4636-9f75-706c65732e6b,rev?*%
%TF.SameCoordinates,Original*%
%TF.FileFunction,Copper,L1,Top*%
%TF.FilePolarity,Positive*%
%FSLAX46Y46*%
G04 Gerber Fmt 4.6, Leading zero omitted, Abs format (unit mm)*
G04 Created by KiCad (PCBNEW (6.0.6)) date 2022-06-28 18:53:51*
%MOMM*%
%LPD*%
G01*
G04 APERTURE LIST*
G04 Aperture macros list*
%AMRoundRect*
0 Rectangle with rounded corners*
0 $1 Rounding radius*
0 $2 $3 $4 $5 $6 $7 $8 $9 X,Y pos of 4 corners*
0 Add a 4 corners polygon primitive as box body*
4,1,4,$2,$3,$4,$5,$6,$7,$8,$9,$2,$3,0*
0 Add four circle primitives for the rounded corners*
1,1,$1+$1,$2,$3*
1,1,$1+$1,$4,$5*
1,1,$1+$1,$6,$7*
1,1,$1+$1,$8,$9*
0 Add four rect primitives between the rounded corners*
20,1,$1+$1,$2,$3,$4,$5,0*
20,1,$1+$1,$4,$5,$6,$7,0*
20,1,$1+$1,$6,$7,$8,$9,0*
20,1,$1+$1,$8,$9,$2,$3,0*%
G04 Aperture macros list end*
%TA.AperFunction,SMDPad,CuDef*%
%ADD10RoundRect,0.237500X0.300000X0.237500X-0.300000X0.237500X-0.300000X-0.237500X0.300000X-0.237500X0*%
%TD*%
%TA.AperFunction,ComponentPad*%
%ADD11R,2.600000X2.600000*%
%TD*%
%TA.AperFunction,ComponentPad*%
%ADD12C,2.600000*%
%TD*%
%TA.AperFunction,ComponentPad*%
%ADD13R,1.700000X1.700000*%
%TD*%
%TA.AperFunction,ComponentPad*%
%ADD14O,1.700000X1.700000*%
%TD*%
%TA.AperFunction,SMDPad,CuDef*%
%ADD15RoundRect,0.237500X0.237500X-0.250000X0.237500X0.250000X-0.237500X0.250000X-0.237500X-0.250000X0*%
%TD*%
%TA.AperFunction,SMDPad,CuDef*%
%ADD16RoundRect,0.087500X0.325000X0.087500X-0.325000X0.087500X-0.325000X-0.087500X0.325000X-0.087500X0*%
%TD*%
%TA.AperFunction,SMDPad,CuDef*%
%ADD17RoundRect,0.087500X0.087500X0.325000X-0.087500X0.325000X-0.087500X-0.325000X0.087500X-0.325000X0*%
%TD*%
%TA.AperFunction,SMDPad,CuDef*%
%ADD18R,2.700000X2.700000*%
%TD*%
%TA.AperFunction,SMDPad,CuDef*%
%ADD19RoundRect,0.237500X-0.237500X0.250000X-0.237500X-0.250000X0.237500X-0.250000X0.237500X0.250000X0*%
%TD*%
%TA.AperFunction,SMDPad,CuDef*%
%ADD20RoundRect,0.237500X-0.250000X-0.237500X0.250000X-0.237500X0.250000X0.237500X-0.250000X0.237500X0*%
%TD*%
%TA.AperFunction,SMDPad,CuDef*%
%ADD21RoundRect,0.237500X-0.300000X-0.237500X0.300000X-0.237500X0.300000X0.237500X-0.300000X0.237500X0*%
%TD*%
%TA.AperFunction,SMDPad,CuDef*%
%ADD22RoundRect,0.237500X0.250000X0.237500X-0.250000X0.237500X-0.250000X-0.237500X0.250000X-0.237500X0*%
%TD*%
%TA.AperFunction,ViaPad*%
%ADD23C,0.600000*%
%TD*%
%TA.AperFunction,Conductor*%
%ADD24C,0.500000*%
%TD*%
%TA.AperFunction,Conductor*%
%ADD25C,0.250000*%
%TD*%
%TA.AperFunction,Conductor*%
%ADD26C,0.200000*%
%TD*%
G04 APERTURE END LIST*
D10*
%TO.P,C8,1*%
%TO.N,+3V3*%
X102862500Y-67000000D03*
%TO.P,C8,2*%
%TO.N,GND*%
X101137500Y-67000000D03*
%TD*%
D11*
%TO.P,J4,1,Pin_1*%
%TO.N,/THERM1-*%
X104500000Y-84305000D03*
D12*
%TO.P,J4,2,Pin_2*%
%TO.N,/THERM1+*%
X109500000Y-84305000D03*
%TD*%
D13*
%TO.P,J2,1,Pin_1*%
%TO.N,/GPIO15*%
X116875000Y-87275000D03*
D14*
%TO.P,J2,2,Pin_2*%
%TO.N,/GPIO16*%
X116875000Y-84735000D03*
%TO.P,J2,3,Pin_3*%
%TO.N,/GPIO17*%
X116875000Y-82195000D03*
%TO.P,J2,4,Pin_4*%
%TO.N,/GPIO18*%
X116875000Y-79655000D03*
%TO.P,J2,5,Pin_5*%
%TO.N,/GPIO19*%
X116875000Y-77115000D03*
%TO.P,J2,6,Pin_6*%
%TO.N,/SPI0_MISO*%
X116875000Y-74575000D03*
%TO.P,J2,7,Pin_7*%
%TO.N,/SPI0_CSn*%
X116875000Y-72035000D03*
%TO.P,J2,8,Pin_8*%
%TO.N,/SPI0_SCK*%
X116875000Y-69495000D03*
%TO.P,J2,9,Pin_9*%
%TO.N,/SPI0_MOSI*%
X116875000Y-66955000D03*
%TO.P,J2,10,Pin_10*%
%TO.N,/GPIO24*%
X116875000Y-64415000D03*
%TO.P,J2,11,Pin_11*%
%TO.N,/GPIO25*%
X116875000Y-61875000D03*
%TO.P,J2,12,Pin_12*%
%TO.N,/ADC0*%
X116875000Y-59335000D03*
%TO.P,J2,13,Pin_13*%
%TO.N,/ADC1*%
X116875000Y-56795000D03*
%TO.P,J2,14,Pin_14*%
%TO.N,/ADC2*%
X116875000Y-54255000D03*
%TO.P,J2,15,Pin_15*%
%TO.N,/ADC3*%
X116875000Y-51715000D03*
%TO.P,J2,16,Pin_16*%
%TO.N,GND*%
X116875000Y-49175000D03*
%TO.P,J2,17,Pin_17*%
%TO.N,+3V3*%
X116875000Y-46635000D03*
%TO.P,J2,18,Pin_18*%
%TO.N,VBUS*%
X116875000Y-44095000D03*
%TD*%
D15*
%TO.P,R8,1*%
%TO.N,/THERM1-*%
X105000000Y-74912500D03*
%TO.P,R8,2*%
%TO.N,Net-(C5-Pad2)*%
X105000000Y-73087500D03*
%TD*%
%TO.P,R7,1*%
%TO.N,/THERM1+*%
X109000000Y-74912500D03*
%TO.P,R7,2*%
%TO.N,Net-(C4-Pad2)*%
X109000000Y-73087500D03*
%TD*%
D16*
%TO.P,U1,1,CLK*%
%TO.N,GND*%
X108962500Y-66975000D03*
%TO.P,U1,2,DGND*%
X108962500Y-66325000D03*
%TO.P,U1,3,AVSS*%
X108962500Y-65675000D03*
%TO.P,U1,4,AIN3/REFN1*%
%TO.N,/AIN3*%
X108962500Y-65025000D03*
D17*
%TO.P,U1,5,AIN2*%
%TO.N,/AIN2*%
X107975000Y-64037500D03*
%TO.P,U1,6,REFN0*%
%TO.N,unconnected-(U1-Pad6)*%
X107325000Y-64037500D03*
%TO.P,U1,7,REFP0*%
%TO.N,unconnected-(U1-Pad7)*%
X106675000Y-64037500D03*
%TO.P,U1,8,AIN1*%
%TO.N,/AIN1*%
X106025000Y-64037500D03*
D16*
%TO.P,U1,9,AIN0/REFP1*%
%TO.N,/AIN0*%
X105037500Y-65025000D03*
%TO.P,U1,10,AVDD*%
%TO.N,+3V3*%
X105037500Y-65675000D03*
%TO.P,U1,11,DVDD*%
X105037500Y-66325000D03*
%TO.P,U1,12,~{DRDY}*%
%TO.N,/DRDY#*%
X105037500Y-66975000D03*
D17*
%TO.P,U1,13,DOUT/~{DRDY}*%
%TO.N,/SPI0_MISO*%
X106025000Y-67962500D03*
%TO.P,U1,14,DIN*%
%TO.N,/SPI0_MOSI*%
X106675000Y-67962500D03*
%TO.P,U1,15,SCLK*%
%TO.N,/SPI0_SCK*%
X107325000Y-67962500D03*
%TO.P,U1,16,~{CS}*%
%TO.N,/SPI0_CSn*%
X107975000Y-67962500D03*
D18*
%TO.P,U1,17,PAD*%
%TO.N,GND*%
X107000000Y-66000000D03*
%TD*%
D19*
%TO.P,R6,1*%
%TO.N,/THERM0-*%
X109000000Y-58087500D03*
%TO.P,R6,2*%
%TO.N,/AIN1*%
X109000000Y-59912500D03*
%TD*%
D11*
%TO.P,J3,1,Pin_1*%
%TO.N,/THERM0-*%
X109500000Y-47695000D03*
D12*
%TO.P,J3,2,Pin_2*%
%TO.N,/THERM0+*%
X104500000Y-47695000D03*
%TD*%
D20*
%TO.P,R2,1*%
%TO.N,/THERM0-*%
X110087500Y-56000000D03*
%TO.P,R2,2*%
%TO.N,GND*%
X111912500Y-56000000D03*
%TD*%
D21*
%TO.P,C1,1*%
%TO.N,GND*%
X102137500Y-62000000D03*
%TO.P,C1,2*%
%TO.N,/AIN0*%
X103862500Y-62000000D03*
%TD*%
D13*
%TO.P,J1,1,Pin_1*%
%TO.N,/GPIO14*%
X97115000Y-87225000D03*
D14*
%TO.P,J1,2,Pin_2*%
%TO.N,/GPIO13*%
X97115000Y-84685000D03*
%TO.P,J1,3,Pin_3*%
%TO.N,/GPIO12*%
X97115000Y-82145000D03*
%TO.P,J1,4,Pin_4*%
%TO.N,/GPIO11*%
X97115000Y-79605000D03*
%TO.P,J1,5,Pin_5*%
%TO.N,/GPIO10*%
X97115000Y-77065000D03*
%TO.P,J1,6,Pin_6*%
%TO.N,/GPIO9*%
X97115000Y-74525000D03*
%TO.P,J1,7,Pin_7*%
%TO.N,/GPIO8*%
X97115000Y-71985000D03*
%TO.P,J1,8,Pin_8*%
%TO.N,/GPIO7*%
X97115000Y-69445000D03*
%TO.P,J1,9,Pin_9*%
%TO.N,/GPIO6*%
X97115000Y-66905000D03*
%TO.P,J1,10,Pin_10*%
%TO.N,/GPIO5*%
X97115000Y-64365000D03*
%TO.P,J1,11,Pin_11*%
%TO.N,/GPIO4*%
X97115000Y-61825000D03*
%TO.P,J1,12,Pin_12*%
%TO.N,/GPIO3*%
X97115000Y-59285000D03*
%TO.P,J1,13,Pin_13*%
%TO.N,/GPIO2*%
X97115000Y-56745000D03*
%TO.P,J1,14,Pin_14*%
%TO.N,/GPIO1*%
X97115000Y-54205000D03*
%TO.P,J1,15,Pin_15*%
%TO.N,/GPIO0*%
X97115000Y-51665000D03*
%TO.P,J1,16,Pin_16*%
%TO.N,GND*%
X97115000Y-49125000D03*
%TO.P,J1,17,Pin_17*%
%TO.N,+3V3*%
X97115000Y-46585000D03*
%TO.P,J1,18,Pin_18*%
%TO.N,VBUS*%
X97115000Y-44045000D03*
%TD*%
D22*
%TO.P,R3,1*%
%TO.N,GND*%
X111912500Y-77000000D03*
%TO.P,R3,2*%
%TO.N,/THERM1+*%
X110087500Y-77000000D03*
%TD*%
D10*
%TO.P,C6,1*%
%TO.N,Net-(C5-Pad2)*%
X103862500Y-71000000D03*
%TO.P,C6,2*%
%TO.N,GND*%
X102137500Y-71000000D03*
%TD*%
%TO.P,C5,1*%
%TO.N,Net-(C4-Pad2)*%
X107862500Y-71000000D03*
%TO.P,C5,2*%
%TO.N,Net-(C5-Pad2)*%
X106137500Y-71000000D03*
%TD*%
D21*
%TO.P,C2,1*%
%TO.N,/AIN0*%
X106137500Y-62000000D03*
%TO.P,C2,2*%
%TO.N,/AIN1*%
X107862500Y-62000000D03*
%TD*%
D22*
%TO.P,R4,1*%
%TO.N,/THERM1-*%
X103912500Y-77000000D03*
%TO.P,R4,2*%
%TO.N,+3V3*%
X102087500Y-77000000D03*
%TD*%
D21*
%TO.P,C3,1*%
%TO.N,/AIN1*%
X110137500Y-62000000D03*
%TO.P,C3,2*%
%TO.N,GND*%
X111862500Y-62000000D03*
%TD*%
D10*
%TO.P,C7,1*%
%TO.N,+3V3*%
X102862500Y-65000000D03*
%TO.P,C7,2*%
%TO.N,GND*%
X101137500Y-65000000D03*
%TD*%
D19*
%TO.P,R5,1*%
%TO.N,/THERM0+*%
X105000000Y-58087500D03*
%TO.P,R5,2*%
%TO.N,/AIN0*%
X105000000Y-59912500D03*
%TD*%
D10*
%TO.P,C4,1*%
%TO.N,GND*%
X111862500Y-71000000D03*
%TO.P,C4,2*%
%TO.N,Net-(C4-Pad2)*%
X110137500Y-71000000D03*
%TD*%
D20*
%TO.P,R1,1*%
%TO.N,+3V3*%
X102087500Y-56000000D03*
%TO.P,R1,2*%
%TO.N,/THERM0+*%
X103912500Y-56000000D03*
%TD*%
D23*
%TO.N,GND*%
X111000000Y-60000000D03*
X115000000Y-58000000D03*
X103000000Y-75000000D03*
X113000000Y-75000000D03*
X101000000Y-69000000D03*
X113000000Y-60000000D03*
X111000000Y-75000000D03*
X115000000Y-73000000D03*
X103000000Y-73000000D03*
X115000000Y-64000000D03*
X103000000Y-60000000D03*
X115000000Y-75000000D03*
X107000000Y-73000000D03*
X103000000Y-69000000D03*
X103000000Y-58000000D03*
X107000000Y-60000000D03*
X115000000Y-60000000D03*
X103000000Y-64000000D03*
X111000000Y-64000000D03*
X113000000Y-58000000D03*
X101000000Y-58000000D03*
X111000000Y-66000000D03*
X107000000Y-58000000D03*
X101000000Y-75000000D03*
X115000000Y-66000000D03*
X111000000Y-58000000D03*
X113000000Y-66000000D03*
X101000000Y-60000000D03*
X113000000Y-64000000D03*
X113000000Y-73000000D03*
X107000000Y-75000000D03*
X111000000Y-73000000D03*
X101000000Y-73000000D03*
%TO.N,+3V3*%
X103000000Y-66000000D03*
X101000000Y-77000000D03*
X100750000Y-56000000D03*
%TO.N,/THERM0+*%
X101000000Y-47000000D03*
X101000000Y-45000000D03*
X103000000Y-45000000D03*
X103000000Y-53000000D03*
X101000000Y-49000000D03*
X105000000Y-51000000D03*
X101000000Y-53000000D03*
X105000000Y-45000000D03*
X105000000Y-53000000D03*
X101000000Y-51000000D03*
X103000000Y-51000000D03*
%TO.N,/THERM0-*%
X109000000Y-45000000D03*
X109000000Y-51000000D03*
X113000000Y-51000000D03*
X113000000Y-47000000D03*
X111000000Y-45000000D03*
X111000000Y-53000000D03*
X111000000Y-51000000D03*
X113000000Y-49000000D03*
X113000000Y-53000000D03*
X109000000Y-53000000D03*
X113000000Y-45000000D03*
%TO.N,/THERM1+*%
X109000000Y-79000000D03*
X113000000Y-83000000D03*
X113000000Y-79000000D03*
X109000000Y-87000000D03*
X111000000Y-79000000D03*
X113000000Y-85000000D03*
X111000000Y-81000000D03*
X113000000Y-81000000D03*
X113000000Y-87000000D03*
X111000000Y-87000000D03*
X109000000Y-81000000D03*
%TO.N,/THERM1-*%
X105000000Y-87000000D03*
X101000000Y-81000000D03*
X101000000Y-83000000D03*
X105000000Y-79000000D03*
X101000000Y-85000000D03*
X105000000Y-81000000D03*
X101000000Y-87000000D03*
X101000000Y-79000000D03*
X103000000Y-79000000D03*
X103000000Y-87000000D03*
X103000000Y-81000000D03*
%TO.N,Net-(C4-Pad2)*%
X108750000Y-64000000D03*
X109000000Y-70250000D03*
%TO.N,Net-(C5-Pad2)*%
X109500000Y-64500000D03*
X105000000Y-70250000D03*
%TO.N,/SPI0_CSn*%
X111750000Y-67500000D03*
%TO.N,/SPI0_SCK*%
X112750000Y-67750000D03*
%TD*%
D24*
%TO.N,+3V3*%
X99840480Y-43944520D02*
X114184520Y-43944520D01*
D25*
X103537500Y-65675000D02*
X103325000Y-65675000D01*
D24*
X100750000Y-56000000D02*
X102087500Y-56000000D01*
D25*
X103537500Y-65675000D02*
X102862500Y-65000000D01*
X105037500Y-66325000D02*
X103537500Y-66325000D01*
D24*
X114184520Y-43944520D02*
X116875000Y-46635000D01*
D25*
X103537500Y-66325000D02*
X103325000Y-66325000D01*
X103537500Y-66325000D02*
X102862500Y-67000000D01*
X103325000Y-66325000D02*
X103000000Y-66000000D01*
X105037500Y-65675000D02*
X103537500Y-65675000D01*
X103325000Y-65675000D02*
X103000000Y-66000000D01*
D24*
X97150000Y-46635000D02*
X99840480Y-43944520D01*
D25*
X101000000Y-77000000D02*
X102087500Y-77000000D01*
%TO.N,/AIN0*%
X105000000Y-64987500D02*
X105000000Y-62000000D01*
X105037500Y-65025000D02*
X105000000Y-64987500D01*
X105000000Y-62000000D02*
X103862500Y-62000000D01*
X105000000Y-62000000D02*
X106137500Y-62000000D01*
X105000000Y-62000000D02*
X105000000Y-59912500D01*
D24*
%TO.N,VBUS*%
X98000000Y-43245000D02*
X116025000Y-43245000D01*
X97150000Y-44095000D02*
X98000000Y-43245000D01*
X116025000Y-43245000D02*
X116875000Y-44095000D01*
D25*
%TO.N,/AIN1*%
X109000000Y-62000000D02*
X109000000Y-59912500D01*
X106025000Y-64037500D02*
X106025000Y-63692316D01*
X108500000Y-63250000D02*
X109000000Y-62750000D01*
X106025000Y-63692316D02*
X106467316Y-63250000D01*
X107717316Y-62000000D02*
X107862500Y-62000000D01*
X109000000Y-62000000D02*
X110137500Y-62000000D01*
X109000000Y-62750000D02*
X109000000Y-62000000D01*
X109000000Y-62000000D02*
X107862500Y-62000000D01*
X106467316Y-63250000D02*
X108500000Y-63250000D01*
D26*
%TO.N,/THERM0+*%
X105000000Y-57087500D02*
X103912500Y-56000000D01*
X104500000Y-55412500D02*
X104500000Y-47695000D01*
X105000000Y-58087500D02*
X105000000Y-57087500D01*
X103912500Y-56000000D02*
X104500000Y-55412500D01*
%TO.N,/THERM0-*%
X109000000Y-57087500D02*
X110087500Y-56000000D01*
X109500000Y-55412500D02*
X109500000Y-47695000D01*
X110087500Y-56000000D02*
X109500000Y-55412500D01*
X109000000Y-58087500D02*
X109000000Y-57087500D01*
%TO.N,/THERM1+*%
X109000000Y-75912500D02*
X110087500Y-77000000D01*
X109500000Y-77587500D02*
X109500000Y-84305000D01*
X110087500Y-77000000D02*
X109500000Y-77587500D01*
X109000000Y-74912500D02*
X109000000Y-75912500D01*
%TO.N,/THERM1-*%
X105000000Y-75912500D02*
X103912500Y-77000000D01*
X104500000Y-77587500D02*
X104500000Y-84305000D01*
X105000000Y-74912500D02*
X105000000Y-75912500D01*
X103912500Y-77000000D02*
X104500000Y-77587500D01*
D25*
%TO.N,Net-(C4-Pad2)*%
X108712500Y-64037500D02*
X108750000Y-64000000D01*
X109000000Y-70250000D02*
X109000000Y-71000000D01*
X109000000Y-71000000D02*
X110137500Y-71000000D01*
X107975000Y-64037500D02*
X108712500Y-64037500D01*
X109000000Y-71000000D02*
X107862500Y-71000000D01*
X109000000Y-73087500D02*
X109000000Y-71000000D01*
%TO.N,Net-(C5-Pad2)*%
X105000000Y-70250000D02*
X105000000Y-71000000D01*
X105000000Y-71000000D02*
X103862500Y-71000000D01*
X105000000Y-73087500D02*
X105000000Y-71000000D01*
X108962500Y-65025000D02*
X108975000Y-65025000D01*
X108975000Y-65025000D02*
X109500000Y-64500000D01*
X105000000Y-71000000D02*
X106137500Y-71000000D01*
%TO.N,/SPI0_MISO*%
X106025000Y-67962500D02*
X106025000Y-69025000D01*
X106625489Y-69625489D02*
X112804479Y-69625489D01*
X116875000Y-73696010D02*
X116875000Y-74575000D01*
X112804479Y-69625489D02*
X116875000Y-73696010D01*
X106025000Y-69025000D02*
X106625489Y-69625489D01*
%TO.N,/SPI0_CSn*%
X111287500Y-67962500D02*
X107975000Y-67962500D01*
X111750000Y-67500000D02*
X111287500Y-67962500D01*
%TO.N,/SPI0_MOSI*%
X114654031Y-69175969D02*
X116875000Y-66955000D01*
X107425969Y-69175969D02*
X114654031Y-69175969D01*
X106675000Y-68425000D02*
X107425969Y-69175969D01*
X106675000Y-67962500D02*
X106675000Y-68425000D01*
%TO.N,/SPI0_SCK*%
X111800480Y-68699520D02*
X112750000Y-67750000D01*
X107699520Y-68699520D02*
X111800480Y-68699520D01*
X107325000Y-67962500D02*
X107325000Y-68325000D01*
X107325000Y-68325000D02*
X107699520Y-68699520D01*
%TD*%
%TA.AperFunction,Conductor*%
%TO.N,/THERM1+*%
G36*
X110858621Y-77020002D02*
G01*
X110905114Y-77073658D01*
X110916500Y-77126000D01*
X110916500Y-77287072D01*
X110927293Y-77391093D01*
X110982346Y-77556107D01*
X111073884Y-77704031D01*
X111079066Y-77709204D01*
X111191816Y-77821758D01*
X111191821Y-77821762D01*
X111196997Y-77826929D01*
X111345080Y-77918209D01*
X111510191Y-77972974D01*
X111517027Y-77973674D01*
X111517030Y-77973675D01*
X111568526Y-77978951D01*
X111612928Y-77983500D01*
X112212072Y-77983500D01*
X112215318Y-77983163D01*
X112215322Y-77983163D01*
X112309235Y-77973419D01*
X112309239Y-77973418D01*
X112316093Y-77972707D01*
X112322629Y-77970526D01*
X112322631Y-77970526D01*
X112455395Y-77926232D01*
X112481107Y-77917654D01*
X112629031Y-77826116D01*
X112634204Y-77820934D01*
X112746758Y-77708184D01*
X112746762Y-77708179D01*
X112751929Y-77703003D01*
X112755770Y-77696772D01*
X112839369Y-77561150D01*
X112839370Y-77561148D01*
X112843209Y-77554920D01*
X112897974Y-77389809D01*
X112908500Y-77287072D01*
X112908500Y-77126000D01*
X112928502Y-77057879D01*
X112982158Y-77011386D01*
X113034500Y-77000000D01*
X114874000Y-77000000D01*
X114942121Y-77020002D01*
X114988614Y-77073658D01*
X115000000Y-77126000D01*
X115000000Y-89365500D01*
X114979998Y-89433621D01*
X114926342Y-89480114D01*
X114874000Y-89491500D01*
X107626000Y-89491500D01*
X107557879Y-89471498D01*
X107511386Y-89417842D01*
X107500000Y-89365500D01*
X107500000Y-77126000D01*
X107520002Y-77057879D01*
X107573658Y-77011386D01*
X107626000Y-77000000D01*
X110790500Y-77000000D01*
X110858621Y-77020002D01*
G37*
%TD.AperFunction*%
%TD*%
%TA.AperFunction,Conductor*%
%TO.N,/THERM1-*%
G36*
X100141448Y-77020002D02*
G01*
X100187941Y-77073658D01*
X100198725Y-77113703D01*
X100204163Y-77169160D01*
X100261418Y-77341273D01*
X100355380Y-77496424D01*
X100481382Y-77626902D01*
X100487278Y-77630760D01*
X100597677Y-77703003D01*
X100633159Y-77726222D01*
X100639763Y-77728678D01*
X100639765Y-77728679D01*
X100796558Y-77786990D01*
X100796560Y-77786990D01*
X100803168Y-77789448D01*
X100886995Y-77800633D01*
X100975980Y-77812507D01*
X100975984Y-77812507D01*
X100982961Y-77813438D01*
X100989972Y-77812800D01*
X100989976Y-77812800D01*
X101132459Y-77799832D01*
X101163600Y-77796998D01*
X101170305Y-77794819D01*
X101170307Y-77794819D01*
X101224842Y-77777100D01*
X101295809Y-77775073D01*
X101352793Y-77807759D01*
X101357843Y-77812800D01*
X101371997Y-77826929D01*
X101520080Y-77918209D01*
X101685191Y-77972974D01*
X101692027Y-77973674D01*
X101692030Y-77973675D01*
X101743526Y-77978951D01*
X101787928Y-77983500D01*
X102387072Y-77983500D01*
X102390318Y-77983163D01*
X102390322Y-77983163D01*
X102484235Y-77973419D01*
X102484239Y-77973418D01*
X102491093Y-77972707D01*
X102497629Y-77970526D01*
X102497631Y-77970526D01*
X102630395Y-77926232D01*
X102656107Y-77917654D01*
X102804031Y-77826116D01*
X102822356Y-77807759D01*
X102921758Y-77708184D01*
X102921762Y-77708179D01*
X102926929Y-77703003D01*
X102930770Y-77696772D01*
X103014369Y-77561150D01*
X103014370Y-77561148D01*
X103018209Y-77554920D01*
X103072974Y-77389809D01*
X103083500Y-77287072D01*
X103083500Y-77126000D01*
X103103502Y-77057879D01*
X103157158Y-77011386D01*
X103209500Y-77000000D01*
X106374000Y-77000000D01*
X106442121Y-77020002D01*
X106488614Y-77073658D01*
X106500000Y-77126000D01*
X106500000Y-89365500D01*
X106479998Y-89433621D01*
X106426342Y-89480114D01*
X106374000Y-89491500D01*
X99126000Y-89491500D01*
X99057879Y-89471498D01*
X99011386Y-89417842D01*
X99000000Y-89365500D01*
X99000000Y-77126000D01*
X99020002Y-77057879D01*
X99073658Y-77011386D01*
X99126000Y-77000000D01*
X100073327Y-77000000D01*
X100141448Y-77020002D01*
G37*
%TD.AperFunction*%
%TD*%
%TA.AperFunction,Conductor*%
%TO.N,/THERM0+*%
G36*
X106692121Y-44723022D02*
G01*
X106738614Y-44776678D01*
X106750000Y-44829020D01*
X106750000Y-55874000D01*
X106729998Y-55942121D01*
X106676342Y-55988614D01*
X106624000Y-56000000D01*
X103209500Y-56000000D01*
X103141379Y-55979998D01*
X103094886Y-55926342D01*
X103083500Y-55874000D01*
X103083500Y-55712928D01*
X103076438Y-55644861D01*
X103073419Y-55615765D01*
X103073418Y-55615761D01*
X103072707Y-55608907D01*
X103029982Y-55480843D01*
X103019972Y-55450841D01*
X103017654Y-55443893D01*
X102926116Y-55295969D01*
X102864238Y-55234199D01*
X102808184Y-55178242D01*
X102808179Y-55178238D01*
X102803003Y-55173071D01*
X102654920Y-55081791D01*
X102489809Y-55027026D01*
X102482973Y-55026326D01*
X102482970Y-55026325D01*
X102431474Y-55021049D01*
X102387072Y-55016500D01*
X101787928Y-55016500D01*
X101784682Y-55016837D01*
X101784678Y-55016837D01*
X101690765Y-55026581D01*
X101690761Y-55026582D01*
X101683907Y-55027293D01*
X101677371Y-55029474D01*
X101677369Y-55029474D01*
X101544605Y-55073768D01*
X101518893Y-55082346D01*
X101370969Y-55173884D01*
X101365796Y-55179066D01*
X101340388Y-55204518D01*
X101278105Y-55238597D01*
X101251215Y-55241500D01*
X101051966Y-55241500D01*
X101009699Y-55234199D01*
X100942424Y-55210243D01*
X100942422Y-55210242D01*
X100935790Y-55207881D01*
X100928802Y-55207048D01*
X100928799Y-55207047D01*
X100805698Y-55192368D01*
X100755680Y-55186404D01*
X100748677Y-55187140D01*
X100748676Y-55187140D01*
X100582288Y-55204628D01*
X100582286Y-55204629D01*
X100575288Y-55205364D01*
X100403579Y-55263818D01*
X100397575Y-55267512D01*
X100255095Y-55355166D01*
X100255092Y-55355168D01*
X100249088Y-55358862D01*
X100244053Y-55363793D01*
X100244050Y-55363795D01*
X100168620Y-55437662D01*
X100119493Y-55485771D01*
X100021235Y-55638238D01*
X99959197Y-55808685D01*
X99958314Y-55815673D01*
X99958314Y-55815674D01*
X99948951Y-55889792D01*
X99920570Y-55954868D01*
X99861510Y-55994270D01*
X99823945Y-56000000D01*
X99376000Y-56000000D01*
X99307879Y-55979998D01*
X99261386Y-55926342D01*
X99250000Y-55874000D01*
X99250000Y-45659871D01*
X99270002Y-45591750D01*
X99286905Y-45570776D01*
X100117756Y-44739925D01*
X100180068Y-44705899D01*
X100206851Y-44703020D01*
X106624000Y-44703020D01*
X106692121Y-44723022D01*
G37*
%TD.AperFunction*%
%TD*%
%TA.AperFunction,Conductor*%
%TO.N,/THERM0-*%
G36*
X113886270Y-44723022D02*
G01*
X113907244Y-44739925D01*
X114713095Y-45545776D01*
X114747121Y-45608088D01*
X114750000Y-45634871D01*
X114750000Y-55874000D01*
X114729998Y-55942121D01*
X114676342Y-55988614D01*
X114624000Y-56000000D01*
X113034500Y-56000000D01*
X112966379Y-55979998D01*
X112919886Y-55926342D01*
X112908500Y-55874000D01*
X112908500Y-55712928D01*
X112897707Y-55608907D01*
X112842654Y-55443893D01*
X112751116Y-55295969D01*
X112745934Y-55290796D01*
X112633184Y-55178242D01*
X112633179Y-55178238D01*
X112628003Y-55173071D01*
X112479920Y-55081791D01*
X112314809Y-55027026D01*
X112307973Y-55026326D01*
X112307970Y-55026325D01*
X112256474Y-55021049D01*
X112212072Y-55016500D01*
X111612928Y-55016500D01*
X111609682Y-55016837D01*
X111609678Y-55016837D01*
X111515765Y-55026581D01*
X111515761Y-55026582D01*
X111508907Y-55027293D01*
X111502371Y-55029474D01*
X111502369Y-55029474D01*
X111369605Y-55073768D01*
X111343893Y-55082346D01*
X111195969Y-55173884D01*
X111190796Y-55179066D01*
X111078242Y-55291816D01*
X111078238Y-55291821D01*
X111073071Y-55296997D01*
X111069231Y-55303227D01*
X111069230Y-55303228D01*
X110986364Y-55437662D01*
X110981791Y-55445080D01*
X110927026Y-55610191D01*
X110916500Y-55712928D01*
X110916500Y-55874000D01*
X110896498Y-55942121D01*
X110842842Y-55988614D01*
X110790500Y-56000000D01*
X107376000Y-56000000D01*
X107307879Y-55979998D01*
X107261386Y-55926342D01*
X107250000Y-55874000D01*
X107250000Y-44829020D01*
X107270002Y-44760899D01*
X107323658Y-44714406D01*
X107376000Y-44703020D01*
X113818149Y-44703020D01*
X113886270Y-44723022D01*
G37*
%TD.AperFunction*%
%TD*%
%TA.AperFunction,Conductor*%
%TO.N,GND*%
G36*
X118433621Y-42528502D02*
G01*
X118480114Y-42582158D01*
X118491500Y-42634500D01*
X118491500Y-89365500D01*
X118471498Y-89433621D01*
X118417842Y-89480114D01*
X118365500Y-89491500D01*
X115639500Y-89491500D01*
X115571379Y-89471498D01*
X115524886Y-89417842D01*
X115513500Y-89365500D01*
X115513500Y-88629053D01*
X115533502Y-88560932D01*
X115587158Y-88514439D01*
X115657432Y-88504335D01*
X115715065Y-88528227D01*
X115758704Y-88560932D01*
X115778295Y-88575615D01*
X115914684Y-88626745D01*
X115976866Y-88633500D01*
X117773134Y-88633500D01*
X117835316Y-88626745D01*
X117971705Y-88575615D01*
X118088261Y-88488261D01*
X118175615Y-88371705D01*
X118226745Y-88235316D01*
X118233500Y-88173134D01*
X118233500Y-86376866D01*
X118226745Y-86314684D01*
X118175615Y-86178295D01*
X118088261Y-86061739D01*
X117971705Y-85974385D01*
X117959132Y-85969672D01*
X117853203Y-85929960D01*
X117796439Y-85887318D01*
X117771739Y-85820756D01*
X117786947Y-85751408D01*
X117808493Y-85722727D01*
X117909435Y-85622137D01*
X117913096Y-85618489D01*
X117949025Y-85568489D01*
X118040435Y-85441277D01*
X118043453Y-85437077D01*
X118068165Y-85387077D01*
X118140136Y-85241453D01*
X118140137Y-85241451D01*
X118142430Y-85236811D01*
X118207370Y-85023069D01*
X118236529Y-84801590D01*
X118236611Y-84798240D01*
X118238074Y-84738365D01*
X118238074Y-84738361D01*
X118238156Y-84735000D01*
X118219852Y-84512361D01*
X118165431Y-84295702D01*
X118076354Y-84090840D01*
X117981300Y-83943909D01*
X117957822Y-83907617D01*
X117957820Y-83907614D01*
X117955014Y-83903277D01*
X117804670Y-83738051D01*
X117800619Y-83734852D01*
X117800615Y-83734848D01*
X117633414Y-83602800D01*
X117633410Y-83602798D01*
X117629359Y-83599598D01*
X117588053Y-83576796D01*
X117538084Y-83526364D01*
X117523312Y-83456921D01*
X117548428Y-83390516D01*
X117575780Y-83363909D01*
X117643092Y-83315896D01*
X117754860Y-83236173D01*
X117913096Y-83078489D01*
X117949025Y-83028489D01*
X118040435Y-82901277D01*
X118043453Y-82897077D01*
X118068165Y-82847077D01*
X118140136Y-82701453D01*
X118140137Y-82701451D01*
X118142430Y-82696811D01*
X118207370Y-82483069D01*
X118236529Y-82261590D01*
X118236611Y-82258240D01*
X118238074Y-82198365D01*
X118238074Y-82198361D01*
X118238156Y-82195000D01*
X118219852Y-81972361D01*
X118165431Y-81755702D01*
X118076354Y-81550840D01*
X117981300Y-81403909D01*
X117957822Y-81367617D01*
X117957820Y-81367614D01*
X117955014Y-81363277D01*
X117804670Y-81198051D01*
X117800619Y-81194852D01*
X117800615Y-81194848D01*
X117633414Y-81062800D01*
X117633410Y-81062798D01*
X117629359Y-81059598D01*
X117588053Y-81036796D01*
X117538084Y-80986364D01*
X117523312Y-80916921D01*
X117548428Y-80850516D01*
X117575780Y-80823909D01*
X117643092Y-80775896D01*
X117754860Y-80696173D01*
X117913096Y-80538489D01*
X117949025Y-80488489D01*
X118040435Y-80361277D01*
X118043453Y-80357077D01*
X118068165Y-80307077D01*
X118140136Y-80161453D01*
X118140137Y-80161451D01*
X118142430Y-80156811D01*
X118207370Y-79943069D01*
X118236529Y-79721590D01*
X118236611Y-79718240D01*
X118238074Y-79658365D01*
X118238074Y-79658361D01*
X118238156Y-79655000D01*
X118219852Y-79432361D01*
X118165431Y-79215702D01*
X118076354Y-79010840D01*
X117981300Y-78863909D01*
X117957822Y-78827617D01*
X117957820Y-78827614D01*
X117955014Y-78823277D01*
X117804670Y-78658051D01*
X117800619Y-78654852D01*
X117800615Y-78654848D01*
X117633414Y-78522800D01*
X117633410Y-78522798D01*
X117629359Y-78519598D01*
X117588053Y-78496796D01*
X117538084Y-78446364D01*
X117523312Y-78376921D01*
X117548428Y-78310516D01*
X117575780Y-78283909D01*
X117643092Y-78235896D01*
X117754860Y-78156173D01*
X117913096Y-77998489D01*
X117949025Y-77948489D01*
X118040435Y-77821277D01*
X118043453Y-77817077D01*
X118068165Y-77767077D01*
X118140136Y-77621453D01*
X118140137Y-77621451D01*
X118142430Y-77616811D01*
X118207370Y-77403069D01*
X118236529Y-77181590D01*
X118236611Y-77178240D01*
X118238074Y-77118365D01*
X118238074Y-77118361D01*
X118238156Y-77115000D01*
X118219852Y-76892361D01*
X118165431Y-76675702D01*
X118076354Y-76470840D01*
X118022375Y-76387401D01*
X117957822Y-76287617D01*
X117957820Y-76287614D01*
X117955014Y-76283277D01*
X117804670Y-76118051D01*
X117800619Y-76114852D01*
X117800615Y-76114848D01*
X117633414Y-75982800D01*
X117633410Y-75982798D01*
X117629359Y-75979598D01*
X117588053Y-75956796D01*
X117538084Y-75906364D01*
X117523312Y-75836921D01*
X117548428Y-75770516D01*
X117575780Y-75743909D01*
X117643092Y-75695896D01*
X117754860Y-75616173D01*
X117913096Y-75458489D01*
X117949025Y-75408489D01*
X118040435Y-75281277D01*
X118043453Y-75277077D01*
X118068165Y-75227077D01*
X118140136Y-75081453D01*
X118140137Y-75081451D01*
X118142430Y-75076811D01*
X118207370Y-74863069D01*
X118236529Y-74641590D01*
X118236611Y-74638240D01*
X118238074Y-74578365D01*
X118238074Y-74578361D01*
X118238156Y-74575000D01*
X118219852Y-74352361D01*
X118165431Y-74135702D01*
X118076354Y-73930840D01*
X117994318Y-73804031D01*
X117957822Y-73747617D01*
X117957820Y-73747614D01*
X117955014Y-73743277D01*
X117804670Y-73578051D01*
X117800619Y-73574852D01*
X117800615Y-73574848D01*
X117633414Y-73442800D01*
X117633410Y-73442798D01*
X117629359Y-73439598D01*
X117588053Y-73416796D01*
X117538084Y-73366364D01*
X117523312Y-73296921D01*
X117548428Y-73230516D01*
X117575780Y-73203909D01*
X117643092Y-73155896D01*
X117754860Y-73076173D01*
X117913096Y-72918489D01*
X117949025Y-72868489D01*
X118040435Y-72741277D01*
X118043453Y-72737077D01*
X118065717Y-72692030D01*
X118140136Y-72541453D01*
X118140137Y-72541451D01*
X118142430Y-72536811D01*
X118190925Y-72377197D01*
X118205865Y-72328023D01*
X118205865Y-72328021D01*
X118207370Y-72323069D01*
X118236529Y-72101590D01*
X118236611Y-72098240D01*
X118238074Y-72038365D01*
X118238074Y-72038361D01*
X118238156Y-72035000D01*
X118219852Y-71812361D01*
X118165431Y-71595702D01*
X118076354Y-71390840D01*
X118011300Y-71290282D01*
X117957822Y-71207617D01*
X117957820Y-71207614D01*
X117955014Y-71203277D01*
X117804670Y-71038051D01*
X117800619Y-71034852D01*
X117800615Y-71034848D01*
X117633414Y-70902800D01*
X117633410Y-70902798D01*
X117629359Y-70899598D01*
X117588053Y-70876796D01*
X117538084Y-70826364D01*
X117523312Y-70756921D01*
X117548428Y-70690516D01*
X117575780Y-70663909D01*
X117643092Y-70615896D01*
X117754860Y-70536173D01*
X117913096Y-70378489D01*
X117949025Y-70328489D01*
X118040435Y-70201277D01*
X118043453Y-70197077D01*
X118050108Y-70183613D01*
X118140136Y-70001453D01*
X118140137Y-70001451D01*
X118142430Y-69996811D01*
X118199500Y-69808972D01*
X118205865Y-69788023D01*
X118205865Y-69788021D01*
X118207370Y-69783069D01*
X118236529Y-69561590D01*
X118236611Y-69558240D01*
X118238074Y-69498365D01*
X118238074Y-69498361D01*
X118238156Y-69495000D01*
X118219852Y-69272361D01*
X118165431Y-69055702D01*
X118076354Y-68850840D01*
X117955014Y-68663277D01*
X117804670Y-68498051D01*
X117800619Y-68494852D01*
X117800615Y-68494848D01*
X117633414Y-68362800D01*
X117633410Y-68362798D01*
X117629359Y-68359598D01*
X117588053Y-68336796D01*
X117538084Y-68286364D01*
X117523312Y-68216921D01*
X117548428Y-68150516D01*
X117575780Y-68123909D01*
X117643092Y-68075896D01*
X117754860Y-67996173D01*
X117767578Y-67983500D01*
X117909435Y-67842137D01*
X117913096Y-67838489D01*
X117918927Y-67830375D01*
X118040435Y-67661277D01*
X118043453Y-67657077D01*
X118049799Y-67644238D01*
X118140136Y-67461453D01*
X118140137Y-67461451D01*
X118142430Y-67456811D01*
X118207370Y-67243069D01*
X118236529Y-67021590D01*
X118236719Y-67013818D01*
X118238074Y-66958365D01*
X118238074Y-66958361D01*
X118238156Y-66955000D01*
X118219852Y-66732361D01*
X118165431Y-66515702D01*
X118076354Y-66310840D01*
X117991931Y-66180342D01*
X117957822Y-66127617D01*
X117957820Y-66127614D01*
X117955014Y-66123277D01*
X117804670Y-65958051D01*
X117800619Y-65954852D01*
X117800615Y-65954848D01*
X117633414Y-65822800D01*
X117633410Y-65822798D01*
X117629359Y-65819598D01*
X117588053Y-65796796D01*
X117538084Y-65746364D01*
X117523312Y-65676921D01*
X117548428Y-65610516D01*
X117575780Y-65583909D01*
X117643092Y-65535896D01*
X117754860Y-65456173D01*
X117913096Y-65298489D01*
X117923676Y-65283766D01*
X118040435Y-65121277D01*
X118043453Y-65117077D01*
X118068165Y-65067077D01*
X118140136Y-64921453D01*
X118140137Y-64921451D01*
X118142430Y-64916811D01*
X118195686Y-64741525D01*
X118205865Y-64708023D01*
X118205865Y-64708021D01*
X118207370Y-64703069D01*
X118236529Y-64481590D01*
X118236611Y-64478240D01*
X118238074Y-64418365D01*
X118238074Y-64418361D01*
X118238156Y-64415000D01*
X118219852Y-64192361D01*
X118165431Y-63975702D01*
X118076354Y-63770840D01*
X117955014Y-63583277D01*
X117804670Y-63418051D01*
X117800619Y-63414852D01*
X117800615Y-63414848D01*
X117633414Y-63282800D01*
X117633410Y-63282798D01*
X117629359Y-63279598D01*
X117588053Y-63256796D01*
X117538084Y-63206364D01*
X117523312Y-63136921D01*
X117548428Y-63070516D01*
X117575780Y-63043909D01*
X117644676Y-62994766D01*
X117754860Y-62916173D01*
X117913096Y-62758489D01*
X117949025Y-62708489D01*
X118040435Y-62581277D01*
X118043453Y-62577077D01*
X118068165Y-62527077D01*
X118140136Y-62381453D01*
X118140137Y-62381451D01*
X118142430Y-62376811D01*
X118207370Y-62163069D01*
X118236529Y-61941590D01*
X118236611Y-61938240D01*
X118238074Y-61878365D01*
X118238074Y-61878361D01*
X118238156Y-61875000D01*
X118219852Y-61652361D01*
X118165431Y-61435702D01*
X118076354Y-61230840D01*
X117983075Y-61086653D01*
X117957822Y-61047617D01*
X117957820Y-61047614D01*
X117955014Y-61043277D01*
X117804670Y-60878051D01*
X117800619Y-60874852D01*
X117800615Y-60874848D01*
X117633414Y-60742800D01*
X117633410Y-60742798D01*
X117629359Y-60739598D01*
X117588053Y-60716796D01*
X117538084Y-60666364D01*
X117523312Y-60596921D01*
X117548428Y-60530516D01*
X117575780Y-60503909D01*
X117643092Y-60455896D01*
X117754860Y-60376173D01*
X117808590Y-60322631D01*
X117909435Y-60222137D01*
X117913096Y-60218489D01*
X117949025Y-60168489D01*
X118040435Y-60041277D01*
X118043453Y-60037077D01*
X118068165Y-59987077D01*
X118140136Y-59841453D01*
X118140137Y-59841451D01*
X118142430Y-59836811D01*
X118207370Y-59623069D01*
X118236529Y-59401590D01*
X118236611Y-59398240D01*
X118238074Y-59338365D01*
X118238074Y-59338361D01*
X118238156Y-59335000D01*
X118219852Y-59112361D01*
X118165431Y-58895702D01*
X118076354Y-58690840D01*
X117955014Y-58503277D01*
X117804670Y-58338051D01*
X117800619Y-58334852D01*
X117800615Y-58334848D01*
X117633414Y-58202800D01*
X117633410Y-58202798D01*
X117629359Y-58199598D01*
X117588053Y-58176796D01*
X117538084Y-58126364D01*
X117523312Y-58056921D01*
X117548428Y-57990516D01*
X117575780Y-57963909D01*
X117643092Y-57915896D01*
X117754860Y-57836173D01*
X117799997Y-57791194D01*
X117876426Y-57715031D01*
X117913096Y-57678489D01*
X117949025Y-57628489D01*
X118040435Y-57501277D01*
X118043453Y-57497077D01*
X118068165Y-57447077D01*
X118140136Y-57301453D01*
X118140137Y-57301451D01*
X118142430Y-57296811D01*
X118207370Y-57083069D01*
X118236529Y-56861590D01*
X118236611Y-56858240D01*
X118238074Y-56798365D01*
X118238074Y-56798361D01*
X118238156Y-56795000D01*
X118219852Y-56572361D01*
X118165431Y-56355702D01*
X118076354Y-56150840D01*
X117999609Y-56032210D01*
X117957822Y-55967617D01*
X117957820Y-55967614D01*
X117955014Y-55963277D01*
X117804670Y-55798051D01*
X117800619Y-55794852D01*
X117800615Y-55794848D01*
X117633414Y-55662800D01*
X117633410Y-55662798D01*
X117629359Y-55659598D01*
X117588053Y-55636796D01*
X117538084Y-55586364D01*
X117523312Y-55516921D01*
X117548428Y-55450516D01*
X117575780Y-55423909D01*
X117643092Y-55375896D01*
X117754860Y-55296173D01*
X117913096Y-55138489D01*
X117949025Y-55088489D01*
X118040435Y-54961277D01*
X118043453Y-54957077D01*
X118068165Y-54907077D01*
X118140136Y-54761453D01*
X118140137Y-54761451D01*
X118142430Y-54756811D01*
X118207370Y-54543069D01*
X118236529Y-54321590D01*
X118236611Y-54318240D01*
X118238074Y-54258365D01*
X118238074Y-54258361D01*
X118238156Y-54255000D01*
X118219852Y-54032361D01*
X118165431Y-53815702D01*
X118076354Y-53610840D01*
X117955014Y-53423277D01*
X117804670Y-53258051D01*
X117800619Y-53254852D01*
X117800615Y-53254848D01*
X117633414Y-53122800D01*
X117633410Y-53122798D01*
X117629359Y-53119598D01*
X117588053Y-53096796D01*
X117538084Y-53046364D01*
X117523312Y-52976921D01*
X117548428Y-52910516D01*
X117575780Y-52883909D01*
X117643092Y-52835896D01*
X117754860Y-52756173D01*
X117913096Y-52598489D01*
X117949025Y-52548489D01*
X118040435Y-52421277D01*
X118043453Y-52417077D01*
X118068165Y-52367077D01*
X118140136Y-52221453D01*
X118140137Y-52221451D01*
X118142430Y-52216811D01*
X118207370Y-52003069D01*
X118236529Y-51781590D01*
X118236611Y-51778240D01*
X118238074Y-51718365D01*
X118238074Y-51718361D01*
X118238156Y-51715000D01*
X118219852Y-51492361D01*
X118165431Y-51275702D01*
X118076354Y-51070840D01*
X117955014Y-50883277D01*
X117804670Y-50718051D01*
X117800619Y-50714852D01*
X117800615Y-50714848D01*
X117633414Y-50582800D01*
X117633410Y-50582798D01*
X117629359Y-50579598D01*
X117587569Y-50556529D01*
X117537598Y-50506097D01*
X117522826Y-50436654D01*
X117547942Y-50370248D01*
X117575294Y-50343641D01*
X117750328Y-50218792D01*
X117758200Y-50212139D01*
X117909052Y-50061812D01*
X117915730Y-50053965D01*
X118040003Y-49881020D01*
X118045313Y-49872183D01*
X118139670Y-49681267D01*
X118143469Y-49671672D01*
X118205377Y-49467910D01*
X118207555Y-49457837D01*
X118208986Y-49446962D01*
X118206775Y-49432778D01*
X118193617Y-49429000D01*
X115558225Y-49429000D01*
X115544694Y-49432973D01*
X115543257Y-49442966D01*
X115573565Y-49577446D01*
X115576645Y-49587275D01*
X115656770Y-49784603D01*
X115661413Y-49793794D01*
X115772694Y-49975388D01*
X115778777Y-49983699D01*
X115918213Y-50144667D01*
X115925580Y-50151883D01*
X116089434Y-50287916D01*
X116097881Y-50293831D01*
X116166969Y-50334203D01*
X116215693Y-50385842D01*
X116228764Y-50455625D01*
X116202033Y-50521396D01*
X116161584Y-50554752D01*
X116148607Y-50561507D01*
X116144474Y-50564610D01*
X116144471Y-50564612D01*
X116031580Y-50649373D01*
X115969965Y-50695635D01*
X115966393Y-50699373D01*
X115842082Y-50829457D01*
X115815629Y-50857138D01*
X115689743Y-51041680D01*
X115595688Y-51244305D01*
X115535989Y-51459570D01*
X115535440Y-51464707D01*
X115514787Y-51657965D01*
X115500939Y-51691458D01*
X115510396Y-51706174D01*
X115515291Y-51734419D01*
X115525110Y-51904715D01*
X115526247Y-51909761D01*
X115526248Y-51909767D01*
X115546119Y-51997939D01*
X115574222Y-52122639D01*
X115612461Y-52216811D01*
X115639752Y-52284020D01*
X115658266Y-52329616D01*
X115774987Y-52520088D01*
X115921250Y-52688938D01*
X116068610Y-52811279D01*
X116084507Y-52824476D01*
X116093126Y-52831632D01*
X116100423Y-52835896D01*
X116166445Y-52874476D01*
X116215169Y-52926114D01*
X116228240Y-52995897D01*
X116201509Y-53061669D01*
X116161055Y-53095027D01*
X116148607Y-53101507D01*
X116144474Y-53104610D01*
X116144471Y-53104612D01*
X116031580Y-53189373D01*
X115969965Y-53235635D01*
X115966393Y-53239373D01*
X115842082Y-53369457D01*
X115815629Y-53397138D01*
X115689743Y-53581680D01*
X115595688Y-53784305D01*
X115535989Y-53999570D01*
X115535440Y-54004707D01*
X115514787Y-54197965D01*
X115500939Y-54231458D01*
X115510396Y-54246174D01*
X115515291Y-54274419D01*
X115525110Y-54444715D01*
X115526247Y-54449761D01*
X115526248Y-54449767D01*
X115546119Y-54537939D01*
X115574222Y-54662639D01*
X115612461Y-54756811D01*
X115639752Y-54824020D01*
X115658266Y-54869616D01*
X115774987Y-55060088D01*
X115921250Y-55228938D01*
X116068610Y-55351279D01*
X116084507Y-55364476D01*
X116093126Y-55371632D01*
X116100423Y-55375896D01*
X116166445Y-55414476D01*
X116215169Y-55466114D01*
X116228240Y-55535897D01*
X116201509Y-55601669D01*
X116161055Y-55635027D01*
X116148607Y-55641507D01*
X116144474Y-55644610D01*
X116144471Y-55644612D01*
X115974100Y-55772530D01*
X115969965Y-55775635D01*
X115966393Y-55779373D01*
X115842082Y-55909457D01*
X115815629Y-55937138D01*
X115689743Y-56121680D01*
X115674003Y-56155590D01*
X115599419Y-56316268D01*
X115595688Y-56324305D01*
X115535989Y-56539570D01*
X115512251Y-56761695D01*
X115512548Y-56766848D01*
X115512548Y-56766851D01*
X115523967Y-56964885D01*
X115525110Y-56984715D01*
X115526247Y-56989761D01*
X115526248Y-56989767D01*
X115539284Y-57047608D01*
X115574222Y-57202639D01*
X115612461Y-57296811D01*
X115639752Y-57364020D01*
X115658266Y-57409616D01*
X115660965Y-57414020D01*
X115729489Y-57525841D01*
X115774987Y-57600088D01*
X115921250Y-57768938D01*
X116068610Y-57891279D01*
X116084507Y-57904476D01*
X116093126Y-57911632D01*
X116100423Y-57915896D01*
X116166445Y-57954476D01*
X116215169Y-58006114D01*
X116228240Y-58075897D01*
X116201509Y-58141669D01*
X116161055Y-58175027D01*
X116148607Y-58181507D01*
X116144474Y-58184610D01*
X116144471Y-58184612D01*
X116031580Y-58269373D01*
X115969965Y-58315635D01*
X115966393Y-58319373D01*
X115842082Y-58449457D01*
X115815629Y-58477138D01*
X115812715Y-58481410D01*
X115812714Y-58481411D01*
X115800404Y-58499457D01*
X115689743Y-58661680D01*
X115674003Y-58695590D01*
X115621737Y-58808188D01*
X115595688Y-58864305D01*
X115535989Y-59079570D01*
X115512251Y-59301695D01*
X115512548Y-59306848D01*
X115512548Y-59306851D01*
X115517826Y-59398390D01*
X115525110Y-59524715D01*
X115526247Y-59529761D01*
X115526248Y-59529767D01*
X115544269Y-59609729D01*
X115574222Y-59742639D01*
X115612461Y-59836811D01*
X115639752Y-59904020D01*
X115658266Y-59949616D01*
X115774987Y-60140088D01*
X115921250Y-60308938D01*
X116068610Y-60431279D01*
X116084507Y-60444476D01*
X116093126Y-60451632D01*
X116141535Y-60479920D01*
X116166445Y-60494476D01*
X116215169Y-60546114D01*
X116228240Y-60615897D01*
X116201509Y-60681669D01*
X116161055Y-60715027D01*
X116148607Y-60721507D01*
X116144474Y-60724610D01*
X116144471Y-60724612D01*
X116010969Y-60824848D01*
X115969965Y-60855635D01*
X115966393Y-60859373D01*
X115842082Y-60989457D01*
X115815629Y-61017138D01*
X115812715Y-61021410D01*
X115812714Y-61021411D01*
X115768517Y-61086202D01*
X115689743Y-61201680D01*
X115595688Y-61404305D01*
X115535989Y-61619570D01*
X115512251Y-61841695D01*
X115512548Y-61846848D01*
X115512548Y-61846851D01*
X115517826Y-61938390D01*
X115525110Y-62064715D01*
X115526247Y-62069761D01*
X115526248Y-62069767D01*
X115546119Y-62157939D01*
X115574222Y-62282639D01*
X115615434Y-62384132D01*
X115639752Y-62444020D01*
X115658266Y-62489616D01*
X115774987Y-62680088D01*
X115921250Y-62848938D01*
X116060909Y-62964885D01*
X116084507Y-62984476D01*
X116093126Y-62991632D01*
X116100423Y-62995896D01*
X116166445Y-63034476D01*
X116215169Y-63086114D01*
X116228240Y-63155897D01*
X116201509Y-63221669D01*
X116161055Y-63255027D01*
X116148607Y-63261507D01*
X116144474Y-63264610D01*
X116144471Y-63264612D01*
X116031580Y-63349373D01*
X115969965Y-63395635D01*
X115966393Y-63399373D01*
X115842082Y-63529457D01*
X115815629Y-63557138D01*
X115689743Y-63741680D01*
X115595688Y-63944305D01*
X115535989Y-64159570D01*
X115512251Y-64381695D01*
X115512548Y-64386848D01*
X115512548Y-64386851D01*
X115517826Y-64478390D01*
X115525110Y-64604715D01*
X115526247Y-64609761D01*
X115526248Y-64609767D01*
X115549497Y-64712928D01*
X115574222Y-64822639D01*
X115612461Y-64916811D01*
X115639752Y-64984020D01*
X115658266Y-65029616D01*
X115774987Y-65220088D01*
X115921250Y-65388938D01*
X116050154Y-65495956D01*
X116084507Y-65524476D01*
X116093126Y-65531632D01*
X116135010Y-65556107D01*
X116166445Y-65574476D01*
X116215169Y-65626114D01*
X116228240Y-65695897D01*
X116201509Y-65761669D01*
X116161055Y-65795027D01*
X116148607Y-65801507D01*
X116144474Y-65804610D01*
X116144471Y-65804612D01*
X115983350Y-65925585D01*
X115969965Y-65935635D01*
X115954536Y-65951781D01*
X115842082Y-66069457D01*
X115815629Y-66097138D01*
X115689743Y-66281680D01*
X115674003Y-66315590D01*
X115610572Y-66452241D01*
X115595688Y-66484305D01*
X115535989Y-66699570D01*
X115512251Y-66921695D01*
X115512548Y-66926848D01*
X115512548Y-66926851D01*
X115518150Y-67024000D01*
X115525110Y-67144715D01*
X115526247Y-67149761D01*
X115526248Y-67149767D01*
X115558453Y-67292668D01*
X115553917Y-67363520D01*
X115524631Y-67409464D01*
X114428531Y-68505564D01*
X114366219Y-68539590D01*
X114339436Y-68542469D01*
X113405300Y-68542469D01*
X113337179Y-68522467D01*
X113290686Y-68468811D01*
X113280582Y-68398537D01*
X113310076Y-68333957D01*
X113318408Y-68325224D01*
X113368159Y-68277847D01*
X113368166Y-68277839D01*
X113373266Y-68272982D01*
X113473643Y-68121902D01*
X113520265Y-67999171D01*
X113535555Y-67958920D01*
X113535556Y-67958918D01*
X113538055Y-67952338D01*
X113542604Y-67919972D01*
X113562748Y-67776639D01*
X113562748Y-67776636D01*
X113563299Y-67772717D01*
X113563616Y-67750000D01*
X113543397Y-67569745D01*
X113538648Y-67556107D01*
X113486064Y-67405106D01*
X113486062Y-67405103D01*
X113483745Y-67398448D01*
X113478347Y-67389809D01*
X113391359Y-67250598D01*
X113387626Y-67244624D01*
X113382664Y-67239627D01*
X113264778Y-67120915D01*
X113264774Y-67120912D01*
X113259815Y-67115918D01*
X113226405Y-67094715D01*
X113197453Y-67076342D01*
X113106666Y-67018727D01*
X113038977Y-66994624D01*
X112942425Y-66960243D01*
X112942420Y-66960242D01*
X112935790Y-66957881D01*
X112928802Y-66957048D01*
X112928799Y-66957047D01*
X112805698Y-66942368D01*
X112755680Y-66936404D01*
X112748677Y-66937140D01*
X112748676Y-66937140D01*
X112582288Y-66954628D01*
X112582286Y-66954629D01*
X112575288Y-66955364D01*
X112480433Y-66987655D01*
X112409502Y-66990673D01*
X112350424Y-66957162D01*
X112259815Y-66865918D01*
X112248697Y-66858862D01*
X112172080Y-66810240D01*
X112106666Y-66768727D01*
X112042841Y-66746000D01*
X111942425Y-66710243D01*
X111942420Y-66710242D01*
X111935790Y-66707881D01*
X111928802Y-66707048D01*
X111928799Y-66707047D01*
X111805698Y-66692368D01*
X111755680Y-66686404D01*
X111748677Y-66687140D01*
X111748676Y-66687140D01*
X111582288Y-66704628D01*
X111582286Y-66704629D01*
X111575288Y-66705364D01*
X111403579Y-66763818D01*
X111344766Y-66800000D01*
X111255095Y-66855166D01*
X111255092Y-66855168D01*
X111249088Y-66858862D01*
X111244053Y-66863793D01*
X111244050Y-66863795D01*
X111147973Y-66957881D01*
X111119493Y-66985771D01*
X111021235Y-67138238D01*
X111018826Y-67144858D01*
X111018824Y-67144861D01*
X110981978Y-67246095D01*
X110939884Y-67303266D01*
X110873562Y-67328604D01*
X110863577Y-67329000D01*
X109996730Y-67329000D01*
X109928609Y-67308998D01*
X109882116Y-67255342D01*
X109871808Y-67186555D01*
X109874256Y-67167961D01*
X109872044Y-67153778D01*
X109858887Y-67150000D01*
X108913500Y-67150000D01*
X108845379Y-67129998D01*
X108798886Y-67076342D01*
X108787500Y-67024000D01*
X108787500Y-66781885D01*
X109137500Y-66781885D01*
X109141975Y-66797124D01*
X109143365Y-66798329D01*
X109151048Y-66800000D01*
X109858504Y-66800000D01*
X109872275Y-66795956D01*
X109874304Y-66782417D01*
X109868751Y-66740230D01*
X109864514Y-66724418D01*
X109853662Y-66698219D01*
X109846073Y-66627629D01*
X109853662Y-66601781D01*
X109864513Y-66575585D01*
X109868751Y-66559768D01*
X109874255Y-66517960D01*
X109872044Y-66503778D01*
X109858887Y-66500000D01*
X109155615Y-66500000D01*
X109140376Y-66504475D01*
X109139171Y-66505865D01*
X109137500Y-66513548D01*
X109137500Y-66781885D01*
X108787500Y-66781885D01*
X108787500Y-66272115D01*
X108783025Y-66256876D01*
X108781635Y-66255671D01*
X108773952Y-66254000D01*
X106872000Y-66254000D01*
X106803879Y-66233998D01*
X106757386Y-66180342D01*
X106746000Y-66128000D01*
X106746000Y-65872000D01*
X106766002Y-65803879D01*
X106819658Y-65757386D01*
X106872000Y-65746000D01*
X108769385Y-65746000D01*
X108797907Y-65737625D01*
X108835284Y-65713604D01*
X108870783Y-65708500D01*
X109014872Y-65708500D01*
X109082993Y-65728502D01*
X109129486Y-65782158D01*
X109139590Y-65852432D01*
X109137992Y-65861285D01*
X109137500Y-65863547D01*
X109137500Y-66131885D01*
X109141975Y-66147124D01*
X109143365Y-66148329D01*
X109151048Y-66150000D01*
X109858504Y-66150000D01*
X109872275Y-66145956D01*
X109874304Y-66132417D01*
X109868751Y-66090230D01*
X109864514Y-66074418D01*
X109853662Y-66048219D01*
X109846073Y-65977629D01*
X109853662Y-65951781D01*
X109864513Y-65925585D01*
X109868751Y-65909768D01*
X109874255Y-65867960D01*
X109872044Y-65853778D01*
X109858887Y-65850000D01*
X109676592Y-65850000D01*
X109608471Y-65829998D01*
X109561978Y-65776342D01*
X109551874Y-65706068D01*
X109581368Y-65641488D01*
X109599888Y-65624038D01*
X109662344Y-65576114D01*
X109712572Y-65537572D01*
X109714071Y-65535619D01*
X109774027Y-65502879D01*
X109800810Y-65500000D01*
X109858504Y-65500000D01*
X109872275Y-65495956D01*
X109874304Y-65482417D01*
X109868751Y-65440230D01*
X109864512Y-65424412D01*
X109853933Y-65398870D01*
X109846344Y-65328280D01*
X109853933Y-65302435D01*
X109865000Y-65275718D01*
X109865002Y-65275712D01*
X109868160Y-65268087D01*
X109868921Y-65262303D01*
X109905288Y-65202639D01*
X109925527Y-65187643D01*
X109985863Y-65151676D01*
X109985869Y-65151671D01*
X109991912Y-65148069D01*
X109997006Y-65143218D01*
X109997010Y-65143215D01*
X110103820Y-65041500D01*
X110123266Y-65022982D01*
X110223643Y-64871902D01*
X110265423Y-64761917D01*
X110285555Y-64708920D01*
X110285556Y-64708918D01*
X110288055Y-64702338D01*
X110300222Y-64615765D01*
X110312748Y-64526639D01*
X110312748Y-64526636D01*
X110313299Y-64522717D01*
X110313616Y-64500000D01*
X110293397Y-64319745D01*
X110285475Y-64296997D01*
X110236064Y-64155106D01*
X110236062Y-64155103D01*
X110233745Y-64148448D01*
X110230009Y-64142469D01*
X110141359Y-64000598D01*
X110137626Y-63994624D01*
X110114121Y-63970954D01*
X110014778Y-63870915D01*
X110014774Y-63870912D01*
X110009815Y-63865918D01*
X109856666Y-63768727D01*
X109827463Y-63758328D01*
X109692425Y-63710243D01*
X109692420Y-63710242D01*
X109685790Y-63707881D01*
X109678804Y-63707048D01*
X109678800Y-63707047D01*
X109616830Y-63699658D01*
X109567549Y-63693781D01*
X109502277Y-63665855D01*
X109475615Y-63635437D01*
X109391359Y-63500598D01*
X109387626Y-63494624D01*
X109358340Y-63465133D01*
X109324533Y-63402703D01*
X109329845Y-63331905D01*
X109358651Y-63287254D01*
X109392253Y-63253652D01*
X109400539Y-63246112D01*
X109407018Y-63242000D01*
X109453644Y-63192348D01*
X109456398Y-63189507D01*
X109476135Y-63169770D01*
X109478615Y-63166573D01*
X109486320Y-63157551D01*
X109511159Y-63131100D01*
X109516586Y-63125321D01*
X109520405Y-63118375D01*
X109520407Y-63118372D01*
X109526348Y-63107566D01*
X109537199Y-63091047D01*
X109544758Y-63081301D01*
X109549614Y-63075041D01*
X109561005Y-63048718D01*
X109606415Y-62994144D01*
X109674122Y-62972783D01*
X109689484Y-62973414D01*
X109725804Y-62977135D01*
X109787928Y-62983500D01*
X110487072Y-62983500D01*
X110490318Y-62983163D01*
X110490322Y-62983163D01*
X110584235Y-62973419D01*
X110584239Y-62973418D01*
X110591093Y-62972707D01*
X110597629Y-62970526D01*
X110597631Y-62970526D01*
X110730395Y-62926232D01*
X110756107Y-62917654D01*
X110904031Y-62826116D01*
X110911274Y-62818861D01*
X110913038Y-62817895D01*
X110914941Y-62816387D01*
X110915199Y-62816713D01*
X110973554Y-62784781D01*
X111044375Y-62789782D01*
X111089470Y-62818708D01*
X111092131Y-62821364D01*
X111103540Y-62830375D01*
X111239063Y-62913912D01*
X111252241Y-62920056D01*
X111403766Y-62970315D01*
X111417132Y-62973181D01*
X111509770Y-62982672D01*
X111516185Y-62983000D01*
X111590385Y-62983000D01*
X111605624Y-62978525D01*
X111606829Y-62977135D01*
X111608500Y-62969452D01*
X111608500Y-62964885D01*
X112116500Y-62964885D01*
X112120975Y-62980124D01*
X112122365Y-62981329D01*
X112130048Y-62983000D01*
X112208766Y-62983000D01*
X112215282Y-62982663D01*
X112309132Y-62972925D01*
X112322528Y-62970032D01*
X112473953Y-62919512D01*
X112487115Y-62913347D01*
X112622492Y-62829574D01*
X112633890Y-62820540D01*
X112746363Y-62707871D01*
X112755375Y-62696460D01*
X112838912Y-62560937D01*
X112845056Y-62547759D01*
X112895315Y-62396234D01*
X112898181Y-62382868D01*
X112907672Y-62290230D01*
X112908000Y-62283815D01*
X112908000Y-62272115D01*
X112903525Y-62256876D01*
X112902135Y-62255671D01*
X112894452Y-62254000D01*
X112134615Y-62254000D01*
X112119376Y-62258475D01*
X112118171Y-62259865D01*
X112116500Y-62267548D01*
X112116500Y-62964885D01*
X111608500Y-62964885D01*
X111608500Y-61727885D01*
X112116500Y-61727885D01*
X112120975Y-61743124D01*
X112122365Y-61744329D01*
X112130048Y-61746000D01*
X112889885Y-61746000D01*
X112905124Y-61741525D01*
X112906329Y-61740135D01*
X112908000Y-61732452D01*
X112908000Y-61716234D01*
X112907663Y-61709718D01*
X112897925Y-61615868D01*
X112895032Y-61602472D01*
X112844512Y-61451047D01*
X112838347Y-61437885D01*
X112754574Y-61302508D01*
X112745540Y-61291110D01*
X112632871Y-61178637D01*
X112621460Y-61169625D01*
X112485937Y-61086088D01*
X112472759Y-61079944D01*
X112321234Y-61029685D01*
X112307868Y-61026819D01*
X112215230Y-61017328D01*
X112208815Y-61017000D01*
X112134615Y-61017000D01*
X112119376Y-61021475D01*
X112118171Y-61022865D01*
X112116500Y-61030548D01*
X112116500Y-61727885D01*
X111608500Y-61727885D01*
X111608500Y-61035115D01*
X111604025Y-61019876D01*
X111602635Y-61018671D01*
X111594952Y-61017000D01*
X111516234Y-61017000D01*
X111509718Y-61017337D01*
X111415868Y-61027075D01*
X111402472Y-61029968D01*
X111251047Y-61080488D01*
X111237885Y-61086653D01*
X111102508Y-61170426D01*
X111091106Y-61179464D01*
X111089433Y-61181139D01*
X111088007Y-61181919D01*
X111085373Y-61184007D01*
X111085016Y-61183556D01*
X111027151Y-61215219D01*
X110956331Y-61210216D01*
X110911246Y-61181299D01*
X110908185Y-61178244D01*
X110908184Y-61178243D01*
X110903003Y-61173071D01*
X110754920Y-61081791D01*
X110589809Y-61027026D01*
X110582973Y-61026326D01*
X110582970Y-61026325D01*
X110531474Y-61021049D01*
X110487072Y-61016500D01*
X109787928Y-61016500D01*
X109784671Y-61016838D01*
X109784670Y-61016838D01*
X109772501Y-61018100D01*
X109702680Y-61005234D01*
X109650899Y-60956662D01*
X109633500Y-60892773D01*
X109633500Y-60864964D01*
X109653502Y-60796843D01*
X109693196Y-60757821D01*
X109704031Y-60751116D01*
X109709204Y-60745934D01*
X109821758Y-60633184D01*
X109821762Y-60633179D01*
X109826929Y-60628003D01*
X109832875Y-60618357D01*
X109914369Y-60486150D01*
X109914370Y-60486148D01*
X109918209Y-60479920D01*
X109972974Y-60314809D01*
X109983500Y-60212072D01*
X109983500Y-59612928D01*
X109983163Y-59609678D01*
X109973419Y-59515765D01*
X109973418Y-59515761D01*
X109972707Y-59508907D01*
X109917654Y-59343893D01*
X109826116Y-59195969D01*
X109742362Y-59112361D01*
X109719214Y-59089253D01*
X109685135Y-59026970D01*
X109690138Y-58956150D01*
X109719059Y-58911063D01*
X109821754Y-58808188D01*
X109821758Y-58808183D01*
X109826929Y-58803003D01*
X109911148Y-58666375D01*
X109914369Y-58661150D01*
X109914370Y-58661148D01*
X109918209Y-58654920D01*
X109972974Y-58489809D01*
X109973835Y-58481411D01*
X109983172Y-58390271D01*
X109983500Y-58387072D01*
X109983500Y-57787928D01*
X109981530Y-57768938D01*
X109973419Y-57690765D01*
X109973418Y-57690761D01*
X109972707Y-57683907D01*
X109917654Y-57518893D01*
X109826116Y-57370969D01*
X109820938Y-57365800D01*
X109820934Y-57365795D01*
X109790739Y-57335653D01*
X109756661Y-57273370D01*
X109761664Y-57202550D01*
X109790663Y-57157386D01*
X109927644Y-57020405D01*
X109989956Y-56986379D01*
X110016739Y-56983500D01*
X110387072Y-56983500D01*
X110390318Y-56983163D01*
X110390322Y-56983163D01*
X110484235Y-56973419D01*
X110484239Y-56973418D01*
X110491093Y-56972707D01*
X110497629Y-56970526D01*
X110497631Y-56970526D01*
X110646015Y-56921021D01*
X110656107Y-56917654D01*
X110804031Y-56826116D01*
X110911101Y-56718859D01*
X110973382Y-56684780D01*
X111044202Y-56689783D01*
X111089291Y-56718704D01*
X111192129Y-56821363D01*
X111203540Y-56830375D01*
X111339063Y-56913912D01*
X111352241Y-56920056D01*
X111503766Y-56970315D01*
X111517132Y-56973181D01*
X111609770Y-56982672D01*
X111616185Y-56983000D01*
X111640385Y-56983000D01*
X111655624Y-56978525D01*
X111656829Y-56977135D01*
X111658500Y-56969452D01*
X111658500Y-55872000D01*
X111678502Y-55803879D01*
X111732158Y-55757386D01*
X111784500Y-55746000D01*
X112040500Y-55746000D01*
X112108621Y-55766002D01*
X112155114Y-55819658D01*
X112166500Y-55872000D01*
X112166500Y-56964885D01*
X112170975Y-56980124D01*
X112172365Y-56981329D01*
X112180048Y-56983000D01*
X112208766Y-56983000D01*
X112215282Y-56982663D01*
X112309132Y-56972925D01*
X112322528Y-56970032D01*
X112473953Y-56919512D01*
X112487115Y-56913347D01*
X112622492Y-56829574D01*
X112633890Y-56820540D01*
X112746363Y-56707871D01*
X112755375Y-56696460D01*
X112838321Y-56561896D01*
X112891093Y-56514403D01*
X112963512Y-56503294D01*
X113030052Y-56512861D01*
X113030059Y-56512862D01*
X113034500Y-56513500D01*
X114624000Y-56513500D01*
X114627346Y-56513140D01*
X114627351Y-56513140D01*
X114729785Y-56502128D01*
X114729792Y-56502127D01*
X114733149Y-56501766D01*
X114736450Y-56501048D01*
X114782210Y-56491094D01*
X114782215Y-56491093D01*
X114785491Y-56490380D01*
X114889657Y-56455710D01*
X115012612Y-56376692D01*
X115042316Y-56350954D01*
X115062875Y-56333139D01*
X115066268Y-56330199D01*
X115110375Y-56279297D01*
X115156081Y-56226550D01*
X115156083Y-56226547D01*
X115161982Y-56219739D01*
X115222698Y-56086790D01*
X115242700Y-56018669D01*
X115247333Y-55986450D01*
X115262861Y-55878447D01*
X115262861Y-55878442D01*
X115263500Y-55874000D01*
X115263500Y-54281672D01*
X115278067Y-54232061D01*
X115265516Y-54207027D01*
X115263500Y-54184576D01*
X115263500Y-51741672D01*
X115278067Y-51692061D01*
X115265516Y-51667027D01*
X115263500Y-51644576D01*
X115263500Y-46661672D01*
X115278067Y-46612061D01*
X115265516Y-46587027D01*
X115263500Y-46564576D01*
X115263500Y-46400371D01*
X115283502Y-46332250D01*
X115337158Y-46285757D01*
X115407432Y-46275653D01*
X115472012Y-46305147D01*
X115478595Y-46311276D01*
X115494449Y-46327130D01*
X115528475Y-46389442D01*
X115530641Y-46429613D01*
X115516218Y-46564576D01*
X115514787Y-46577965D01*
X115500939Y-46611458D01*
X115510396Y-46626174D01*
X115515291Y-46654419D01*
X115525110Y-46824715D01*
X115526247Y-46829761D01*
X115526248Y-46829767D01*
X115546119Y-46917939D01*
X115574222Y-47042639D01*
X115612461Y-47136811D01*
X115639752Y-47204020D01*
X115658266Y-47249616D01*
X115774987Y-47440088D01*
X115921250Y-47608938D01*
X116093126Y-47751632D01*
X116100423Y-47755896D01*
X116166955Y-47794774D01*
X116215679Y-47846412D01*
X116228750Y-47916195D01*
X116202019Y-47981967D01*
X116161562Y-48015327D01*
X116153457Y-48019546D01*
X116144738Y-48025036D01*
X115974433Y-48152905D01*
X115966726Y-48159748D01*
X115819590Y-48313717D01*
X115813104Y-48321727D01*
X115693098Y-48497649D01*
X115688000Y-48506623D01*
X115598338Y-48699783D01*
X115594775Y-48709470D01*
X115539389Y-48909183D01*
X115540912Y-48917607D01*
X115553292Y-48921000D01*
X118193344Y-48921000D01*
X118206875Y-48917027D01*
X118208180Y-48907947D01*
X118166214Y-48740875D01*
X118162894Y-48731124D01*
X118077972Y-48535814D01*
X118073105Y-48526739D01*
X117957426Y-48347926D01*
X117951136Y-48339757D01*
X117807806Y-48182240D01*
X117800273Y-48175215D01*
X117633139Y-48043222D01*
X117624556Y-48037520D01*
X117587602Y-48017120D01*
X117537631Y-47966687D01*
X117522859Y-47897245D01*
X117547975Y-47830839D01*
X117575327Y-47804232D01*
X117643092Y-47755896D01*
X117754860Y-47676173D01*
X117913096Y-47518489D01*
X117949025Y-47468489D01*
X118040435Y-47341277D01*
X118043453Y-47337077D01*
X118068165Y-47287077D01*
X118140136Y-47141453D01*
X118140137Y-47141451D01*
X118142430Y-47136811D01*
X118207370Y-46923069D01*
X118236529Y-46701590D01*
X118236611Y-46698240D01*
X118238074Y-46638365D01*
X118238074Y-46638361D01*
X118238156Y-46635000D01*
X118219852Y-46412361D01*
X118165431Y-46195702D01*
X118076354Y-45990840D01*
X117955014Y-45803277D01*
X117804670Y-45638051D01*
X117800619Y-45634852D01*
X117800615Y-45634848D01*
X117633414Y-45502800D01*
X117633410Y-45502798D01*
X117629359Y-45499598D01*
X117588053Y-45476796D01*
X117538084Y-45426364D01*
X117523312Y-45356921D01*
X117548428Y-45290516D01*
X117575780Y-45263909D01*
X117715508Y-45164242D01*
X117754860Y-45136173D01*
X117913096Y-44978489D01*
X118043453Y-44797077D01*
X118109214Y-44664020D01*
X118140136Y-44601453D01*
X118140137Y-44601451D01*
X118142430Y-44596811D01*
X118207370Y-44383069D01*
X118236529Y-44161590D01*
X118236611Y-44158240D01*
X118238074Y-44098365D01*
X118238074Y-44098361D01*
X118238156Y-44095000D01*
X118219852Y-43872361D01*
X118165431Y-43655702D01*
X118076354Y-43450840D01*
X117955014Y-43263277D01*
X117804670Y-43098051D01*
X117800619Y-43094852D01*
X117800615Y-43094848D01*
X117633414Y-42962800D01*
X117633410Y-42962798D01*
X117629359Y-42959598D01*
X117433789Y-42851638D01*
X117428920Y-42849914D01*
X117428916Y-42849912D01*
X117228087Y-42778795D01*
X117228083Y-42778794D01*
X117223212Y-42777069D01*
X117218119Y-42776162D01*
X117218116Y-42776161D01*
X117119230Y-42758547D01*
X117055672Y-42726909D01*
X117019309Y-42665932D01*
X117021686Y-42594975D01*
X117062047Y-42536567D01*
X117127579Y-42509252D01*
X117141326Y-42508500D01*
X118365500Y-42508500D01*
X118433621Y-42528502D01*
G37*
%TD.AperFunction*%
%TA.AperFunction,Conductor*%
G36*
X96720036Y-42528502D02*
G01*
X96766529Y-42582158D01*
X96776633Y-42652432D01*
X96747139Y-42717012D01*
X96691060Y-42754265D01*
X96675017Y-42759509D01*
X96586756Y-42788357D01*
X96582164Y-42790747D01*
X96582165Y-42790747D01*
X96465195Y-42851638D01*
X96388607Y-42891507D01*
X96384474Y-42894610D01*
X96384471Y-42894612D01*
X96297918Y-42959598D01*
X96209965Y-43025635D01*
X96055629Y-43187138D01*
X96052715Y-43191410D01*
X96052714Y-43191411D01*
X96000730Y-43267617D01*
X95929743Y-43371680D01*
X95835688Y-43574305D01*
X95775989Y-43789570D01*
X95775440Y-43794707D01*
X95759787Y-43941178D01*
X95732659Y-44006788D01*
X95677515Y-44045127D01*
X95717012Y-44063166D01*
X95755396Y-44122892D01*
X95760291Y-44151137D01*
X95765110Y-44234715D01*
X95766247Y-44239761D01*
X95766248Y-44239767D01*
X95769596Y-44254621D01*
X95814222Y-44452639D01*
X95898266Y-44659616D01*
X96014987Y-44850088D01*
X96161250Y-45018938D01*
X96333126Y-45161632D01*
X96403595Y-45202811D01*
X96406445Y-45204476D01*
X96455169Y-45256114D01*
X96468240Y-45325897D01*
X96441509Y-45391669D01*
X96401055Y-45425027D01*
X96388607Y-45431507D01*
X96384474Y-45434610D01*
X96384471Y-45434612D01*
X96297918Y-45499598D01*
X96209965Y-45565635D01*
X96055629Y-45727138D01*
X96052715Y-45731410D01*
X96052714Y-45731411D01*
X96000730Y-45807617D01*
X95929743Y-45911680D01*
X95835688Y-46114305D01*
X95775989Y-46329570D01*
X95775440Y-46334707D01*
X95759787Y-46481178D01*
X95732659Y-46546788D01*
X95677515Y-46585127D01*
X95717012Y-46603166D01*
X95755396Y-46662892D01*
X95760291Y-46691137D01*
X95765110Y-46774715D01*
X95766247Y-46779761D01*
X95766248Y-46779767D01*
X95786119Y-46867939D01*
X95814222Y-46992639D01*
X95898266Y-47199616D01*
X96014987Y-47390088D01*
X96161250Y-47558938D01*
X96333126Y-47701632D01*
X96406955Y-47744774D01*
X96455679Y-47796412D01*
X96468750Y-47866195D01*
X96442019Y-47931967D01*
X96401562Y-47965327D01*
X96393457Y-47969546D01*
X96384738Y-47975036D01*
X96214433Y-48102905D01*
X96206726Y-48109748D01*
X96059590Y-48263717D01*
X96053104Y-48271727D01*
X95933098Y-48447649D01*
X95928000Y-48456623D01*
X95838338Y-48649783D01*
X95834775Y-48659470D01*
X95779389Y-48859183D01*
X95780912Y-48867607D01*
X95793292Y-48871000D01*
X98433344Y-48871000D01*
X98446875Y-48867027D01*
X98448180Y-48857947D01*
X98406214Y-48690875D01*
X98402894Y-48681124D01*
X98317972Y-48485814D01*
X98313105Y-48476739D01*
X98197426Y-48297926D01*
X98191136Y-48289757D01*
X98047806Y-48132240D01*
X98040273Y-48125215D01*
X97873139Y-47993222D01*
X97864556Y-47987520D01*
X97827602Y-47967120D01*
X97777631Y-47916687D01*
X97762859Y-47847245D01*
X97787975Y-47780839D01*
X97815327Y-47754232D01*
X97838797Y-47737491D01*
X97994860Y-47626173D01*
X98012156Y-47608938D01*
X98149435Y-47472137D01*
X98153096Y-47468489D01*
X98212594Y-47385689D01*
X98280435Y-47291277D01*
X98283453Y-47287077D01*
X98301968Y-47249616D01*
X98380136Y-47091453D01*
X98380137Y-47091451D01*
X98382430Y-47086811D01*
X98447370Y-46873069D01*
X98476529Y-46651590D01*
X98476852Y-46638365D01*
X98478074Y-46588365D01*
X98478074Y-46588361D01*
X98478156Y-46585000D01*
X98467327Y-46453291D01*
X98481679Y-46383762D01*
X98503808Y-46353873D01*
X98521405Y-46336276D01*
X98583717Y-46302250D01*
X98654532Y-46307315D01*
X98711368Y-46349862D01*
X98736179Y-46416382D01*
X98736500Y-46425371D01*
X98736500Y-55874000D01*
X98736860Y-55877346D01*
X98736860Y-55877351D01*
X98746098Y-55963277D01*
X98748234Y-55983149D01*
X98748952Y-55986449D01*
X98748952Y-55986450D01*
X98755961Y-56018669D01*
X98759620Y-56035491D01*
X98794290Y-56139657D01*
X98873308Y-56262612D01*
X98876250Y-56266007D01*
X98876252Y-56266010D01*
X98906531Y-56300954D01*
X98919801Y-56316268D01*
X98923194Y-56319208D01*
X99023450Y-56406081D01*
X99023453Y-56406083D01*
X99030261Y-56411982D01*
X99163210Y-56472698D01*
X99186964Y-56479673D01*
X99227008Y-56491431D01*
X99227012Y-56491432D01*
X99231331Y-56492700D01*
X99235780Y-56493340D01*
X99235786Y-56493341D01*
X99371553Y-56512861D01*
X99371558Y-56512861D01*
X99376000Y-56513500D01*
X99823945Y-56513500D01*
X99826327Y-56513319D01*
X99826337Y-56513319D01*
X99898989Y-56507809D01*
X99901376Y-56507628D01*
X99938941Y-56501898D01*
X100009872Y-56485511D01*
X100080747Y-56489666D01*
X100128870Y-56520750D01*
X100226483Y-56621830D01*
X100226488Y-56621834D01*
X100231382Y-56626902D01*
X100237278Y-56630760D01*
X100372450Y-56719214D01*
X100383159Y-56726222D01*
X100389763Y-56728678D01*
X100389765Y-56728679D01*
X100546558Y-56786990D01*
X100546560Y-56786990D01*
X100553168Y-56789448D01*
X100636995Y-56800633D01*
X100725980Y-56812507D01*
X100725984Y-56812507D01*
X100732961Y-56813438D01*
X100739972Y-56812800D01*
X100739976Y-56812800D01*
X100882459Y-56799832D01*
X100913600Y-56796998D01*
X100920302Y-56794820D01*
X100920304Y-56794820D01*
X101013105Y-56764667D01*
X101052041Y-56758500D01*
X101251323Y-56758500D01*
X101319444Y-56778502D01*
X101340334Y-56795321D01*
X101371997Y-56826929D01*
X101520080Y-56918209D01*
X101685191Y-56972974D01*
X101692027Y-56973674D01*
X101692030Y-56973675D01*
X101739370Y-56978525D01*
X101787928Y-56983500D01*
X102387072Y-56983500D01*
X102390318Y-56983163D01*
X102390322Y-56983163D01*
X102484235Y-56973419D01*
X102484239Y-56973418D01*
X102491093Y-56972707D01*
X102497629Y-56970526D01*
X102497631Y-56970526D01*
X102646015Y-56921021D01*
X102656107Y-56917654D01*
X102804031Y-56826116D01*
X102809597Y-56820540D01*
X102910747Y-56719214D01*
X102973030Y-56685135D01*
X103043850Y-56690138D01*
X103088937Y-56719059D01*
X103191812Y-56821754D01*
X103191817Y-56821758D01*
X103196997Y-56826929D01*
X103203227Y-56830769D01*
X103203228Y-56830770D01*
X103247793Y-56858240D01*
X103345080Y-56918209D01*
X103510191Y-56972974D01*
X103517027Y-56973674D01*
X103517030Y-56973675D01*
X103564370Y-56978525D01*
X103612928Y-56983500D01*
X103983261Y-56983500D01*
X104051382Y-57003502D01*
X104072356Y-57020405D01*
X104209382Y-57157431D01*
X104243408Y-57219743D01*
X104238343Y-57290558D01*
X104209461Y-57335543D01*
X104190209Y-57354829D01*
X104173071Y-57371997D01*
X104169231Y-57378227D01*
X104169230Y-57378228D01*
X104086364Y-57512662D01*
X104081791Y-57520080D01*
X104027026Y-57685191D01*
X104016500Y-57787928D01*
X104016500Y-58387072D01*
X104016837Y-58390318D01*
X104016837Y-58390322D01*
X104023820Y-58457617D01*
X104027293Y-58491093D01*
X104082346Y-58656107D01*
X104173884Y-58804031D01*
X104179066Y-58809204D01*
X104280786Y-58910747D01*
X104314865Y-58973030D01*
X104309862Y-59043850D01*
X104280941Y-59088937D01*
X104178246Y-59191812D01*
X104178242Y-59191817D01*
X104173071Y-59196997D01*
X104169231Y-59203227D01*
X104169230Y-59203228D01*
X104086364Y-59337662D01*
X104081791Y-59345080D01*
X104027026Y-59510191D01*
X104016500Y-59612928D01*
X104016500Y-60212072D01*
X104016837Y-60215318D01*
X104016837Y-60215322D01*
X104026551Y-60308938D01*
X104027293Y-60316093D01*
X104029474Y-60322629D01*
X104029474Y-60322631D01*
X104047337Y-60376173D01*
X104082346Y-60481107D01*
X104173884Y-60629031D01*
X104179066Y-60634204D01*
X104291816Y-60746758D01*
X104291821Y-60746762D01*
X104296997Y-60751929D01*
X104303227Y-60755769D01*
X104303228Y-60755770D01*
X104306614Y-60757857D01*
X104308441Y-60759886D01*
X104308973Y-60760307D01*
X104308901Y-60760398D01*
X104354108Y-60810628D01*
X104366500Y-60865118D01*
X104366500Y-60892753D01*
X104346498Y-60960874D01*
X104292842Y-61007367D01*
X104227658Y-61018097D01*
X104212072Y-61016500D01*
X103512928Y-61016500D01*
X103509682Y-61016837D01*
X103509678Y-61016837D01*
X103415765Y-61026581D01*
X103415761Y-61026582D01*
X103408907Y-61027293D01*
X103402371Y-61029474D01*
X103402369Y-61029474D01*
X103269605Y-61073768D01*
X103243893Y-61082346D01*
X103095969Y-61173884D01*
X103088922Y-61180944D01*
X103088727Y-61181139D01*
X103086962Y-61182105D01*
X103085059Y-61183613D01*
X103084801Y-61183287D01*
X103026446Y-61215219D01*
X102955625Y-61210218D01*
X102910530Y-61181292D01*
X102907869Y-61178636D01*
X102896460Y-61169625D01*
X102760937Y-61086088D01*
X102747759Y-61079944D01*
X102596234Y-61029685D01*
X102582868Y-61026819D01*
X102490230Y-61017328D01*
X102483815Y-61017000D01*
X102409615Y-61017000D01*
X102394376Y-61021475D01*
X102393171Y-61022865D01*
X102391500Y-61030548D01*
X102391500Y-62964885D01*
X102395975Y-62980124D01*
X102397365Y-62981329D01*
X102405048Y-62983000D01*
X102483766Y-62983000D01*
X102490282Y-62982663D01*
X102584132Y-62972925D01*
X102597528Y-62970032D01*
X102748953Y-62919512D01*
X102762115Y-62913347D01*
X102897492Y-62829574D01*
X102908894Y-62820536D01*
X102910567Y-62818861D01*
X102911993Y-62818081D01*
X102914627Y-62815993D01*
X102914984Y-62816444D01*
X102972849Y-62784781D01*
X103043669Y-62789784D01*
X103088754Y-62818701D01*
X103091421Y-62821363D01*
X103096997Y-62826929D01*
X103103227Y-62830769D01*
X103103228Y-62830770D01*
X103154751Y-62862529D01*
X103245080Y-62918209D01*
X103410191Y-62972974D01*
X103417027Y-62973674D01*
X103417030Y-62973675D01*
X103464370Y-62978525D01*
X103512928Y-62983500D01*
X104212072Y-62983500D01*
X104215330Y-62983162D01*
X104227499Y-62981900D01*
X104297320Y-62994766D01*
X104349101Y-63043338D01*
X104366500Y-63107227D01*
X104366500Y-64389617D01*
X104346498Y-64457738D01*
X104317205Y-64489579D01*
X104287428Y-64512428D01*
X104282405Y-64518974D01*
X104261756Y-64545884D01*
X104191895Y-64636929D01*
X104188736Y-64644555D01*
X104188735Y-64644557D01*
X104149353Y-64739633D01*
X104104804Y-64794913D01*
X104037441Y-64817334D01*
X103968649Y-64799775D01*
X103920271Y-64747813D01*
X103907617Y-64704418D01*
X103898419Y-64615765D01*
X103898418Y-64615761D01*
X103897707Y-64608907D01*
X103894585Y-64599547D01*
X103844972Y-64450841D01*
X103842654Y-64443893D01*
X103751116Y-64295969D01*
X103670225Y-64215219D01*
X103633184Y-64178242D01*
X103633179Y-64178238D01*
X103628003Y-64173071D01*
X103614434Y-64164707D01*
X103486150Y-64085631D01*
X103486148Y-64085630D01*
X103479920Y-64081791D01*
X103314809Y-64027026D01*
X103307973Y-64026326D01*
X103307970Y-64026325D01*
X103256474Y-64021049D01*
X103212072Y-64016500D01*
X102512928Y-64016500D01*
X102509682Y-64016837D01*
X102509678Y-64016837D01*
X102415765Y-64026581D01*
X102415761Y-64026582D01*
X102408907Y-64027293D01*
X102402371Y-64029474D01*
X102402369Y-64029474D01*
X102269605Y-64073768D01*
X102243893Y-64082346D01*
X102095969Y-64173884D01*
X102090797Y-64179065D01*
X102088727Y-64181139D01*
X102086962Y-64182105D01*
X102085059Y-64183613D01*
X102084801Y-64183287D01*
X102026446Y-64215219D01*
X101955625Y-64210218D01*
X101910530Y-64181292D01*
X101907869Y-64178636D01*
X101896460Y-64169625D01*
X101760937Y-64086088D01*
X101747759Y-64079944D01*
X101596234Y-64029685D01*
X101582868Y-64026819D01*
X101490230Y-64017328D01*
X101483815Y-64017000D01*
X101409615Y-64017000D01*
X101394376Y-64021475D01*
X101393171Y-64022865D01*
X101391500Y-64030548D01*
X101391500Y-65983000D01*
X101391395Y-65983000D01*
X101392869Y-66024254D01*
X101391500Y-66030547D01*
X101391500Y-67964885D01*
X101395975Y-67980124D01*
X101397365Y-67981329D01*
X101405048Y-67983000D01*
X101483766Y-67983000D01*
X101490282Y-67982663D01*
X101584132Y-67972925D01*
X101597528Y-67970032D01*
X101748953Y-67919512D01*
X101762115Y-67913347D01*
X101897492Y-67829574D01*
X101908894Y-67820536D01*
X101910567Y-67818861D01*
X101911993Y-67818081D01*
X101914627Y-67815993D01*
X101914984Y-67816444D01*
X101972849Y-67784781D01*
X102043669Y-67789784D01*
X102088754Y-67818701D01*
X102091421Y-67821363D01*
X102096997Y-67826929D01*
X102103227Y-67830769D01*
X102103228Y-67830770D01*
X102186728Y-67882240D01*
X102245080Y-67918209D01*
X102410191Y-67972974D01*
X102417027Y-67973674D01*
X102417030Y-67973675D01*
X102464370Y-67978525D01*
X102512928Y-67983500D01*
X103212072Y-67983500D01*
X103215318Y-67983163D01*
X103215322Y-67983163D01*
X103309235Y-67973419D01*
X103309239Y-67973418D01*
X103316093Y-67972707D01*
X103322629Y-67970526D01*
X103322631Y-67970526D01*
X103455395Y-67926232D01*
X103481107Y-67917654D01*
X103629031Y-67826116D01*
X103665300Y-67789784D01*
X103746758Y-67708184D01*
X103746762Y-67708179D01*
X103751929Y-67703003D01*
X103767032Y-67678502D01*
X103839369Y-67561150D01*
X103839370Y-67561148D01*
X103843209Y-67554920D01*
X103897974Y-67389809D01*
X103900668Y-67363520D01*
X103905390Y-67317425D01*
X103907609Y-67295764D01*
X103934450Y-67230038D01*
X103992565Y-67189256D01*
X104063502Y-67186367D01*
X104124741Y-67222288D01*
X104149362Y-67260389D01*
X104154219Y-67272115D01*
X104191895Y-67363072D01*
X104196922Y-67369623D01*
X104196923Y-67369625D01*
X104282399Y-67481019D01*
X104282402Y-67481022D01*
X104287428Y-67487572D01*
X104293978Y-67492598D01*
X104293979Y-67492599D01*
X104334928Y-67524020D01*
X104411929Y-67583105D01*
X104419555Y-67586264D01*
X104419557Y-67586265D01*
X104458602Y-67602438D01*
X104556913Y-67643160D01*
X104565097Y-67644237D01*
X104565099Y-67644238D01*
X104662625Y-67657077D01*
X104673434Y-67658500D01*
X105183295Y-67658500D01*
X105251416Y-67678502D01*
X105274632Y-67700105D01*
X105275364Y-67699373D01*
X105300627Y-67724636D01*
X105298902Y-67726361D01*
X105333581Y-67772741D01*
X105341500Y-67816705D01*
X105341500Y-68326566D01*
X105356840Y-68443087D01*
X105381910Y-68503610D01*
X105391500Y-68551826D01*
X105391500Y-68946233D01*
X105390973Y-68957416D01*
X105389298Y-68964909D01*
X105389547Y-68972835D01*
X105389547Y-68972836D01*
X105391438Y-69032986D01*
X105391500Y-69036945D01*
X105391500Y-69064856D01*
X105391997Y-69068790D01*
X105391997Y-69068791D01*
X105392005Y-69068856D01*
X105392938Y-69080693D01*
X105394327Y-69124889D01*
X105399978Y-69144339D01*
X105403987Y-69163700D01*
X105406526Y-69183797D01*
X105409445Y-69191168D01*
X105409445Y-69191170D01*
X105422804Y-69224912D01*
X105426649Y-69236142D01*
X105438982Y-69278593D01*
X105443015Y-69285412D01*
X105443017Y-69285417D01*
X105449293Y-69296028D01*
X105457988Y-69313776D01*
X105465448Y-69332617D01*
X105463287Y-69333473D01*
X105476048Y-69391369D01*
X105451421Y-69457958D01*
X105394703Y-69500661D01*
X105323901Y-69505921D01*
X105308083Y-69501427D01*
X105240978Y-69477533D01*
X105192424Y-69460243D01*
X105192422Y-69460243D01*
X105185790Y-69457881D01*
X105178802Y-69457048D01*
X105178799Y-69457047D01*
X105031400Y-69439471D01*
X105005680Y-69436404D01*
X104998677Y-69437140D01*
X104998676Y-69437140D01*
X104832288Y-69454628D01*
X104832286Y-69454629D01*
X104825288Y-69455364D01*
X104653579Y-69513818D01*
X104647575Y-69517512D01*
X104505095Y-69605166D01*
X104505092Y-69605168D01*
X104499088Y-69608862D01*
X104494053Y-69613793D01*
X104494050Y-69613795D01*
X104374525Y-69730843D01*
X104369493Y-69735771D01*
X104271235Y-69888238D01*
X104268824Y-69894861D01*
X104268823Y-69894864D01*
X104254727Y-69933594D01*
X104212633Y-69990766D01*
X104146312Y-70016104D01*
X104136326Y-70016500D01*
X103512928Y-70016500D01*
X103509682Y-70016837D01*
X103509678Y-70016837D01*
X103415765Y-70026581D01*
X103415761Y-70026582D01*
X103408907Y-70027293D01*
X103402371Y-70029474D01*
X103402369Y-70029474D01*
X103312023Y-70059616D01*
X103243893Y-70082346D01*
X103095969Y-70173884D01*
X103090797Y-70179065D01*
X103088727Y-70181139D01*
X103086962Y-70182105D01*
X103085059Y-70183613D01*
X103084801Y-70183287D01*
X103026446Y-70215219D01*
X102955625Y-70210218D01*
X102910530Y-70181292D01*
X102907869Y-70178636D01*
X102896460Y-70169625D01*
X102760937Y-70086088D01*
X102747759Y-70079944D01*
X102596234Y-70029685D01*
X102582868Y-70026819D01*
X102490230Y-70017328D01*
X102483815Y-70017000D01*
X102409615Y-70017000D01*
X102394376Y-70021475D01*
X102393171Y-70022865D01*
X102391500Y-70030548D01*
X102391500Y-71964885D01*
X102395975Y-71980124D01*
X102397365Y-71981329D01*
X102405048Y-71983000D01*
X102483766Y-71983000D01*
X102490282Y-71982663D01*
X102584132Y-71972925D01*
X102597528Y-71970032D01*
X102748953Y-71919512D01*
X102762115Y-71913347D01*
X102897492Y-71829574D01*
X102908894Y-71820536D01*
X102910567Y-71818861D01*
X102911993Y-71818081D01*
X102914627Y-71815993D01*
X102914984Y-71816444D01*
X102972849Y-71784781D01*
X103043669Y-71789784D01*
X103088754Y-71818701D01*
X103091421Y-71821363D01*
X103096997Y-71826929D01*
X103245080Y-71918209D01*
X103410191Y-71972974D01*
X103417027Y-71973674D01*
X103417030Y-71973675D01*
X103464370Y-71978525D01*
X103512928Y-71983500D01*
X104212072Y-71983500D01*
X104215330Y-71983162D01*
X104227499Y-71981900D01*
X104297320Y-71994766D01*
X104349101Y-72043338D01*
X104366500Y-72107227D01*
X104366500Y-72135036D01*
X104346498Y-72203157D01*
X104306804Y-72242179D01*
X104295969Y-72248884D01*
X104290796Y-72254066D01*
X104178242Y-72366816D01*
X104178238Y-72366821D01*
X104173071Y-72371997D01*
X104169231Y-72378227D01*
X104169230Y-72378228D01*
X104086364Y-72512662D01*
X104081791Y-72520080D01*
X104027026Y-72685191D01*
X104016500Y-72787928D01*
X104016500Y-73387072D01*
X104027293Y-73491093D01*
X104029474Y-73497629D01*
X104029474Y-73497631D01*
X104062947Y-73597962D01*
X104082346Y-73656107D01*
X104173884Y-73804031D01*
X104179066Y-73809204D01*
X104280786Y-73910747D01*
X104314865Y-73973030D01*
X104309862Y-74043850D01*
X104280941Y-74088937D01*
X104178246Y-74191812D01*
X104178242Y-74191817D01*
X104173071Y-74196997D01*
X104169231Y-74203227D01*
X104169230Y-74203228D01*
X104086364Y-74337662D01*
X104081791Y-74345080D01*
X104027026Y-74510191D01*
X104026326Y-74517027D01*
X104026325Y-74517030D01*
X104023270Y-74546851D01*
X104016500Y-74612928D01*
X104016500Y-75212072D01*
X104016837Y-75215318D01*
X104016837Y-75215322D01*
X104023681Y-75281277D01*
X104027293Y-75316093D01*
X104029474Y-75322629D01*
X104029474Y-75322631D01*
X104058119Y-75408489D01*
X104082346Y-75481107D01*
X104173884Y-75629031D01*
X104179062Y-75634200D01*
X104179066Y-75634205D01*
X104209261Y-75664347D01*
X104243339Y-75726630D01*
X104238336Y-75797450D01*
X104209337Y-75842614D01*
X104072356Y-75979595D01*
X104010044Y-76013621D01*
X103983261Y-76016500D01*
X103612928Y-76016500D01*
X103609682Y-76016837D01*
X103609678Y-76016837D01*
X103515765Y-76026581D01*
X103515761Y-76026582D01*
X103508907Y-76027293D01*
X103502371Y-76029474D01*
X103502369Y-76029474D01*
X103463236Y-76042530D01*
X103343893Y-76082346D01*
X103195969Y-76173884D01*
X103190796Y-76179066D01*
X103089253Y-76280786D01*
X103026970Y-76314865D01*
X102956150Y-76309862D01*
X102911063Y-76280941D01*
X102808188Y-76178246D01*
X102808183Y-76178242D01*
X102803003Y-76173071D01*
X102719940Y-76121870D01*
X102661150Y-76085631D01*
X102661148Y-76085630D01*
X102654920Y-76081791D01*
X102489809Y-76027026D01*
X102482973Y-76026326D01*
X102482970Y-76026325D01*
X102431474Y-76021049D01*
X102387072Y-76016500D01*
X101787928Y-76016500D01*
X101784682Y-76016837D01*
X101784678Y-76016837D01*
X101690765Y-76026581D01*
X101690761Y-76026582D01*
X101683907Y-76027293D01*
X101677371Y-76029474D01*
X101677369Y-76029474D01*
X101638236Y-76042530D01*
X101518893Y-76082346D01*
X101370969Y-76173884D01*
X101365796Y-76179066D01*
X101353697Y-76191186D01*
X101291414Y-76225265D01*
X101222260Y-76220867D01*
X101185790Y-76207881D01*
X101178798Y-76207047D01*
X101178797Y-76207047D01*
X101095735Y-76197143D01*
X101005680Y-76186404D01*
X100998677Y-76187140D01*
X100998676Y-76187140D01*
X100832288Y-76204628D01*
X100832286Y-76204629D01*
X100825288Y-76205364D01*
X100653579Y-76263818D01*
X100609217Y-76291110D01*
X100505095Y-76355166D01*
X100505092Y-76355168D01*
X100499088Y-76358862D01*
X100494053Y-76363793D01*
X100494050Y-76363795D01*
X100469945Y-76387401D01*
X100370410Y-76484873D01*
X100307747Y-76518243D01*
X100246758Y-76515745D01*
X100217996Y-76507300D01*
X100213547Y-76506660D01*
X100213541Y-76506659D01*
X100077774Y-76487139D01*
X100077769Y-76487139D01*
X100073327Y-76486500D01*
X99126000Y-76486500D01*
X99122654Y-76486860D01*
X99122649Y-76486860D01*
X99020215Y-76497872D01*
X99020208Y-76497873D01*
X99016851Y-76498234D01*
X99013551Y-76498952D01*
X99013550Y-76498952D01*
X98967790Y-76508906D01*
X98967785Y-76508907D01*
X98964509Y-76509620D01*
X98860343Y-76544290D01*
X98737388Y-76623308D01*
X98733993Y-76626250D01*
X98733990Y-76626252D01*
X98718574Y-76639610D01*
X98683732Y-76669801D01*
X98680792Y-76673194D01*
X98680784Y-76673202D01*
X98635036Y-76725998D01*
X98575310Y-76764382D01*
X98504314Y-76764382D01*
X98444588Y-76725998D01*
X98417608Y-76674181D01*
X98416798Y-76670954D01*
X98405431Y-76625702D01*
X98316354Y-76420840D01*
X98239802Y-76302508D01*
X98197822Y-76237617D01*
X98197820Y-76237614D01*
X98195014Y-76233277D01*
X98044670Y-76068051D01*
X98040619Y-76064852D01*
X98040615Y-76064848D01*
X97873414Y-75932800D01*
X97873410Y-75932798D01*
X97869359Y-75929598D01*
X97828053Y-75906796D01*
X97778084Y-75856364D01*
X97763312Y-75786921D01*
X97788428Y-75720516D01*
X97815780Y-75693909D01*
X97859603Y-75662650D01*
X97994860Y-75566173D01*
X98012156Y-75548938D01*
X98149435Y-75412137D01*
X98153096Y-75408489D01*
X98212594Y-75325689D01*
X98280435Y-75231277D01*
X98283453Y-75227077D01*
X98301968Y-75189616D01*
X98380136Y-75031453D01*
X98380137Y-75031451D01*
X98382430Y-75026811D01*
X98447370Y-74813069D01*
X98476529Y-74591590D01*
X98476852Y-74578365D01*
X98478074Y-74528365D01*
X98478074Y-74528361D01*
X98478156Y-74525000D01*
X98459852Y-74302361D01*
X98405431Y-74085702D01*
X98316354Y-73880840D01*
X98230168Y-73747617D01*
X98197822Y-73697617D01*
X98197820Y-73697614D01*
X98195014Y-73693277D01*
X98044670Y-73528051D01*
X98040619Y-73524852D01*
X98040615Y-73524848D01*
X97873414Y-73392800D01*
X97873410Y-73392798D01*
X97869359Y-73389598D01*
X97828053Y-73366796D01*
X97778084Y-73316364D01*
X97763312Y-73246921D01*
X97788428Y-73180516D01*
X97815780Y-73153909D01*
X97859603Y-73122650D01*
X97994860Y-73026173D01*
X98153096Y-72868489D01*
X98212594Y-72785689D01*
X98280435Y-72691277D01*
X98283453Y-72687077D01*
X98287611Y-72678665D01*
X98380136Y-72491453D01*
X98380137Y-72491451D01*
X98382430Y-72486811D01*
X98447370Y-72273069D01*
X98476529Y-72051590D01*
X98476852Y-72038365D01*
X98478074Y-71988365D01*
X98478074Y-71988361D01*
X98478156Y-71985000D01*
X98459852Y-71762361D01*
X98405431Y-71545702D01*
X98316354Y-71340840D01*
X98279431Y-71283766D01*
X101092000Y-71283766D01*
X101092337Y-71290282D01*
X101102075Y-71384132D01*
X101104968Y-71397528D01*
X101155488Y-71548953D01*
X101161653Y-71562115D01*
X101245426Y-71697492D01*
X101254460Y-71708890D01*
X101367129Y-71821363D01*
X101378540Y-71830375D01*
X101514063Y-71913912D01*
X101527241Y-71920056D01*
X101678766Y-71970315D01*
X101692132Y-71973181D01*
X101784770Y-71982672D01*
X101791185Y-71983000D01*
X101865385Y-71983000D01*
X101880624Y-71978525D01*
X101881829Y-71977135D01*
X101883500Y-71969452D01*
X101883500Y-71272115D01*
X101879025Y-71256876D01*
X101877635Y-71255671D01*
X101869952Y-71254000D01*
X101110115Y-71254000D01*
X101094876Y-71258475D01*
X101093671Y-71259865D01*
X101092000Y-71267548D01*
X101092000Y-71283766D01*
X98279431Y-71283766D01*
X98230168Y-71207617D01*
X98197822Y-71157617D01*
X98197820Y-71157614D01*
X98195014Y-71153277D01*
X98044670Y-70988051D01*
X98040619Y-70984852D01*
X98040615Y-70984848D01*
X97873414Y-70852800D01*
X97873410Y-70852798D01*
X97869359Y-70849598D01*
X97828053Y-70826796D01*
X97778084Y-70776364D01*
X97767771Y-70727885D01*
X101092000Y-70727885D01*
X101096475Y-70743124D01*
X101097865Y-70744329D01*
X101105548Y-70746000D01*
X101865385Y-70746000D01*
X101880624Y-70741525D01*
X101881829Y-70740135D01*
X101883500Y-70732452D01*
X101883500Y-70035115D01*
X101879025Y-70019876D01*
X101877635Y-70018671D01*
X101869952Y-70017000D01*
X101791234Y-70017000D01*
X101784718Y-70017337D01*
X101690868Y-70027075D01*
X101677472Y-70029968D01*
X101526047Y-70080488D01*
X101512885Y-70086653D01*
X101377508Y-70170426D01*
X101366110Y-70179460D01*
X101253637Y-70292129D01*
X101244625Y-70303540D01*
X101161088Y-70439063D01*
X101154944Y-70452241D01*
X101104685Y-70603766D01*
X101101819Y-70617132D01*
X101092328Y-70709770D01*
X101092000Y-70716185D01*
X101092000Y-70727885D01*
X97767771Y-70727885D01*
X97763312Y-70706921D01*
X97788428Y-70640516D01*
X97815780Y-70613909D01*
X97859603Y-70582650D01*
X97994860Y-70486173D01*
X98012156Y-70468938D01*
X98149435Y-70332137D01*
X98153096Y-70328489D01*
X98212594Y-70245689D01*
X98280435Y-70151277D01*
X98283453Y-70147077D01*
X98301968Y-70109616D01*
X98380136Y-69951453D01*
X98380137Y-69951451D01*
X98382430Y-69946811D01*
X98423489Y-69811671D01*
X98445865Y-69738023D01*
X98445865Y-69738021D01*
X98447370Y-69733069D01*
X98476529Y-69511590D01*
X98476611Y-69508240D01*
X98478074Y-69448365D01*
X98478074Y-69448361D01*
X98478156Y-69445000D01*
X98459852Y-69222361D01*
X98405431Y-69005702D01*
X98316354Y-68800840D01*
X98230168Y-68667617D01*
X98197822Y-68617617D01*
X98197820Y-68617614D01*
X98195014Y-68613277D01*
X98044670Y-68448051D01*
X98040619Y-68444852D01*
X98040615Y-68444848D01*
X97873414Y-68312800D01*
X97873410Y-68312798D01*
X97869359Y-68309598D01*
X97828053Y-68286796D01*
X97778084Y-68236364D01*
X97763312Y-68166921D01*
X97788428Y-68100516D01*
X97815780Y-68073909D01*
X97859603Y-68042650D01*
X97994860Y-67946173D01*
X98021069Y-67920056D01*
X98115337Y-67826116D01*
X98153096Y-67788489D01*
X98212594Y-67705689D01*
X98280435Y-67611277D01*
X98283453Y-67607077D01*
X98298445Y-67576744D01*
X98380136Y-67411453D01*
X98380137Y-67411451D01*
X98382430Y-67406811D01*
X98419814Y-67283766D01*
X100092000Y-67283766D01*
X100092337Y-67290282D01*
X100102075Y-67384132D01*
X100104968Y-67397528D01*
X100155488Y-67548953D01*
X100161653Y-67562115D01*
X100245426Y-67697492D01*
X100254460Y-67708890D01*
X100367129Y-67821363D01*
X100378540Y-67830375D01*
X100514063Y-67913912D01*
X100527241Y-67920056D01*
X100678766Y-67970315D01*
X100692132Y-67973181D01*
X100784770Y-67982672D01*
X100791185Y-67983000D01*
X100865385Y-67983000D01*
X100880624Y-67978525D01*
X100881829Y-67977135D01*
X100883500Y-67969452D01*
X100883500Y-67272115D01*
X100879025Y-67256876D01*
X100877635Y-67255671D01*
X100869952Y-67254000D01*
X100110115Y-67254000D01*
X100094876Y-67258475D01*
X100093671Y-67259865D01*
X100092000Y-67267548D01*
X100092000Y-67283766D01*
X98419814Y-67283766D01*
X98423354Y-67272115D01*
X98445865Y-67198023D01*
X98445865Y-67198021D01*
X98447370Y-67193069D01*
X98476529Y-66971590D01*
X98476884Y-66957047D01*
X98478074Y-66908365D01*
X98478074Y-66908361D01*
X98478156Y-66905000D01*
X98463595Y-66727885D01*
X100092000Y-66727885D01*
X100096475Y-66743124D01*
X100097865Y-66744329D01*
X100105548Y-66746000D01*
X100865385Y-66746000D01*
X100880624Y-66741525D01*
X100881829Y-66740135D01*
X100883500Y-66732452D01*
X100883500Y-66017000D01*
X100883605Y-66017000D01*
X100882131Y-65975746D01*
X100883500Y-65969453D01*
X100883500Y-65272115D01*
X100879025Y-65256876D01*
X100877635Y-65255671D01*
X100869952Y-65254000D01*
X100110115Y-65254000D01*
X100094876Y-65258475D01*
X100093671Y-65259865D01*
X100092000Y-65267548D01*
X100092000Y-65283766D01*
X100092337Y-65290282D01*
X100102075Y-65384132D01*
X100104968Y-65397528D01*
X100155488Y-65548953D01*
X100161653Y-65562115D01*
X100245426Y-65697492D01*
X100254460Y-65708890D01*
X100367129Y-65821363D01*
X100378543Y-65830377D01*
X100479649Y-65892699D01*
X100527143Y-65945470D01*
X100538567Y-66015542D01*
X100510293Y-66080666D01*
X100479837Y-66107103D01*
X100377510Y-66170425D01*
X100366110Y-66179460D01*
X100253637Y-66292129D01*
X100244625Y-66303540D01*
X100161088Y-66439063D01*
X100154944Y-66452241D01*
X100104685Y-66603766D01*
X100101819Y-66617132D01*
X100092328Y-66709770D01*
X100092000Y-66716185D01*
X100092000Y-66727885D01*
X98463595Y-66727885D01*
X98459852Y-66682361D01*
X98405431Y-66465702D01*
X98316354Y-66260840D01*
X98264793Y-66181139D01*
X98197822Y-66077617D01*
X98197820Y-66077614D01*
X98195014Y-66073277D01*
X98044670Y-65908051D01*
X98040619Y-65904852D01*
X98040615Y-65904848D01*
X97873414Y-65772800D01*
X97873410Y-65772798D01*
X97869359Y-65769598D01*
X97828053Y-65746796D01*
X97778084Y-65696364D01*
X97763312Y-65626921D01*
X97788428Y-65560516D01*
X97815780Y-65533909D01*
X97868988Y-65495956D01*
X97994860Y-65406173D01*
X98012156Y-65388938D01*
X98114378Y-65287072D01*
X98153096Y-65248489D01*
X98186043Y-65202639D01*
X98280435Y-65071277D01*
X98283453Y-65067077D01*
X98301968Y-65029616D01*
X98380136Y-64871453D01*
X98380137Y-64871451D01*
X98382430Y-64866811D01*
X98424639Y-64727885D01*
X100092000Y-64727885D01*
X100096475Y-64743124D01*
X100097865Y-64744329D01*
X100105548Y-64746000D01*
X100865385Y-64746000D01*
X100880624Y-64741525D01*
X100881829Y-64740135D01*
X100883500Y-64732452D01*
X100883500Y-64035115D01*
X100879025Y-64019876D01*
X100877635Y-64018671D01*
X100869952Y-64017000D01*
X100791234Y-64017000D01*
X100784718Y-64017337D01*
X100690868Y-64027075D01*
X100677472Y-64029968D01*
X100526047Y-64080488D01*
X100512885Y-64086653D01*
X100377508Y-64170426D01*
X100366110Y-64179460D01*
X100253637Y-64292129D01*
X100244625Y-64303540D01*
X100161088Y-64439063D01*
X100154944Y-64452241D01*
X100104685Y-64603766D01*
X100101819Y-64617132D01*
X100092328Y-64709770D01*
X100092000Y-64716185D01*
X100092000Y-64727885D01*
X98424639Y-64727885D01*
X98447370Y-64653069D01*
X98476529Y-64431590D01*
X98476852Y-64418365D01*
X98478074Y-64368365D01*
X98478074Y-64368361D01*
X98478156Y-64365000D01*
X98459852Y-64142361D01*
X98405431Y-63925702D01*
X98316354Y-63720840D01*
X98276906Y-63659862D01*
X98197822Y-63537617D01*
X98197820Y-63537614D01*
X98195014Y-63533277D01*
X98044670Y-63368051D01*
X98040619Y-63364852D01*
X98040615Y-63364848D01*
X97873414Y-63232800D01*
X97873410Y-63232798D01*
X97869359Y-63229598D01*
X97828053Y-63206796D01*
X97778084Y-63156364D01*
X97763312Y-63086921D01*
X97788428Y-63020516D01*
X97815780Y-62993909D01*
X97882301Y-62946460D01*
X97994860Y-62866173D01*
X98012156Y-62848938D01*
X98149435Y-62712137D01*
X98153096Y-62708489D01*
X98156300Y-62704031D01*
X98280435Y-62531277D01*
X98283453Y-62527077D01*
X98301968Y-62489616D01*
X98380136Y-62331453D01*
X98380137Y-62331451D01*
X98382430Y-62326811D01*
X98395508Y-62283766D01*
X101092000Y-62283766D01*
X101092337Y-62290282D01*
X101102075Y-62384132D01*
X101104968Y-62397528D01*
X101155488Y-62548953D01*
X101161653Y-62562115D01*
X101245426Y-62697492D01*
X101254460Y-62708890D01*
X101367129Y-62821363D01*
X101378540Y-62830375D01*
X101514063Y-62913912D01*
X101527241Y-62920056D01*
X101678766Y-62970315D01*
X101692132Y-62973181D01*
X101784770Y-62982672D01*
X101791185Y-62983000D01*
X101865385Y-62983000D01*
X101880624Y-62978525D01*
X101881829Y-62977135D01*
X101883500Y-62969452D01*
X101883500Y-62272115D01*
X101879025Y-62256876D01*
X101877635Y-62255671D01*
X101869952Y-62254000D01*
X101110115Y-62254000D01*
X101094876Y-62258475D01*
X101093671Y-62259865D01*
X101092000Y-62267548D01*
X101092000Y-62283766D01*
X98395508Y-62283766D01*
X98447370Y-62113069D01*
X98476529Y-61891590D01*
X98476852Y-61878365D01*
X98478074Y-61828365D01*
X98478074Y-61828361D01*
X98478156Y-61825000D01*
X98470172Y-61727885D01*
X101092000Y-61727885D01*
X101096475Y-61743124D01*
X101097865Y-61744329D01*
X101105548Y-61746000D01*
X101865385Y-61746000D01*
X101880624Y-61741525D01*
X101881829Y-61740135D01*
X101883500Y-61732452D01*
X101883500Y-61035115D01*
X101879025Y-61019876D01*
X101877635Y-61018671D01*
X101869952Y-61017000D01*
X101791234Y-61017000D01*
X101784718Y-61017337D01*
X101690868Y-61027075D01*
X101677472Y-61029968D01*
X101526047Y-61080488D01*
X101512885Y-61086653D01*
X101377508Y-61170426D01*
X101366110Y-61179460D01*
X101253637Y-61292129D01*
X101244625Y-61303540D01*
X101161088Y-61439063D01*
X101154944Y-61452241D01*
X101104685Y-61603766D01*
X101101819Y-61617132D01*
X101092328Y-61709770D01*
X101092000Y-61716185D01*
X101092000Y-61727885D01*
X98470172Y-61727885D01*
X98459852Y-61602361D01*
X98405431Y-61385702D01*
X98316354Y-61180840D01*
X98251136Y-61080028D01*
X98197822Y-60997617D01*
X98197820Y-60997614D01*
X98195014Y-60993277D01*
X98044670Y-60828051D01*
X98040619Y-60824852D01*
X98040615Y-60824848D01*
X97873414Y-60692800D01*
X97873410Y-60692798D01*
X97869359Y-60689598D01*
X97828053Y-60666796D01*
X97778084Y-60616364D01*
X97763312Y-60546921D01*
X97788428Y-60480516D01*
X97815780Y-60453909D01*
X97859603Y-60422650D01*
X97994860Y-60326173D01*
X98004976Y-60316093D01*
X98149435Y-60172137D01*
X98153096Y-60168489D01*
X98212594Y-60085689D01*
X98280435Y-59991277D01*
X98283453Y-59987077D01*
X98301968Y-59949616D01*
X98380136Y-59791453D01*
X98380137Y-59791451D01*
X98382430Y-59786811D01*
X98434282Y-59616146D01*
X98445865Y-59578023D01*
X98445865Y-59578021D01*
X98447370Y-59573069D01*
X98476529Y-59351590D01*
X98476869Y-59337662D01*
X98478074Y-59288365D01*
X98478074Y-59288361D01*
X98478156Y-59285000D01*
X98459852Y-59062361D01*
X98405431Y-58845702D01*
X98316354Y-58640840D01*
X98230168Y-58507617D01*
X98197822Y-58457617D01*
X98197820Y-58457614D01*
X98195014Y-58453277D01*
X98044670Y-58288051D01*
X98040619Y-58284852D01*
X98040615Y-58284848D01*
X97873414Y-58152800D01*
X97873410Y-58152798D01*
X97869359Y-58149598D01*
X97828053Y-58126796D01*
X97778084Y-58076364D01*
X97763312Y-58006921D01*
X97788428Y-57940516D01*
X97815780Y-57913909D01*
X97859603Y-57882650D01*
X97994860Y-57786173D01*
X98012156Y-57768938D01*
X98090602Y-57690765D01*
X98153096Y-57628489D01*
X98212594Y-57545689D01*
X98280435Y-57451277D01*
X98283453Y-57447077D01*
X98301968Y-57409616D01*
X98380136Y-57251453D01*
X98380137Y-57251451D01*
X98382430Y-57246811D01*
X98433737Y-57077939D01*
X98445865Y-57038023D01*
X98445865Y-57038021D01*
X98447370Y-57033069D01*
X98476529Y-56811590D01*
X98476886Y-56796998D01*
X98478074Y-56748365D01*
X98478074Y-56748361D01*
X98478156Y-56745000D01*
X98459852Y-56522361D01*
X98405431Y-56305702D01*
X98316354Y-56100840D01*
X98230168Y-55967617D01*
X98197822Y-55917617D01*
X98197820Y-55917614D01*
X98195014Y-55913277D01*
X98044670Y-55748051D01*
X98040619Y-55744852D01*
X98040615Y-55744848D01*
X97873414Y-55612800D01*
X97873410Y-55612798D01*
X97869359Y-55609598D01*
X97828053Y-55586796D01*
X97778084Y-55536364D01*
X97763312Y-55466921D01*
X97788428Y-55400516D01*
X97815780Y-55373909D01*
X97859603Y-55342650D01*
X97994860Y-55246173D01*
X98012156Y-55228938D01*
X98149435Y-55092137D01*
X98153096Y-55088489D01*
X98212594Y-55005689D01*
X98280435Y-54911277D01*
X98283453Y-54907077D01*
X98301968Y-54869616D01*
X98380136Y-54711453D01*
X98380137Y-54711451D01*
X98382430Y-54706811D01*
X98447370Y-54493069D01*
X98476529Y-54271590D01*
X98476852Y-54258365D01*
X98478074Y-54208365D01*
X98478074Y-54208361D01*
X98478156Y-54205000D01*
X98459852Y-53982361D01*
X98405431Y-53765702D01*
X98316354Y-53560840D01*
X98230168Y-53427617D01*
X98197822Y-53377617D01*
X98197820Y-53377614D01*
X98195014Y-53373277D01*
X98044670Y-53208051D01*
X98040619Y-53204852D01*
X98040615Y-53204848D01*
X97873414Y-53072800D01*
X97873410Y-53072798D01*
X97869359Y-53069598D01*
X97828053Y-53046796D01*
X97778084Y-52996364D01*
X97763312Y-52926921D01*
X97788428Y-52860516D01*
X97815780Y-52833909D01*
X97859603Y-52802650D01*
X97994860Y-52706173D01*
X98012156Y-52688938D01*
X98149435Y-52552137D01*
X98153096Y-52548489D01*
X98212594Y-52465689D01*
X98280435Y-52371277D01*
X98283453Y-52367077D01*
X98301968Y-52329616D01*
X98380136Y-52171453D01*
X98380137Y-52171451D01*
X98382430Y-52166811D01*
X98447370Y-51953069D01*
X98476529Y-51731590D01*
X98476852Y-51718365D01*
X98478074Y-51668365D01*
X98478074Y-51668361D01*
X98478156Y-51665000D01*
X98459852Y-51442361D01*
X98405431Y-51225702D01*
X98316354Y-51020840D01*
X98230168Y-50887617D01*
X98197822Y-50837617D01*
X98197820Y-50837614D01*
X98195014Y-50833277D01*
X98044670Y-50668051D01*
X98040619Y-50664852D01*
X98040615Y-50664848D01*
X97873414Y-50532800D01*
X97873410Y-50532798D01*
X97869359Y-50529598D01*
X97827569Y-50506529D01*
X97777598Y-50456097D01*
X97762826Y-50386654D01*
X97787942Y-50320248D01*
X97815294Y-50293641D01*
X97990328Y-50168792D01*
X97998200Y-50162139D01*
X98149052Y-50011812D01*
X98155730Y-50003965D01*
X98280003Y-49831020D01*
X98285313Y-49822183D01*
X98379670Y-49631267D01*
X98383469Y-49621672D01*
X98445377Y-49417910D01*
X98447555Y-49407837D01*
X98448986Y-49396962D01*
X98446775Y-49382778D01*
X98433617Y-49379000D01*
X95798225Y-49379000D01*
X95784694Y-49382973D01*
X95783257Y-49392966D01*
X95813565Y-49527446D01*
X95816645Y-49537275D01*
X95896770Y-49734603D01*
X95901413Y-49743794D01*
X96012694Y-49925388D01*
X96018777Y-49933699D01*
X96158213Y-50094667D01*
X96165580Y-50101883D01*
X96329434Y-50237916D01*
X96337881Y-50243831D01*
X96406969Y-50284203D01*
X96455693Y-50335842D01*
X96468764Y-50405625D01*
X96442033Y-50471396D01*
X96401584Y-50504752D01*
X96388607Y-50511507D01*
X96384474Y-50514610D01*
X96384471Y-50514612D01*
X96297918Y-50579598D01*
X96209965Y-50645635D01*
X96055629Y-50807138D01*
X96052715Y-50811410D01*
X96052714Y-50811411D01*
X96000730Y-50887617D01*
X95929743Y-50991680D01*
X95835688Y-51194305D01*
X95775989Y-51409570D01*
X95775440Y-51414707D01*
X95759787Y-51561178D01*
X95732659Y-51626788D01*
X95677515Y-51665127D01*
X95717012Y-51683166D01*
X95755396Y-51742892D01*
X95760291Y-51771137D01*
X95765110Y-51854715D01*
X95766247Y-51859761D01*
X95766248Y-51859767D01*
X95786119Y-51947939D01*
X95814222Y-52072639D01*
X95898266Y-52279616D01*
X96014987Y-52470088D01*
X96161250Y-52638938D01*
X96333126Y-52781632D01*
X96403595Y-52822811D01*
X96406445Y-52824476D01*
X96455169Y-52876114D01*
X96468240Y-52945897D01*
X96441509Y-53011669D01*
X96401055Y-53045027D01*
X96388607Y-53051507D01*
X96384474Y-53054610D01*
X96384471Y-53054612D01*
X96297918Y-53119598D01*
X96209965Y-53185635D01*
X96055629Y-53347138D01*
X96052715Y-53351410D01*
X96052714Y-53351411D01*
X96000730Y-53427617D01*
X95929743Y-53531680D01*
X95835688Y-53734305D01*
X95775989Y-53949570D01*
X95775440Y-53954707D01*
X95759787Y-54101178D01*
X95732659Y-54166788D01*
X95677515Y-54205127D01*
X95717012Y-54223166D01*
X95755396Y-54282892D01*
X95760291Y-54311137D01*
X95765110Y-54394715D01*
X95766247Y-54399761D01*
X95766248Y-54399767D01*
X95786119Y-54487939D01*
X95814222Y-54612639D01*
X95898266Y-54819616D01*
X96014987Y-55010088D01*
X96161250Y-55178938D01*
X96333126Y-55321632D01*
X96403595Y-55362811D01*
X96406445Y-55364476D01*
X96455169Y-55416114D01*
X96468240Y-55485897D01*
X96441509Y-55551669D01*
X96401055Y-55585027D01*
X96388607Y-55591507D01*
X96384474Y-55594610D01*
X96384471Y-55594612D01*
X96214100Y-55722530D01*
X96209965Y-55725635D01*
X96055629Y-55887138D01*
X96052715Y-55891410D01*
X96052714Y-55891411D01*
X95990135Y-55983149D01*
X95929743Y-56071680D01*
X95914003Y-56105590D01*
X95841116Y-56262612D01*
X95835688Y-56274305D01*
X95775989Y-56489570D01*
X95775440Y-56494707D01*
X95759787Y-56641178D01*
X95732659Y-56706788D01*
X95677515Y-56745127D01*
X95717012Y-56763166D01*
X95755396Y-56822892D01*
X95760291Y-56851137D01*
X95765110Y-56934715D01*
X95766247Y-56939761D01*
X95766248Y-56939767D01*
X95780612Y-57003502D01*
X95814222Y-57152639D01*
X95898266Y-57359616D01*
X96014987Y-57550088D01*
X96161250Y-57718938D01*
X96333126Y-57861632D01*
X96403595Y-57902811D01*
X96406445Y-57904476D01*
X96455169Y-57956114D01*
X96468240Y-58025897D01*
X96441509Y-58091669D01*
X96401055Y-58125027D01*
X96388607Y-58131507D01*
X96384474Y-58134610D01*
X96384471Y-58134612D01*
X96297918Y-58199598D01*
X96209965Y-58265635D01*
X96055629Y-58427138D01*
X96052715Y-58431410D01*
X96052714Y-58431411D01*
X96000730Y-58507617D01*
X95929743Y-58611680D01*
X95904355Y-58666375D01*
X95838056Y-58809204D01*
X95835688Y-58814305D01*
X95775989Y-59029570D01*
X95775440Y-59034707D01*
X95759787Y-59181178D01*
X95732659Y-59246788D01*
X95677515Y-59285127D01*
X95717012Y-59303166D01*
X95755396Y-59362892D01*
X95760291Y-59391137D01*
X95765110Y-59474715D01*
X95766247Y-59479761D01*
X95766248Y-59479767D01*
X95786119Y-59567939D01*
X95814222Y-59692639D01*
X95898266Y-59899616D01*
X96014987Y-60090088D01*
X96161250Y-60258938D01*
X96333126Y-60401632D01*
X96403595Y-60442811D01*
X96406445Y-60444476D01*
X96455169Y-60496114D01*
X96468240Y-60565897D01*
X96441509Y-60631669D01*
X96401055Y-60665027D01*
X96388607Y-60671507D01*
X96384474Y-60674610D01*
X96384471Y-60674612D01*
X96214100Y-60802530D01*
X96209965Y-60805635D01*
X96055629Y-60967138D01*
X96052715Y-60971410D01*
X96052714Y-60971411D01*
X96003122Y-61044110D01*
X95929743Y-61151680D01*
X95902572Y-61210216D01*
X95862767Y-61295969D01*
X95835688Y-61354305D01*
X95775989Y-61569570D01*
X95775440Y-61574707D01*
X95759787Y-61721178D01*
X95732659Y-61786788D01*
X95677515Y-61825127D01*
X95717012Y-61843166D01*
X95755396Y-61902892D01*
X95760291Y-61931137D01*
X95765110Y-62014715D01*
X95766247Y-62019761D01*
X95766248Y-62019767D01*
X95786119Y-62107939D01*
X95814222Y-62232639D01*
X95852461Y-62326811D01*
X95880651Y-62396234D01*
X95898266Y-62439616D01*
X95928906Y-62489616D01*
X95969652Y-62556107D01*
X96014987Y-62630088D01*
X96161250Y-62798938D01*
X96333126Y-62941632D01*
X96383057Y-62970809D01*
X96406445Y-62984476D01*
X96455169Y-63036114D01*
X96468240Y-63105897D01*
X96441509Y-63171669D01*
X96401055Y-63205027D01*
X96388607Y-63211507D01*
X96384474Y-63214610D01*
X96384471Y-63214612D01*
X96214100Y-63342530D01*
X96209965Y-63345635D01*
X96055629Y-63507138D01*
X96052715Y-63511410D01*
X96052714Y-63511411D01*
X96000730Y-63587617D01*
X95929743Y-63691680D01*
X95914003Y-63725590D01*
X95848865Y-63865918D01*
X95835688Y-63894305D01*
X95775989Y-64109570D01*
X95775440Y-64114707D01*
X95759787Y-64261178D01*
X95732659Y-64326788D01*
X95677515Y-64365127D01*
X95717012Y-64383166D01*
X95755396Y-64442892D01*
X95760291Y-64471137D01*
X95765110Y-64554715D01*
X95766247Y-64559761D01*
X95766248Y-64559767D01*
X95783638Y-64636929D01*
X95814222Y-64772639D01*
X95898266Y-64979616D01*
X95949019Y-65062438D01*
X96003637Y-65151566D01*
X96014987Y-65170088D01*
X96161250Y-65338938D01*
X96333126Y-65481632D01*
X96357639Y-65495956D01*
X96406445Y-65524476D01*
X96455169Y-65576114D01*
X96468240Y-65645897D01*
X96441509Y-65711669D01*
X96401055Y-65745027D01*
X96388607Y-65751507D01*
X96384474Y-65754610D01*
X96384471Y-65754612D01*
X96228125Y-65872000D01*
X96209965Y-65885635D01*
X96171788Y-65925585D01*
X96084430Y-66017000D01*
X96055629Y-66047138D01*
X96052715Y-66051410D01*
X96052714Y-66051411D01*
X95997456Y-66132417D01*
X95929743Y-66231680D01*
X95835688Y-66434305D01*
X95775989Y-66649570D01*
X95775440Y-66654707D01*
X95759787Y-66801178D01*
X95732659Y-66866788D01*
X95677515Y-66905127D01*
X95717012Y-66923166D01*
X95755396Y-66982892D01*
X95760291Y-67011137D01*
X95765110Y-67094715D01*
X95766247Y-67099761D01*
X95766248Y-67099767D01*
X95781617Y-67167961D01*
X95814222Y-67312639D01*
X95851769Y-67405106D01*
X95887296Y-67492599D01*
X95898266Y-67519616D01*
X95937172Y-67583105D01*
X95973974Y-67643160D01*
X96014987Y-67710088D01*
X96161250Y-67878938D01*
X96333126Y-68021632D01*
X96403595Y-68062811D01*
X96406445Y-68064476D01*
X96455169Y-68116114D01*
X96468240Y-68185897D01*
X96441509Y-68251669D01*
X96401055Y-68285027D01*
X96388607Y-68291507D01*
X96384474Y-68294610D01*
X96384471Y-68294612D01*
X96246056Y-68398537D01*
X96209965Y-68425635D01*
X96055629Y-68587138D01*
X96052715Y-68591410D01*
X96052714Y-68591411D01*
X96000730Y-68667617D01*
X95929743Y-68771680D01*
X95914003Y-68805590D01*
X95848719Y-68946233D01*
X95835688Y-68974305D01*
X95775989Y-69189570D01*
X95775440Y-69194707D01*
X95759787Y-69341178D01*
X95732659Y-69406788D01*
X95677515Y-69445127D01*
X95717012Y-69463166D01*
X95755396Y-69522892D01*
X95760291Y-69551137D01*
X95765110Y-69634715D01*
X95766247Y-69639761D01*
X95766248Y-69639767D01*
X95780503Y-69703017D01*
X95814222Y-69852639D01*
X95852461Y-69946811D01*
X95885053Y-70027075D01*
X95898266Y-70059616D01*
X96014987Y-70250088D01*
X96161250Y-70418938D01*
X96333126Y-70561632D01*
X96403595Y-70602811D01*
X96406445Y-70604476D01*
X96455169Y-70656114D01*
X96468240Y-70725897D01*
X96441509Y-70791669D01*
X96401055Y-70825027D01*
X96388607Y-70831507D01*
X96384474Y-70834610D01*
X96384471Y-70834612D01*
X96297918Y-70899598D01*
X96209965Y-70965635D01*
X96055629Y-71127138D01*
X96052715Y-71131410D01*
X96052714Y-71131411D01*
X96000730Y-71207617D01*
X95929743Y-71311680D01*
X95835688Y-71514305D01*
X95775989Y-71729570D01*
X95775440Y-71734707D01*
X95759787Y-71881178D01*
X95732659Y-71946788D01*
X95677515Y-71985127D01*
X95717012Y-72003166D01*
X95755396Y-72062892D01*
X95760291Y-72091137D01*
X95765110Y-72174715D01*
X95766247Y-72179761D01*
X95766248Y-72179767D01*
X95780776Y-72244230D01*
X95814222Y-72392639D01*
X95898266Y-72599616D01*
X95900965Y-72604020D01*
X96011672Y-72784678D01*
X96014987Y-72790088D01*
X96161250Y-72958938D01*
X96333126Y-73101632D01*
X96403595Y-73142811D01*
X96406445Y-73144476D01*
X96455169Y-73196114D01*
X96468240Y-73265897D01*
X96441509Y-73331669D01*
X96401055Y-73365027D01*
X96388607Y-73371507D01*
X96384474Y-73374610D01*
X96384471Y-73374612D01*
X96297918Y-73439598D01*
X96209965Y-73505635D01*
X96055629Y-73667138D01*
X96052715Y-73671410D01*
X96052714Y-73671411D01*
X96000730Y-73747617D01*
X95929743Y-73851680D01*
X95895191Y-73926116D01*
X95860921Y-73999946D01*
X95835688Y-74054305D01*
X95775989Y-74269570D01*
X95775440Y-74274707D01*
X95759787Y-74421178D01*
X95732659Y-74486788D01*
X95677515Y-74525127D01*
X95717012Y-74543166D01*
X95755396Y-74602892D01*
X95760291Y-74631137D01*
X95765110Y-74714715D01*
X95766247Y-74719761D01*
X95766248Y-74719767D01*
X95786119Y-74807939D01*
X95814222Y-74932639D01*
X95898266Y-75139616D01*
X96014987Y-75330088D01*
X96161250Y-75498938D01*
X96333126Y-75641632D01*
X96403595Y-75682811D01*
X96406445Y-75684476D01*
X96455169Y-75736114D01*
X96468240Y-75805897D01*
X96441509Y-75871669D01*
X96401055Y-75905027D01*
X96388607Y-75911507D01*
X96384474Y-75914610D01*
X96384471Y-75914612D01*
X96230059Y-76030548D01*
X96209965Y-76045635D01*
X96174883Y-76082346D01*
X96074740Y-76187140D01*
X96055629Y-76207138D01*
X96052715Y-76211410D01*
X96052714Y-76211411D01*
X95982340Y-76314575D01*
X95929743Y-76391680D01*
X95914003Y-76425590D01*
X95857518Y-76547277D01*
X95835688Y-76594305D01*
X95775989Y-76809570D01*
X95775440Y-76814707D01*
X95759787Y-76961178D01*
X95732659Y-77026788D01*
X95677515Y-77065127D01*
X95717012Y-77083166D01*
X95755396Y-77142892D01*
X95760291Y-77171137D01*
X95765110Y-77254715D01*
X95766247Y-77259761D01*
X95766248Y-77259767D01*
X95771268Y-77282042D01*
X95814222Y-77472639D01*
X95898266Y-77679616D01*
X95900965Y-77684020D01*
X95981490Y-77815425D01*
X96014987Y-77870088D01*
X96161250Y-78038938D01*
X96333126Y-78181632D01*
X96403595Y-78222811D01*
X96406445Y-78224476D01*
X96455169Y-78276114D01*
X96468240Y-78345897D01*
X96441509Y-78411669D01*
X96401055Y-78445027D01*
X96388607Y-78451507D01*
X96384474Y-78454610D01*
X96384471Y-78454612D01*
X96297918Y-78519598D01*
X96209965Y-78585635D01*
X96055629Y-78747138D01*
X96052715Y-78751410D01*
X96052714Y-78751411D01*
X96000730Y-78827617D01*
X95929743Y-78931680D01*
X95835688Y-79134305D01*
X95775989Y-79349570D01*
X95775440Y-79354707D01*
X95759787Y-79501178D01*
X95732659Y-79566788D01*
X95677515Y-79605127D01*
X95717012Y-79623166D01*
X95755396Y-79682892D01*
X95760291Y-79711137D01*
X95765110Y-79794715D01*
X95766247Y-79799761D01*
X95766248Y-79799767D01*
X95776378Y-79844715D01*
X95814222Y-80012639D01*
X95898266Y-80219616D01*
X95900965Y-80224020D01*
X95981490Y-80355425D01*
X96014987Y-80410088D01*
X96161250Y-80578938D01*
X96333126Y-80721632D01*
X96403595Y-80762811D01*
X96406445Y-80764476D01*
X96455169Y-80816114D01*
X96468240Y-80885897D01*
X96441509Y-80951669D01*
X96401055Y-80985027D01*
X96388607Y-80991507D01*
X96384474Y-80994610D01*
X96384471Y-80994612D01*
X96297918Y-81059598D01*
X96209965Y-81125635D01*
X96055629Y-81287138D01*
X96052715Y-81291410D01*
X96052714Y-81291411D01*
X96000730Y-81367617D01*
X95929743Y-81471680D01*
X95835688Y-81674305D01*
X95775989Y-81889570D01*
X95775440Y-81894707D01*
X95759787Y-82041178D01*
X95732659Y-82106788D01*
X95677515Y-82145127D01*
X95717012Y-82163166D01*
X95755396Y-82222892D01*
X95760291Y-82251137D01*
X95765110Y-82334715D01*
X95766247Y-82339761D01*
X95766248Y-82339767D01*
X95776378Y-82384715D01*
X95814222Y-82552639D01*
X95898266Y-82759616D01*
X95900965Y-82764020D01*
X95981490Y-82895425D01*
X96014987Y-82950088D01*
X96161250Y-83118938D01*
X96333126Y-83261632D01*
X96403595Y-83302811D01*
X96406445Y-83304476D01*
X96455169Y-83356114D01*
X96468240Y-83425897D01*
X96441509Y-83491669D01*
X96401055Y-83525027D01*
X96388607Y-83531507D01*
X96384474Y-83534610D01*
X96384471Y-83534612D01*
X96297918Y-83599598D01*
X96209965Y-83665635D01*
X96055629Y-83827138D01*
X96052715Y-83831410D01*
X96052714Y-83831411D01*
X96000730Y-83907617D01*
X95929743Y-84011680D01*
X95835688Y-84214305D01*
X95775989Y-84429570D01*
X95775440Y-84434707D01*
X95759787Y-84581178D01*
X95732659Y-84646788D01*
X95677515Y-84685127D01*
X95717012Y-84703166D01*
X95755396Y-84762892D01*
X95760291Y-84791137D01*
X95765110Y-84874715D01*
X95766247Y-84879761D01*
X95766248Y-84879767D01*
X95776378Y-84924715D01*
X95814222Y-85092639D01*
X95898266Y-85299616D01*
X95900965Y-85304020D01*
X95981490Y-85435425D01*
X96014987Y-85490088D01*
X96161250Y-85658938D01*
X96165230Y-85662242D01*
X96169981Y-85666187D01*
X96209616Y-85725090D01*
X96211113Y-85796071D01*
X96173997Y-85856593D01*
X96133724Y-85881112D01*
X96018295Y-85924385D01*
X95901739Y-86011739D01*
X95814385Y-86128295D01*
X95763255Y-86264684D01*
X95759770Y-86296765D01*
X95759763Y-86296829D01*
X95732521Y-86362391D01*
X95674158Y-86402817D01*
X95603204Y-86405272D01*
X95542186Y-86368977D01*
X95510477Y-86305455D01*
X95508500Y-86283221D01*
X95508500Y-84798390D01*
X95528502Y-84730269D01*
X95582158Y-84683776D01*
X95590954Y-84682511D01*
X95542336Y-84653706D01*
X95510516Y-84590240D01*
X95508500Y-84567789D01*
X95508500Y-82258390D01*
X95528502Y-82190269D01*
X95582158Y-82143776D01*
X95590954Y-82142511D01*
X95542336Y-82113706D01*
X95510516Y-82050240D01*
X95508500Y-82027789D01*
X95508500Y-79718390D01*
X95528502Y-79650269D01*
X95582158Y-79603776D01*
X95590954Y-79602511D01*
X95542336Y-79573706D01*
X95510516Y-79510240D01*
X95508500Y-79487789D01*
X95508500Y-77178390D01*
X95528502Y-77110269D01*
X95582158Y-77063776D01*
X95590954Y-77062511D01*
X95542336Y-77033706D01*
X95510516Y-76970240D01*
X95508500Y-76947789D01*
X95508500Y-74638390D01*
X95528502Y-74570269D01*
X95582158Y-74523776D01*
X95590954Y-74522511D01*
X95542336Y-74493706D01*
X95510516Y-74430240D01*
X95508500Y-74407789D01*
X95508500Y-72098390D01*
X95528502Y-72030269D01*
X95582158Y-71983776D01*
X95590954Y-71982511D01*
X95542336Y-71953706D01*
X95510516Y-71890240D01*
X95508500Y-71867789D01*
X95508500Y-69558390D01*
X95528502Y-69490269D01*
X95582158Y-69443776D01*
X95590954Y-69442511D01*
X95542336Y-69413706D01*
X95510516Y-69350240D01*
X95508500Y-69327789D01*
X95508500Y-67018390D01*
X95528502Y-66950269D01*
X95582158Y-66903776D01*
X95590954Y-66902511D01*
X95542336Y-66873706D01*
X95510516Y-66810240D01*
X95508500Y-66787789D01*
X95508500Y-64478390D01*
X95528502Y-64410269D01*
X95582158Y-64363776D01*
X95590954Y-64362511D01*
X95542336Y-64333706D01*
X95510516Y-64270240D01*
X95508500Y-64247789D01*
X95508500Y-61938390D01*
X95528502Y-61870269D01*
X95582158Y-61823776D01*
X95590954Y-61822511D01*
X95542336Y-61793706D01*
X95510516Y-61730240D01*
X95508500Y-61707789D01*
X95508500Y-59398390D01*
X95528502Y-59330269D01*
X95582158Y-59283776D01*
X95590954Y-59282511D01*
X95542336Y-59253706D01*
X95510516Y-59190240D01*
X95508500Y-59167789D01*
X95508500Y-56858390D01*
X95528502Y-56790269D01*
X95582158Y-56743776D01*
X95590954Y-56742511D01*
X95542336Y-56713706D01*
X95510516Y-56650240D01*
X95508500Y-56627789D01*
X95508500Y-54318390D01*
X95528502Y-54250269D01*
X95582158Y-54203776D01*
X95590954Y-54202511D01*
X95542336Y-54173706D01*
X95510516Y-54110240D01*
X95508500Y-54087789D01*
X95508500Y-51778390D01*
X95528502Y-51710269D01*
X95582158Y-51663776D01*
X95590954Y-51662511D01*
X95542336Y-51633706D01*
X95510516Y-51570240D01*
X95508500Y-51547789D01*
X95508500Y-46698390D01*
X95528502Y-46630269D01*
X95582158Y-46583776D01*
X95590954Y-46582511D01*
X95542336Y-46553706D01*
X95510516Y-46490240D01*
X95508500Y-46467789D01*
X95508500Y-44158390D01*
X95528502Y-44090269D01*
X95582158Y-44043776D01*
X95590954Y-44042511D01*
X95542336Y-44013706D01*
X95510516Y-43950240D01*
X95508500Y-43927789D01*
X95508500Y-42634500D01*
X95528502Y-42566379D01*
X95582158Y-42519886D01*
X95634500Y-42508500D01*
X96651915Y-42508500D01*
X96720036Y-42528502D01*
G37*
%TD.AperFunction*%
%TA.AperFunction,Conductor*%
G36*
X113050352Y-70767267D02*
G01*
X115818735Y-73535650D01*
X115852761Y-73597962D01*
X115847696Y-73668777D01*
X115822319Y-73709267D01*
X115822458Y-73709379D01*
X115821533Y-73710522D01*
X115820734Y-73711796D01*
X115815629Y-73717138D01*
X115689743Y-73901680D01*
X115674003Y-73935590D01*
X115602822Y-74088937D01*
X115595688Y-74104305D01*
X115535989Y-74319570D01*
X115512251Y-74541695D01*
X115512548Y-74546848D01*
X115512548Y-74546851D01*
X115517826Y-74638390D01*
X115525110Y-74764715D01*
X115526247Y-74769761D01*
X115526248Y-74769767D01*
X115546119Y-74857939D01*
X115574222Y-74982639D01*
X115612461Y-75076811D01*
X115639752Y-75144020D01*
X115658266Y-75189616D01*
X115774987Y-75380088D01*
X115921250Y-75548938D01*
X116060261Y-75664347D01*
X116084507Y-75684476D01*
X116093126Y-75691632D01*
X116142555Y-75720516D01*
X116166445Y-75734476D01*
X116215169Y-75786114D01*
X116228240Y-75855897D01*
X116201509Y-75921669D01*
X116161055Y-75955027D01*
X116148607Y-75961507D01*
X116144474Y-75964610D01*
X116144471Y-75964612D01*
X115974100Y-76092530D01*
X115969965Y-76095635D01*
X115966393Y-76099373D01*
X115842082Y-76229457D01*
X115815629Y-76257138D01*
X115689743Y-76441680D01*
X115595688Y-76644305D01*
X115594305Y-76649294D01*
X115594304Y-76649295D01*
X115585822Y-76679880D01*
X115548342Y-76740178D01*
X115484213Y-76770640D01*
X115413795Y-76761596D01*
X115369180Y-76728719D01*
X115366823Y-76725998D01*
X115330199Y-76683732D01*
X115318047Y-76673202D01*
X115226550Y-76593919D01*
X115226547Y-76593917D01*
X115219739Y-76588018D01*
X115086790Y-76527302D01*
X115055938Y-76518243D01*
X115022992Y-76508569D01*
X115022988Y-76508568D01*
X115018669Y-76507300D01*
X115014220Y-76506660D01*
X115014214Y-76506659D01*
X114878447Y-76487139D01*
X114878442Y-76487139D01*
X114874000Y-76486500D01*
X113034500Y-76486500D01*
X112957659Y-76494761D01*
X112887792Y-76482155D01*
X112837047Y-76435785D01*
X112754573Y-76302508D01*
X112745540Y-76291110D01*
X112632871Y-76178637D01*
X112621460Y-76169625D01*
X112485937Y-76086088D01*
X112472759Y-76079944D01*
X112321234Y-76029685D01*
X112307868Y-76026819D01*
X112215230Y-76017328D01*
X112208815Y-76017000D01*
X112184615Y-76017000D01*
X112169376Y-76021475D01*
X112168171Y-76022865D01*
X112166500Y-76030548D01*
X112166500Y-77128000D01*
X112146498Y-77196121D01*
X112092842Y-77242614D01*
X112040500Y-77254000D01*
X111784500Y-77254000D01*
X111716379Y-77233998D01*
X111669886Y-77180342D01*
X111658500Y-77128000D01*
X111658500Y-76035115D01*
X111654025Y-76019876D01*
X111652635Y-76018671D01*
X111644952Y-76017000D01*
X111616234Y-76017000D01*
X111609718Y-76017337D01*
X111515868Y-76027075D01*
X111502472Y-76029968D01*
X111351047Y-76080488D01*
X111337885Y-76086653D01*
X111202508Y-76170426D01*
X111191110Y-76179460D01*
X111089607Y-76281140D01*
X111027324Y-76315219D01*
X110956504Y-76310216D01*
X110911416Y-76281295D01*
X110911062Y-76280941D01*
X110803003Y-76173071D01*
X110719940Y-76121870D01*
X110661150Y-76085631D01*
X110661148Y-76085630D01*
X110654920Y-76081791D01*
X110489809Y-76027026D01*
X110482973Y-76026326D01*
X110482970Y-76026325D01*
X110431474Y-76021049D01*
X110387072Y-76016500D01*
X110016739Y-76016500D01*
X109948618Y-75996498D01*
X109927644Y-75979595D01*
X109790618Y-75842569D01*
X109756592Y-75780257D01*
X109761657Y-75709442D01*
X109790539Y-75664457D01*
X109821757Y-75633184D01*
X109826929Y-75628003D01*
X109906486Y-75498938D01*
X109914369Y-75486150D01*
X109914370Y-75486148D01*
X109918209Y-75479920D01*
X109972974Y-75314809D01*
X109983500Y-75212072D01*
X109983500Y-74612928D01*
X109982459Y-74602892D01*
X109973419Y-74515765D01*
X109973418Y-74515761D01*
X109972707Y-74508907D01*
X109917654Y-74343893D01*
X109826116Y-74195969D01*
X109820934Y-74190796D01*
X109719214Y-74089253D01*
X109685135Y-74026970D01*
X109690138Y-73956150D01*
X109719059Y-73911063D01*
X109821754Y-73808188D01*
X109821758Y-73808183D01*
X109826929Y-73803003D01*
X109863745Y-73743277D01*
X109914369Y-73661150D01*
X109914370Y-73661148D01*
X109918209Y-73654920D01*
X109972974Y-73489809D01*
X109983500Y-73387072D01*
X109983500Y-72787928D01*
X109978224Y-72737077D01*
X109973419Y-72690765D01*
X109973418Y-72690761D01*
X109972707Y-72683907D01*
X109917654Y-72518893D01*
X109826116Y-72370969D01*
X109783095Y-72328023D01*
X109708184Y-72253242D01*
X109708179Y-72253238D01*
X109703003Y-72248071D01*
X109693386Y-72242143D01*
X109691559Y-72240114D01*
X109691027Y-72239693D01*
X109691099Y-72239602D01*
X109645892Y-72189372D01*
X109633500Y-72134882D01*
X109633500Y-72107247D01*
X109653502Y-72039126D01*
X109707158Y-71992633D01*
X109772342Y-71981903D01*
X109787928Y-71983500D01*
X110487072Y-71983500D01*
X110490318Y-71983163D01*
X110490322Y-71983163D01*
X110584235Y-71973419D01*
X110584239Y-71973418D01*
X110591093Y-71972707D01*
X110597629Y-71970526D01*
X110597631Y-71970526D01*
X110730395Y-71926232D01*
X110756107Y-71917654D01*
X110904031Y-71826116D01*
X110911274Y-71818861D01*
X110913038Y-71817895D01*
X110914941Y-71816387D01*
X110915199Y-71816713D01*
X110973554Y-71784781D01*
X111044375Y-71789782D01*
X111089470Y-71818708D01*
X111092131Y-71821364D01*
X111103540Y-71830375D01*
X111239063Y-71913912D01*
X111252241Y-71920056D01*
X111403766Y-71970315D01*
X111417132Y-71973181D01*
X111509770Y-71982672D01*
X111516185Y-71983000D01*
X111590385Y-71983000D01*
X111605624Y-71978525D01*
X111606829Y-71977135D01*
X111608500Y-71969452D01*
X111608500Y-71964885D01*
X112116500Y-71964885D01*
X112120975Y-71980124D01*
X112122365Y-71981329D01*
X112130048Y-71983000D01*
X112208766Y-71983000D01*
X112215282Y-71982663D01*
X112309132Y-71972925D01*
X112322528Y-71970032D01*
X112473953Y-71919512D01*
X112487115Y-71913347D01*
X112622492Y-71829574D01*
X112633890Y-71820540D01*
X112746363Y-71707871D01*
X112755375Y-71696460D01*
X112838912Y-71560937D01*
X112845056Y-71547759D01*
X112895315Y-71396234D01*
X112898181Y-71382868D01*
X112907672Y-71290230D01*
X112908000Y-71283815D01*
X112908000Y-71272115D01*
X112903525Y-71256876D01*
X112902135Y-71255671D01*
X112894452Y-71254000D01*
X112134615Y-71254000D01*
X112119376Y-71258475D01*
X112118171Y-71259865D01*
X112116500Y-71267548D01*
X112116500Y-71964885D01*
X111608500Y-71964885D01*
X111608500Y-70872000D01*
X111628502Y-70803879D01*
X111682158Y-70757386D01*
X111734500Y-70746000D01*
X112889883Y-70746000D01*
X112925758Y-70735466D01*
X112996755Y-70735466D01*
X113050352Y-70767267D01*
G37*
%TD.AperFunction*%
%TA.AperFunction,Conductor*%
G36*
X107044024Y-71790137D02*
G01*
X107089110Y-71819056D01*
X107091421Y-71821363D01*
X107096997Y-71826929D01*
X107245080Y-71918209D01*
X107410191Y-71972974D01*
X107417027Y-71973674D01*
X107417030Y-71973675D01*
X107464370Y-71978525D01*
X107512928Y-71983500D01*
X108212072Y-71983500D01*
X108215330Y-71983162D01*
X108227499Y-71981900D01*
X108297320Y-71994766D01*
X108349101Y-72043338D01*
X108366500Y-72107227D01*
X108366500Y-72135036D01*
X108346498Y-72203157D01*
X108306804Y-72242179D01*
X108295969Y-72248884D01*
X108290796Y-72254066D01*
X108178242Y-72366816D01*
X108178238Y-72366821D01*
X108173071Y-72371997D01*
X108169231Y-72378227D01*
X108169230Y-72378228D01*
X108086364Y-72512662D01*
X108081791Y-72520080D01*
X108027026Y-72685191D01*
X108016500Y-72787928D01*
X108016500Y-73387072D01*
X108027293Y-73491093D01*
X108029474Y-73497629D01*
X108029474Y-73497631D01*
X108062947Y-73597962D01*
X108082346Y-73656107D01*
X108173884Y-73804031D01*
X108179066Y-73809204D01*
X108280786Y-73910747D01*
X108314865Y-73973030D01*
X108309862Y-74043850D01*
X108280941Y-74088937D01*
X108178246Y-74191812D01*
X108178242Y-74191817D01*
X108173071Y-74196997D01*
X108169231Y-74203227D01*
X108169230Y-74203228D01*
X108086364Y-74337662D01*
X108081791Y-74345080D01*
X108027026Y-74510191D01*
X108026326Y-74517027D01*
X108026325Y-74517030D01*
X108023270Y-74546851D01*
X108016500Y-74612928D01*
X108016500Y-75212072D01*
X108016837Y-75215318D01*
X108016837Y-75215322D01*
X108023681Y-75281277D01*
X108027293Y-75316093D01*
X108029474Y-75322629D01*
X108029474Y-75322631D01*
X108058119Y-75408489D01*
X108082346Y-75481107D01*
X108173884Y-75629031D01*
X108179066Y-75634204D01*
X108291816Y-75746758D01*
X108291821Y-75746762D01*
X108296997Y-75751929D01*
X108303229Y-75755771D01*
X108303231Y-75755772D01*
X108329647Y-75772055D01*
X108377141Y-75824826D01*
X108388454Y-75895760D01*
X108386250Y-75912500D01*
X108391500Y-75952380D01*
X108391500Y-75952385D01*
X108395083Y-75979598D01*
X108407162Y-76071351D01*
X108468476Y-76219376D01*
X108517909Y-76283798D01*
X108543509Y-76350015D01*
X108529245Y-76419564D01*
X108479644Y-76470361D01*
X108417946Y-76486500D01*
X107626000Y-76486500D01*
X107622654Y-76486860D01*
X107622649Y-76486860D01*
X107520215Y-76497872D01*
X107520208Y-76497873D01*
X107516851Y-76498234D01*
X107513551Y-76498952D01*
X107513550Y-76498952D01*
X107467790Y-76508906D01*
X107467785Y-76508907D01*
X107464509Y-76509620D01*
X107360343Y-76544290D01*
X107237388Y-76623308D01*
X107233993Y-76626250D01*
X107233990Y-76626252D01*
X107218574Y-76639610D01*
X107183732Y-76669801D01*
X107101778Y-76764382D01*
X107092727Y-76774827D01*
X107033001Y-76813211D01*
X106962004Y-76813211D01*
X106902278Y-76774828D01*
X106891504Y-76760436D01*
X106891031Y-76759701D01*
X106876692Y-76737388D01*
X106869181Y-76728719D01*
X106833139Y-76687125D01*
X106830199Y-76683732D01*
X106818047Y-76673202D01*
X106726550Y-76593919D01*
X106726547Y-76593917D01*
X106719739Y-76588018D01*
X106586790Y-76527302D01*
X106555938Y-76518243D01*
X106522992Y-76508569D01*
X106522988Y-76508568D01*
X106518669Y-76507300D01*
X106514220Y-76506660D01*
X106514214Y-76506659D01*
X106378447Y-76487139D01*
X106378442Y-76487139D01*
X106374000Y-76486500D01*
X105582054Y-76486500D01*
X105513933Y-76466498D01*
X105467440Y-76412842D01*
X105457336Y-76342568D01*
X105482091Y-76283798D01*
X105531524Y-76219376D01*
X105573494Y-76118051D01*
X105584065Y-76092530D01*
X105589678Y-76078980D01*
X105589679Y-76078977D01*
X105592838Y-76071350D01*
X105608500Y-75952385D01*
X105608500Y-75952378D01*
X105613750Y-75912500D01*
X105611534Y-75895670D01*
X105622472Y-75825524D01*
X105670154Y-75772080D01*
X105697808Y-75754968D01*
X105697814Y-75754963D01*
X105704031Y-75751116D01*
X105734578Y-75720516D01*
X105821758Y-75633184D01*
X105821762Y-75633179D01*
X105826929Y-75628003D01*
X105906486Y-75498938D01*
X105914369Y-75486150D01*
X105914370Y-75486148D01*
X105918209Y-75479920D01*
X105972974Y-75314809D01*
X105983500Y-75212072D01*
X105983500Y-74612928D01*
X105982459Y-74602892D01*
X105973419Y-74515765D01*
X105973418Y-74515761D01*
X105972707Y-74508907D01*
X105917654Y-74343893D01*
X105826116Y-74195969D01*
X105820934Y-74190796D01*
X105719214Y-74089253D01*
X105685135Y-74026970D01*
X105690138Y-73956150D01*
X105719059Y-73911063D01*
X105821754Y-73808188D01*
X105821758Y-73808183D01*
X105826929Y-73803003D01*
X105863745Y-73743277D01*
X105914369Y-73661150D01*
X105914370Y-73661148D01*
X105918209Y-73654920D01*
X105972974Y-73489809D01*
X105983500Y-73387072D01*
X105983500Y-72787928D01*
X105978224Y-72737077D01*
X105973419Y-72690765D01*
X105973418Y-72690761D01*
X105972707Y-72683907D01*
X105917654Y-72518893D01*
X105826116Y-72370969D01*
X105783095Y-72328023D01*
X105708184Y-72253242D01*
X105708179Y-72253238D01*
X105703003Y-72248071D01*
X105693386Y-72242143D01*
X105691559Y-72240114D01*
X105691027Y-72239693D01*
X105691099Y-72239602D01*
X105645892Y-72189372D01*
X105633500Y-72134882D01*
X105633500Y-72107247D01*
X105653502Y-72039126D01*
X105707158Y-71992633D01*
X105772342Y-71981903D01*
X105787928Y-71983500D01*
X106487072Y-71983500D01*
X106490318Y-71983163D01*
X106490322Y-71983163D01*
X106584235Y-71973419D01*
X106584239Y-71973418D01*
X106591093Y-71972707D01*
X106597629Y-71970526D01*
X106597631Y-71970526D01*
X106730395Y-71926232D01*
X106756107Y-71917654D01*
X106836688Y-71867789D01*
X106897805Y-71829969D01*
X106897806Y-71829968D01*
X106904031Y-71826116D01*
X106910923Y-71819212D01*
X106912387Y-71818411D01*
X106914938Y-71816389D01*
X106915284Y-71816826D01*
X106973204Y-71785134D01*
X107044024Y-71790137D01*
G37*
%TD.AperFunction*%
%TA.AperFunction,Conductor*%
G36*
X107050425Y-56421191D02*
G01*
X107163210Y-56472698D01*
X107186964Y-56479673D01*
X107227008Y-56491431D01*
X107227012Y-56491432D01*
X107231331Y-56492700D01*
X107235780Y-56493340D01*
X107235786Y-56493341D01*
X107371553Y-56512861D01*
X107371558Y-56512861D01*
X107376000Y-56513500D01*
X108417946Y-56513500D01*
X108486067Y-56533502D01*
X108532560Y-56587158D01*
X108542664Y-56657432D01*
X108517909Y-56716202D01*
X108468476Y-56780624D01*
X108407162Y-56928649D01*
X108406084Y-56936836D01*
X108406084Y-56936837D01*
X108404609Y-56948042D01*
X108395082Y-57020405D01*
X108391500Y-57047615D01*
X108391500Y-57047620D01*
X108386250Y-57087500D01*
X108388466Y-57104330D01*
X108377528Y-57174476D01*
X108329846Y-57227920D01*
X108302192Y-57245032D01*
X108302186Y-57245037D01*
X108295969Y-57248884D01*
X108290800Y-57254062D01*
X108178242Y-57366816D01*
X108178238Y-57366821D01*
X108173071Y-57371997D01*
X108169231Y-57378227D01*
X108169230Y-57378228D01*
X108086364Y-57512662D01*
X108081791Y-57520080D01*
X108027026Y-57685191D01*
X108016500Y-57787928D01*
X108016500Y-58387072D01*
X108016837Y-58390318D01*
X108016837Y-58390322D01*
X108023820Y-58457617D01*
X108027293Y-58491093D01*
X108082346Y-58656107D01*
X108173884Y-58804031D01*
X108179066Y-58809204D01*
X108280786Y-58910747D01*
X108314865Y-58973030D01*
X108309862Y-59043850D01*
X108280941Y-59088937D01*
X108178246Y-59191812D01*
X108178242Y-59191817D01*
X108173071Y-59196997D01*
X108169231Y-59203227D01*
X108169230Y-59203228D01*
X108086364Y-59337662D01*
X108081791Y-59345080D01*
X108027026Y-59510191D01*
X108016500Y-59612928D01*
X108016500Y-60212072D01*
X108016837Y-60215318D01*
X108016837Y-60215322D01*
X108026551Y-60308938D01*
X108027293Y-60316093D01*
X108029474Y-60322629D01*
X108029474Y-60322631D01*
X108047337Y-60376173D01*
X108082346Y-60481107D01*
X108173884Y-60629031D01*
X108179066Y-60634204D01*
X108291816Y-60746758D01*
X108291821Y-60746762D01*
X108296997Y-60751929D01*
X108303227Y-60755769D01*
X108303228Y-60755770D01*
X108306614Y-60757857D01*
X108308441Y-60759886D01*
X108308973Y-60760307D01*
X108308901Y-60760398D01*
X108354108Y-60810628D01*
X108366500Y-60865118D01*
X108366500Y-60892753D01*
X108346498Y-60960874D01*
X108292842Y-61007367D01*
X108227658Y-61018097D01*
X108212072Y-61016500D01*
X107512928Y-61016500D01*
X107509682Y-61016837D01*
X107509678Y-61016837D01*
X107415765Y-61026581D01*
X107415761Y-61026582D01*
X107408907Y-61027293D01*
X107402371Y-61029474D01*
X107402369Y-61029474D01*
X107269605Y-61073768D01*
X107243893Y-61082346D01*
X107237661Y-61086202D01*
X107237662Y-61086202D01*
X107103490Y-61169230D01*
X107095969Y-61173884D01*
X107089077Y-61180788D01*
X107087613Y-61181589D01*
X107085062Y-61183611D01*
X107084716Y-61183174D01*
X107026796Y-61214866D01*
X106955976Y-61209863D01*
X106910890Y-61180944D01*
X106908184Y-61178243D01*
X106903003Y-61173071D01*
X106754920Y-61081791D01*
X106589809Y-61027026D01*
X106582973Y-61026326D01*
X106582970Y-61026325D01*
X106531474Y-61021049D01*
X106487072Y-61016500D01*
X105787928Y-61016500D01*
X105784671Y-61016838D01*
X105784670Y-61016838D01*
X105772501Y-61018100D01*
X105702680Y-61005234D01*
X105650899Y-60956662D01*
X105633500Y-60892773D01*
X105633500Y-60864964D01*
X105653502Y-60796843D01*
X105693196Y-60757821D01*
X105704031Y-60751116D01*
X105709204Y-60745934D01*
X105821758Y-60633184D01*
X105821762Y-60633179D01*
X105826929Y-60628003D01*
X105832875Y-60618357D01*
X105914369Y-60486150D01*
X105914370Y-60486148D01*
X105918209Y-60479920D01*
X105972974Y-60314809D01*
X105983500Y-60212072D01*
X105983500Y-59612928D01*
X105983163Y-59609678D01*
X105973419Y-59515765D01*
X105973418Y-59515761D01*
X105972707Y-59508907D01*
X105917654Y-59343893D01*
X105826116Y-59195969D01*
X105742362Y-59112361D01*
X105719214Y-59089253D01*
X105685135Y-59026970D01*
X105690138Y-58956150D01*
X105719059Y-58911063D01*
X105821754Y-58808188D01*
X105821758Y-58808183D01*
X105826929Y-58803003D01*
X105911148Y-58666375D01*
X105914369Y-58661150D01*
X105914370Y-58661148D01*
X105918209Y-58654920D01*
X105972974Y-58489809D01*
X105973835Y-58481411D01*
X105983172Y-58390271D01*
X105983500Y-58387072D01*
X105983500Y-57787928D01*
X105981530Y-57768938D01*
X105973419Y-57690765D01*
X105973418Y-57690761D01*
X105972707Y-57683907D01*
X105917654Y-57518893D01*
X105826116Y-57370969D01*
X105809948Y-57354829D01*
X105708184Y-57253242D01*
X105708179Y-57253238D01*
X105703003Y-57248071D01*
X105692923Y-57241857D01*
X105670353Y-57227945D01*
X105622859Y-57175174D01*
X105611546Y-57104239D01*
X105613750Y-57087500D01*
X105608500Y-57047622D01*
X105608500Y-57047615D01*
X105592838Y-56928650D01*
X105544350Y-56811590D01*
X105537614Y-56795327D01*
X105534683Y-56788250D01*
X105534682Y-56788248D01*
X105531524Y-56780624D01*
X105482091Y-56716202D01*
X105456491Y-56649985D01*
X105470755Y-56580436D01*
X105520356Y-56529639D01*
X105582054Y-56513500D01*
X106624000Y-56513500D01*
X106627346Y-56513140D01*
X106627351Y-56513140D01*
X106729785Y-56502128D01*
X106729792Y-56502127D01*
X106733149Y-56501766D01*
X106736450Y-56501048D01*
X106782210Y-56491094D01*
X106782215Y-56491093D01*
X106785491Y-56490380D01*
X106889657Y-56455710D01*
X106929965Y-56429806D01*
X106998086Y-56409805D01*
X107050425Y-56421191D01*
G37*
%TD.AperFunction*%
%TD*%
M02*
