M48
; DRILL file {KiCad (6.0.6)} date tis 28 jun 2022 18:53:51
; FORMAT={-:-/ absolute / inch / decimal}
; #@! TF.CreationDate,2022-06-28T18:53:51+02:00
; #@! TF.GenerationSoftware,Kicad,Pcbnew,(6.0.6)
; #@! TF.FileFunction,Plated,1,2,PTH
FMAT,2
INCH
; #@! TA.AperFunction,Plated,PTH,ViaDrill
T1C0.0118
; #@! TA.AperFunction,Plated,PTH,ComponentDrill
T2C0.0394
; #@! TA.AperFunction,Plated,PTH,ComponentDrill
T3C0.0512
%
G90
G05
T1
X3.9665Y-2.2047
X3.9764Y-1.7717
X3.9764Y-1.8504
X3.9764Y-1.9291
X3.9764Y-2.0079
X3.9764Y-2.0866
X3.9764Y-2.2835
X3.9764Y-2.3622
X3.9764Y-2.7165
X3.9764Y-2.874
X3.9764Y-2.9528
X3.9764Y-3.0315
X3.9764Y-3.1102
X3.9764Y-3.189
X3.9764Y-3.2677
X3.9764Y-3.3465
X3.9764Y-3.4252
X4.0551Y-1.7717
X4.0551Y-2.0079
X4.0551Y-2.0866
X4.0551Y-2.2835
X4.0551Y-2.3622
X4.0551Y-2.5197
X4.0551Y-2.5984
X4.0551Y-2.7165
X4.0551Y-2.874
X4.0551Y-2.9528
X4.0551Y-3.1102
X4.0551Y-3.189
X4.0551Y-3.4252
X4.1339Y-1.7717
X4.1339Y-2.0079
X4.1339Y-2.0866
X4.1339Y-2.7657
X4.1339Y-3.1102
X4.1339Y-3.189
X4.1339Y-3.4252
X4.2126Y-2.2835
X4.2126Y-2.3622
X4.2126Y-2.874
X4.2126Y-2.9528
X4.2815Y-2.5197
X4.2913Y-1.7717
X4.2913Y-2.0079
X4.2913Y-2.0866
X4.2913Y-2.7657
X4.2913Y-3.1102
X4.2913Y-3.189
X4.2913Y-3.4252
X4.311Y-2.5394
X4.3701Y-1.7717
X4.3701Y-2.0079
X4.3701Y-2.0866
X4.3701Y-2.2835
X4.3701Y-2.3622
X4.3701Y-2.5197
X4.3701Y-2.5984
X4.3701Y-2.874
X4.3701Y-2.9528
X4.3701Y-3.1102
X4.3701Y-3.189
X4.3701Y-3.4252
X4.3996Y-2.6575
X4.439Y-2.6673
X4.4488Y-1.7717
X4.4488Y-1.8504
X4.4488Y-1.9291
X4.4488Y-2.0079
X4.4488Y-2.0866
X4.4488Y-2.2835
X4.4488Y-2.3622
X4.4488Y-2.5197
X4.4488Y-2.5984
X4.4488Y-2.874
X4.4488Y-2.9528
X4.4488Y-3.1102
X4.4488Y-3.189
X4.4488Y-3.2677
X4.4488Y-3.3465
X4.4488Y-3.4252
X4.5276Y-2.2835
X4.5276Y-2.3622
X4.5276Y-2.5197
X4.5276Y-2.5984
X4.5276Y-2.874
X4.5276Y-2.9528
T2
X3.8234Y-1.7341
X3.8234Y-1.8341
X3.8234Y-1.9341
X3.8234Y-2.0341
X3.8234Y-2.1341
X3.8234Y-2.2341
X3.8234Y-2.3341
X3.8234Y-2.4341
X3.8234Y-2.5341
X3.8234Y-2.6341
X3.8234Y-2.7341
X3.8234Y-2.8341
X3.8234Y-2.9341
X3.8234Y-3.0341
X3.8234Y-3.1341
X3.8234Y-3.2341
X3.8234Y-3.3341
X3.8234Y-3.4341
X4.6014Y-1.736
X4.6014Y-1.836
X4.6014Y-1.936
X4.6014Y-2.036
X4.6014Y-2.136
X4.6014Y-2.236
X4.6014Y-2.336
X4.6014Y-2.436
X4.6014Y-2.536
X4.6014Y-2.636
X4.6014Y-2.736
X4.6014Y-2.836
X4.6014Y-2.936
X4.6014Y-3.036
X4.6014Y-3.136
X4.6014Y-3.236
X4.6014Y-3.336
X4.6014Y-3.436
T3
X4.1142Y-1.8778
X4.1142Y-3.3191
X4.311Y-1.8778
X4.311Y-3.3191
T0
M30
