%TF.GenerationSoftware,KiCad,Pcbnew,(6.0.6)*%
%TF.CreationDate,2022-06-28T18:53:51+02:00*%
%TF.ProjectId,thermocouples,74686572-6d6f-4636-9f75-706c65732e6b,rev?*%
%TF.SameCoordinates,Original*%
%TF.FileFunction,Paste,Top*%
%TF.FilePolarity,Positive*%
%FSLAX46Y46*%
G04 Gerber Fmt 4.6, Leading zero omitted, Abs format (unit mm)*
G04 Created by KiCad (PCBNEW (6.0.6)) date 2022-06-28 18:53:51*
%MOMM*%
%LPD*%
G01*
G04 APERTURE LIST*
G04 Aperture macros list*
%AMRoundRect*
0 Rectangle with rounded corners*
0 $1 Rounding radius*
0 $2 $3 $4 $5 $6 $7 $8 $9 X,Y pos of 4 corners*
0 Add a 4 corners polygon primitive as box body*
4,1,4,$2,$3,$4,$5,$6,$7,$8,$9,$2,$3,0*
0 Add four circle primitives for the rounded corners*
1,1,$1+$1,$2,$3*
1,1,$1+$1,$4,$5*
1,1,$1+$1,$6,$7*
1,1,$1+$1,$8,$9*
0 Add four rect primitives between the rounded corners*
20,1,$1+$1,$2,$3,$4,$5,0*
20,1,$1+$1,$4,$5,$6,$7,0*
20,1,$1+$1,$6,$7,$8,$9,0*
20,1,$1+$1,$8,$9,$2,$3,0*%
G04 Aperture macros list end*
%ADD10RoundRect,0.237500X0.300000X0.237500X-0.300000X0.237500X-0.300000X-0.237500X0.300000X-0.237500X0*%
%ADD11RoundRect,0.237500X0.237500X-0.250000X0.237500X0.250000X-0.237500X0.250000X-0.237500X-0.250000X0*%
%ADD12RoundRect,0.182500X0.182500X0.182500X-0.182500X0.182500X-0.182500X-0.182500X0.182500X-0.182500X0*%
%ADD13RoundRect,0.087500X0.325000X0.087500X-0.325000X0.087500X-0.325000X-0.087500X0.325000X-0.087500X0*%
%ADD14RoundRect,0.087500X0.087500X0.325000X-0.087500X0.325000X-0.087500X-0.325000X0.087500X-0.325000X0*%
%ADD15RoundRect,0.237500X-0.237500X0.250000X-0.237500X-0.250000X0.237500X-0.250000X0.237500X0.250000X0*%
%ADD16RoundRect,0.237500X-0.250000X-0.237500X0.250000X-0.237500X0.250000X0.237500X-0.250000X0.237500X0*%
%ADD17RoundRect,0.237500X-0.300000X-0.237500X0.300000X-0.237500X0.300000X0.237500X-0.300000X0.237500X0*%
%ADD18RoundRect,0.237500X0.250000X0.237500X-0.250000X0.237500X-0.250000X-0.237500X0.250000X-0.237500X0*%
G04 APERTURE END LIST*
D10*
%TO.C,C8*%
X102862500Y-67000000D03*
X101137500Y-67000000D03*
%TD*%
D11*
%TO.C,R8*%
X105000000Y-74912500D03*
X105000000Y-73087500D03*
%TD*%
%TO.C,R7*%
X109000000Y-74912500D03*
X109000000Y-73087500D03*
%TD*%
D12*
%TO.C,U1*%
X106100000Y-66000000D03*
X107000000Y-65100000D03*
X107900000Y-66000000D03*
X106100000Y-66900000D03*
X107000000Y-66900000D03*
X107900000Y-66900000D03*
X107000000Y-66000000D03*
X107900000Y-65100000D03*
X106100000Y-65100000D03*
D13*
X108962500Y-66975000D03*
X108962500Y-66325000D03*
X108962500Y-65675000D03*
X108962500Y-65025000D03*
D14*
X107975000Y-64037500D03*
X107325000Y-64037500D03*
X106675000Y-64037500D03*
X106025000Y-64037500D03*
D13*
X105037500Y-65025000D03*
X105037500Y-65675000D03*
X105037500Y-66325000D03*
X105037500Y-66975000D03*
D14*
X106025000Y-67962500D03*
X106675000Y-67962500D03*
X107325000Y-67962500D03*
X107975000Y-67962500D03*
%TD*%
D15*
%TO.C,R6*%
X109000000Y-58087500D03*
X109000000Y-59912500D03*
%TD*%
D16*
%TO.C,R2*%
X110087500Y-56000000D03*
X111912500Y-56000000D03*
%TD*%
D17*
%TO.C,C1*%
X102137500Y-62000000D03*
X103862500Y-62000000D03*
%TD*%
D18*
%TO.C,R3*%
X111912500Y-77000000D03*
X110087500Y-77000000D03*
%TD*%
D10*
%TO.C,C6*%
X103862500Y-71000000D03*
X102137500Y-71000000D03*
%TD*%
%TO.C,C5*%
X107862500Y-71000000D03*
X106137500Y-71000000D03*
%TD*%
D17*
%TO.C,C2*%
X106137500Y-62000000D03*
X107862500Y-62000000D03*
%TD*%
D18*
%TO.C,R4*%
X103912500Y-77000000D03*
X102087500Y-77000000D03*
%TD*%
D17*
%TO.C,C3*%
X110137500Y-62000000D03*
X111862500Y-62000000D03*
%TD*%
D10*
%TO.C,C7*%
X102862500Y-65000000D03*
X101137500Y-65000000D03*
%TD*%
D15*
%TO.C,R5*%
X105000000Y-58087500D03*
X105000000Y-59912500D03*
%TD*%
D10*
%TO.C,C4*%
X111862500Y-71000000D03*
X110137500Y-71000000D03*
%TD*%
D16*
%TO.C,R1*%
X102087500Y-56000000D03*
X103912500Y-56000000D03*
%TD*%
M02*
