%TF.GenerationSoftware,KiCad,Pcbnew,(6.0.6)*%
%TF.CreationDate,2022-06-28T18:53:51+02:00*%
%TF.ProjectId,thermocouples,74686572-6d6f-4636-9f75-706c65732e6b,rev?*%
%TF.SameCoordinates,Original*%
%TF.FileFunction,Legend,Bot*%
%TF.FilePolarity,Positive*%
%FSLAX46Y46*%
G04 Gerber Fmt 4.6, Leading zero omitted, Abs format (unit mm)*
G04 Created by KiCad (PCBNEW (6.0.6)) date 2022-06-28 18:53:51*
%MOMM*%
%LPD*%
G01*
G04 APERTURE LIST*
%ADD10R,2.600000X2.600000*%
%ADD11C,2.600000*%
%ADD12R,1.700000X1.700000*%
%ADD13O,1.700000X1.700000*%
G04 APERTURE END LIST*
%LPC*%
D10*
%TO.C,J4*%
X104500000Y-84305000D03*
D11*
X109500000Y-84305000D03*
%TD*%
D12*
%TO.C,J2*%
X116875000Y-87275000D03*
D13*
X116875000Y-84735000D03*
X116875000Y-82195000D03*
X116875000Y-79655000D03*
X116875000Y-77115000D03*
X116875000Y-74575000D03*
X116875000Y-72035000D03*
X116875000Y-69495000D03*
X116875000Y-66955000D03*
X116875000Y-64415000D03*
X116875000Y-61875000D03*
X116875000Y-59335000D03*
X116875000Y-56795000D03*
X116875000Y-54255000D03*
X116875000Y-51715000D03*
X116875000Y-49175000D03*
X116875000Y-46635000D03*
X116875000Y-44095000D03*
%TD*%
D10*
%TO.C,J3*%
X109500000Y-47695000D03*
D11*
X104500000Y-47695000D03*
%TD*%
D12*
%TO.C,J1*%
X97115000Y-87225000D03*
D13*
X97115000Y-84685000D03*
X97115000Y-82145000D03*
X97115000Y-79605000D03*
X97115000Y-77065000D03*
X97115000Y-74525000D03*
X97115000Y-71985000D03*
X97115000Y-69445000D03*
X97115000Y-66905000D03*
X97115000Y-64365000D03*
X97115000Y-61825000D03*
X97115000Y-59285000D03*
X97115000Y-56745000D03*
X97115000Y-54205000D03*
X97115000Y-51665000D03*
X97115000Y-49125000D03*
X97115000Y-46585000D03*
X97115000Y-44045000D03*
%TD*%
M02*
