%TF.GenerationSoftware,KiCad,Pcbnew,(6.0.6)*%
%TF.CreationDate,2022-06-28T18:53:51+02:00*%
%TF.ProjectId,thermocouples,74686572-6d6f-4636-9f75-706c65732e6b,rev?*%
%TF.SameCoordinates,Original*%
%TF.FileFunction,Legend,Top*%
%TF.FilePolarity,Positive*%
%FSLAX46Y46*%
G04 Gerber Fmt 4.6, Leading zero omitted, Abs format (unit mm)*
G04 Created by KiCad (PCBNEW (6.0.6)) date 2022-06-28 18:53:51*
%MOMM*%
%LPD*%
G01*
G04 APERTURE LIST*
G04 Aperture macros list*
%AMRoundRect*
0 Rectangle with rounded corners*
0 $1 Rounding radius*
0 $2 $3 $4 $5 $6 $7 $8 $9 X,Y pos of 4 corners*
0 Add a 4 corners polygon primitive as box body*
4,1,4,$2,$3,$4,$5,$6,$7,$8,$9,$2,$3,0*
0 Add four circle primitives for the rounded corners*
1,1,$1+$1,$2,$3*
1,1,$1+$1,$4,$5*
1,1,$1+$1,$6,$7*
1,1,$1+$1,$8,$9*
0 Add four rect primitives between the rounded corners*
20,1,$1+$1,$2,$3,$4,$5,0*
20,1,$1+$1,$4,$5,$6,$7,0*
20,1,$1+$1,$6,$7,$8,$9,0*
20,1,$1+$1,$8,$9,$2,$3,0*%
G04 Aperture macros list end*
%ADD10C,0.150000*%
%ADD11C,0.120000*%
%ADD12RoundRect,0.237500X0.300000X0.237500X-0.300000X0.237500X-0.300000X-0.237500X0.300000X-0.237500X0*%
%ADD13R,2.600000X2.600000*%
%ADD14C,2.600000*%
%ADD15R,1.700000X1.700000*%
%ADD16O,1.700000X1.700000*%
%ADD17RoundRect,0.237500X0.237500X-0.250000X0.237500X0.250000X-0.237500X0.250000X-0.237500X-0.250000X0*%
%ADD18RoundRect,0.087500X0.325000X0.087500X-0.325000X0.087500X-0.325000X-0.087500X0.325000X-0.087500X0*%
%ADD19RoundRect,0.087500X0.087500X0.325000X-0.087500X0.325000X-0.087500X-0.325000X0.087500X-0.325000X0*%
%ADD20R,2.700000X2.700000*%
%ADD21RoundRect,0.237500X-0.237500X0.250000X-0.237500X-0.250000X0.237500X-0.250000X0.237500X0.250000X0*%
%ADD22RoundRect,0.237500X-0.250000X-0.237500X0.250000X-0.237500X0.250000X0.237500X-0.250000X0.237500X0*%
%ADD23RoundRect,0.237500X-0.300000X-0.237500X0.300000X-0.237500X0.300000X0.237500X-0.300000X0.237500X0*%
%ADD24RoundRect,0.237500X0.250000X0.237500X-0.250000X0.237500X-0.250000X-0.237500X0.250000X-0.237500X0*%
G04 APERTURE END LIST*
D10*
%TO.C,C7*%
X101833333Y-66787142D02*
X101785714Y-66834761D01*
X101642857Y-66882380D01*
X101547619Y-66882380D01*
X101404761Y-66834761D01*
X101309523Y-66739523D01*
X101261904Y-66644285D01*
X101214285Y-66453809D01*
X101214285Y-66310952D01*
X101261904Y-66120476D01*
X101309523Y-66025238D01*
X101404761Y-65930000D01*
X101547619Y-65882380D01*
X101642857Y-65882380D01*
X101785714Y-65930000D01*
X101833333Y-65977619D01*
X102166666Y-65882380D02*
X102833333Y-65882380D01*
X102404761Y-66882380D01*
D11*
%TO.C,C8*%
X102146267Y-67510000D02*
X101853733Y-67510000D01*
X102146267Y-66490000D02*
X101853733Y-66490000D01*
%TO.C,J4*%
X101940000Y-86905000D02*
X112060000Y-86905000D01*
X110775000Y-83236000D02*
X110728000Y-83282000D01*
X108273000Y-85328000D02*
X108226000Y-85374000D01*
X101940000Y-88965000D02*
X112060000Y-88965000D01*
X108466000Y-85544000D02*
X108431000Y-85579000D01*
X101700000Y-89205000D02*
X102200000Y-89205000D01*
X101940000Y-79044000D02*
X112060000Y-79044000D01*
X112060000Y-79044000D02*
X112060000Y-88965000D01*
X110570000Y-83030000D02*
X110535000Y-83066000D01*
X101940000Y-82004000D02*
X112060000Y-82004000D01*
X101940000Y-88405000D02*
X112060000Y-88405000D01*
X101700000Y-88465000D02*
X101700000Y-89205000D01*
X101940000Y-79044000D02*
X101940000Y-88965000D01*
X106035001Y-84989000D02*
G75*
G03*
X106035427Y-83621958I-1535001J684000D01*
G01*
X102965000Y-83621000D02*
G75*
G03*
X102964573Y-84988042I1534993J-684001D01*
G01*
X104500000Y-85985000D02*
G75*
G03*
X105183318Y-85839756I0J1680000D01*
G01*
X103816000Y-85840000D02*
G75*
G03*
X104528805Y-85985253I683999J1535001D01*
G01*
X105184000Y-82770000D02*
G75*
G03*
X103816958Y-82769573I-684001J-1534993D01*
G01*
X111180000Y-84305000D02*
G75*
G03*
X111180000Y-84305000I-1680000J0D01*
G01*
%TO.C,J2*%
X118205000Y-86005000D02*
X115545000Y-86005000D01*
X115545000Y-86005000D02*
X115545000Y-42765000D01*
X116875000Y-88605000D02*
X115545000Y-88605000D01*
X115545000Y-88605000D02*
X115545000Y-87275000D01*
X118205000Y-42765000D02*
X115545000Y-42765000D01*
X118205000Y-86005000D02*
X118205000Y-42765000D01*
%TO.C,R8*%
X104477500Y-74254724D02*
X104477500Y-73745276D01*
X105522500Y-74254724D02*
X105522500Y-73745276D01*
%TO.C,R7*%
X108477500Y-74254724D02*
X108477500Y-73745276D01*
X109522500Y-74254724D02*
X109522500Y-73745276D01*
%TO.C,U1*%
X105590000Y-68110000D02*
X104890000Y-68110000D01*
X105590000Y-63890000D02*
X104890000Y-63890000D01*
X109110000Y-63890000D02*
X109110000Y-64590000D01*
X108410000Y-63890000D02*
X109110000Y-63890000D01*
X104890000Y-63890000D02*
X104890000Y-64590000D01*
X108410000Y-68110000D02*
X109110000Y-68110000D01*
X104890000Y-68110000D02*
X104890000Y-67410000D01*
%TO.C,R6*%
X109522500Y-58745276D02*
X109522500Y-59254724D01*
X108477500Y-58745276D02*
X108477500Y-59254724D01*
%TO.C,J3*%
X112300000Y-43535000D02*
X112300000Y-42795000D01*
X112060000Y-52956000D02*
X101940000Y-52956000D01*
X112060000Y-52956000D02*
X112060000Y-43035000D01*
X112060000Y-45095000D02*
X101940000Y-45095000D01*
X103430000Y-48970000D02*
X103465000Y-48934000D01*
X112060000Y-43595000D02*
X101940000Y-43595000D01*
X112060000Y-49996000D02*
X101940000Y-49996000D01*
X112300000Y-42795000D02*
X111800000Y-42795000D01*
X101940000Y-52956000D02*
X101940000Y-43035000D01*
X103225000Y-48764000D02*
X103272000Y-48718000D01*
X112060000Y-43035000D02*
X101940000Y-43035000D01*
X105534000Y-46456000D02*
X105569000Y-46421000D01*
X105727000Y-46672000D02*
X105774000Y-46626000D01*
X110184000Y-46160000D02*
G75*
G03*
X109471195Y-46014747I-683999J-1535001D01*
G01*
X108816000Y-49230000D02*
G75*
G03*
X110183042Y-49230427I684001J1534993D01*
G01*
X111035000Y-48379000D02*
G75*
G03*
X111035427Y-47011958I-1534993J684001D01*
G01*
X107964999Y-47011000D02*
G75*
G03*
X107964573Y-48378042I1535001J-684000D01*
G01*
X109500000Y-46015000D02*
G75*
G03*
X108816682Y-46160244I0J-1680000D01*
G01*
X106180000Y-47695000D02*
G75*
G03*
X106180000Y-47695000I-1680000J0D01*
G01*
%TO.C,R2*%
X110745276Y-55477500D02*
X111254724Y-55477500D01*
X110745276Y-56522500D02*
X111254724Y-56522500D01*
%TO.C,C1*%
X102853733Y-62510000D02*
X103146267Y-62510000D01*
X102853733Y-61490000D02*
X103146267Y-61490000D01*
%TO.C,J1*%
X95785000Y-85955000D02*
X95785000Y-42715000D01*
X95785000Y-88555000D02*
X95785000Y-87225000D01*
X98445000Y-85955000D02*
X98445000Y-42715000D01*
X97115000Y-88555000D02*
X95785000Y-88555000D01*
X98445000Y-85955000D02*
X95785000Y-85955000D01*
X98445000Y-42715000D02*
X95785000Y-42715000D01*
%TO.C,R3*%
X111254724Y-76477500D02*
X110745276Y-76477500D01*
X111254724Y-77522500D02*
X110745276Y-77522500D01*
%TO.C,C6*%
X103146267Y-71510000D02*
X102853733Y-71510000D01*
X103146267Y-70490000D02*
X102853733Y-70490000D01*
%TO.C,C5*%
X107146267Y-70490000D02*
X106853733Y-70490000D01*
X107146267Y-71510000D02*
X106853733Y-71510000D01*
%TO.C,C2*%
X106853733Y-62510000D02*
X107146267Y-62510000D01*
X106853733Y-61490000D02*
X107146267Y-61490000D01*
%TO.C,R4*%
X103254724Y-76477500D02*
X102745276Y-76477500D01*
X103254724Y-77522500D02*
X102745276Y-77522500D01*
%TO.C,C3*%
X110853733Y-61490000D02*
X111146267Y-61490000D01*
X110853733Y-62510000D02*
X111146267Y-62510000D01*
%TO.C,C7*%
X102146267Y-65510000D02*
X101853733Y-65510000D01*
X102146267Y-64490000D02*
X101853733Y-64490000D01*
%TO.C,R5*%
X105522500Y-58745276D02*
X105522500Y-59254724D01*
X104477500Y-58745276D02*
X104477500Y-59254724D01*
%TO.C,C4*%
X111146267Y-71510000D02*
X110853733Y-71510000D01*
X111146267Y-70490000D02*
X110853733Y-70490000D01*
%TO.C,R1*%
X102745276Y-55477500D02*
X103254724Y-55477500D01*
X102745276Y-56522500D02*
X103254724Y-56522500D01*
%TD*%
%LPC*%
D12*
%TO.C,C8*%
X102862500Y-67000000D03*
X101137500Y-67000000D03*
%TD*%
D13*
%TO.C,J4*%
X104500000Y-84305000D03*
D14*
X109500000Y-84305000D03*
%TD*%
D15*
%TO.C,J2*%
X116875000Y-87275000D03*
D16*
X116875000Y-84735000D03*
X116875000Y-82195000D03*
X116875000Y-79655000D03*
X116875000Y-77115000D03*
X116875000Y-74575000D03*
X116875000Y-72035000D03*
X116875000Y-69495000D03*
X116875000Y-66955000D03*
X116875000Y-64415000D03*
X116875000Y-61875000D03*
X116875000Y-59335000D03*
X116875000Y-56795000D03*
X116875000Y-54255000D03*
X116875000Y-51715000D03*
X116875000Y-49175000D03*
X116875000Y-46635000D03*
X116875000Y-44095000D03*
%TD*%
D17*
%TO.C,R8*%
X105000000Y-74912500D03*
X105000000Y-73087500D03*
%TD*%
%TO.C,R7*%
X109000000Y-74912500D03*
X109000000Y-73087500D03*
%TD*%
D18*
%TO.C,U1*%
X108962500Y-66975000D03*
X108962500Y-66325000D03*
X108962500Y-65675000D03*
X108962500Y-65025000D03*
D19*
X107975000Y-64037500D03*
X107325000Y-64037500D03*
X106675000Y-64037500D03*
X106025000Y-64037500D03*
D18*
X105037500Y-65025000D03*
X105037500Y-65675000D03*
X105037500Y-66325000D03*
X105037500Y-66975000D03*
D19*
X106025000Y-67962500D03*
X106675000Y-67962500D03*
X107325000Y-67962500D03*
X107975000Y-67962500D03*
D20*
X107000000Y-66000000D03*
%TD*%
D21*
%TO.C,R6*%
X109000000Y-58087500D03*
X109000000Y-59912500D03*
%TD*%
D13*
%TO.C,J3*%
X109500000Y-47695000D03*
D14*
X104500000Y-47695000D03*
%TD*%
D22*
%TO.C,R2*%
X110087500Y-56000000D03*
X111912500Y-56000000D03*
%TD*%
D23*
%TO.C,C1*%
X102137500Y-62000000D03*
X103862500Y-62000000D03*
%TD*%
D15*
%TO.C,J1*%
X97115000Y-87225000D03*
D16*
X97115000Y-84685000D03*
X97115000Y-82145000D03*
X97115000Y-79605000D03*
X97115000Y-77065000D03*
X97115000Y-74525000D03*
X97115000Y-71985000D03*
X97115000Y-69445000D03*
X97115000Y-66905000D03*
X97115000Y-64365000D03*
X97115000Y-61825000D03*
X97115000Y-59285000D03*
X97115000Y-56745000D03*
X97115000Y-54205000D03*
X97115000Y-51665000D03*
X97115000Y-49125000D03*
X97115000Y-46585000D03*
X97115000Y-44045000D03*
%TD*%
D24*
%TO.C,R3*%
X111912500Y-77000000D03*
X110087500Y-77000000D03*
%TD*%
D12*
%TO.C,C6*%
X103862500Y-71000000D03*
X102137500Y-71000000D03*
%TD*%
%TO.C,C5*%
X107862500Y-71000000D03*
X106137500Y-71000000D03*
%TD*%
D23*
%TO.C,C2*%
X106137500Y-62000000D03*
X107862500Y-62000000D03*
%TD*%
D24*
%TO.C,R4*%
X103912500Y-77000000D03*
X102087500Y-77000000D03*
%TD*%
D23*
%TO.C,C3*%
X110137500Y-62000000D03*
X111862500Y-62000000D03*
%TD*%
D12*
%TO.C,C7*%
X102862500Y-65000000D03*
X101137500Y-65000000D03*
%TD*%
D21*
%TO.C,R5*%
X105000000Y-58087500D03*
X105000000Y-59912500D03*
%TD*%
D12*
%TO.C,C4*%
X111862500Y-71000000D03*
X110137500Y-71000000D03*
%TD*%
D22*
%TO.C,R1*%
X102087500Y-56000000D03*
X103912500Y-56000000D03*
%TD*%
M02*
